<svg width="214" height="52" viewBox="0 0 214 52" fill="none" xmlns="http://www.w3.org/2000/svg">
<rect x="15.957" y="19.5976" width="22.5668" height="22.5668" rx="2.25668" transform="rotate(45 15.957 19.5976)" fill="#1051B4" fill-opacity="0.3"/>
<rect x="15.957" y="9.7988" width="22.5668" height="22.5668" rx="2.25668" transform="rotate(45 15.957 9.7988)" fill="#87A8D9" fill-opacity="0.3"/>
<rect x="15.957" width="22.5668" height="22.5668" rx="2.25668" transform="rotate(45 15.957 0)" fill="#B7CBE9" fill-opacity="0.3"/>
<path d="M50.8176 19.5416C53.8461 19.5416 56.1381 20.2367 57.6937 21.6268C59.2493 23.0169 60.0271 25.1021 60.0271 27.8823C60.0271 33.2441 56.9573 35.9251 50.8176 35.9251H39.9201V19.5416H50.8176ZM51.3141 32.9463C55.5506 32.9463 57.6689 31.2086 57.6689 27.7333C57.6689 24.2581 55.5506 22.5204 51.3141 22.5204H42.2784V32.9463H51.3141ZM71.277 22.9921C72.7333 22.9921 74.0158 23.1741 75.1246 23.5382C76.2334 23.8857 77.1436 24.3905 77.8552 25.0524C78.5833 25.6978 79.1129 26.4839 79.4439 27.4106C79.7749 28.3208 79.8907 29.3303 79.7914 30.4391H64.5747C64.707 31.4817 65.3276 32.2843 66.4364 32.847C67.5452 33.3931 69.1753 33.6661 71.3266 33.6661C73.0312 33.6661 74.3716 33.5337 75.348 33.269C76.341 33.0042 77.0029 32.5574 77.3339 31.9285H79.6921C79.3777 33.3683 78.5172 34.477 77.1105 35.2548C75.7038 36.0161 73.809 36.3967 71.4259 36.3967C70.0027 36.3967 68.7284 36.2395 67.6031 35.9251C66.4778 35.6106 65.5262 35.1638 64.7484 34.5846C63.9872 33.9888 63.3997 33.2855 62.986 32.4746C62.5888 31.6472 62.3902 30.7287 62.3902 29.7192C62.3902 28.6435 62.5888 27.692 62.986 26.8645C63.3997 26.0371 63.9872 25.3337 64.7484 24.7545C65.5262 24.1753 66.4612 23.7368 67.5535 23.4389C68.6622 23.141 69.9034 22.9921 71.277 22.9921ZM77.4084 28.4532C77.2925 27.6092 76.7216 26.9638 75.6956 26.517C74.6861 26.0702 73.1801 25.8468 71.1777 25.8468C69.1753 25.8468 67.6445 26.0702 66.5854 26.517C65.5428 26.9638 64.9139 27.6092 64.6988 28.4532H77.4084ZM90.9612 22.9921C92.4175 22.9921 93.7 23.1741 94.8088 23.5382C95.9176 23.8857 96.8278 24.3905 97.5394 25.0524C98.2675 25.6978 98.7971 26.4839 99.1281 27.4106C99.4591 28.3208 99.5749 29.3303 99.4756 30.4391H84.2589C84.3913 31.4817 85.0118 32.2843 86.1206 32.847C87.2294 33.3931 88.8595 33.6661 91.0108 33.6661C92.7154 33.6661 94.0558 33.5337 95.0322 33.269C96.0252 33.0042 96.6871 32.5574 97.0181 31.9285H99.3763C99.0619 33.3683 98.2014 34.477 96.7947 35.2548C95.388 36.0161 93.4932 36.3967 91.1101 36.3967C89.6869 36.3967 88.4126 36.2395 87.2873 35.9251C86.162 35.6106 85.2104 35.1638 84.4326 34.5846C83.6714 33.9888 83.0839 33.2855 82.6702 32.4746C82.273 31.6472 82.0744 30.7287 82.0744 29.7192C82.0744 28.6435 82.273 27.692 82.6702 26.8645C83.0839 26.0371 83.6714 25.3337 84.4326 24.7545C85.2104 24.1753 86.1454 23.7368 87.2377 23.4389C88.3465 23.141 89.5876 22.9921 90.9612 22.9921ZM97.0926 28.4532C96.9767 27.6092 96.4058 26.9638 95.3798 26.517C94.3703 26.0702 92.8643 25.8468 90.8619 25.8468C88.8595 25.8468 87.3287 26.0702 86.2696 26.517C85.227 26.9638 84.5981 27.6092 84.383 28.4532H97.0926ZM102.379 23.5134H104.613V26.0205H104.688C104.936 25.5737 105.259 25.1683 105.656 24.8042C106.07 24.4235 106.55 24.1008 107.096 23.8361C107.642 23.5713 108.238 23.3727 108.883 23.2403C109.545 23.0914 110.248 23.0169 110.993 23.0169C112.118 23.0169 113.161 23.1824 114.121 23.5134C115.081 23.8443 115.908 24.3077 116.603 24.9035C117.298 25.4992 117.844 26.2191 118.241 27.0631C118.639 27.8906 118.837 28.809 118.837 29.8185C118.837 30.828 118.639 31.7382 118.241 32.5491C117.861 33.36 117.315 34.055 116.603 34.6343C115.908 35.1969 115.064 35.6355 114.071 35.9499C113.095 36.2643 112.019 36.4215 110.844 36.4215C109.47 36.4215 108.287 36.2147 107.294 35.801C106.301 35.3707 105.432 34.7501 104.688 33.9392H104.613V40.3933H102.379V23.5134ZM104.688 29.744C104.688 30.9356 105.217 31.854 106.276 32.4994C107.336 33.1283 108.825 33.4427 110.745 33.4427C112.648 33.4427 114.096 33.12 115.089 32.4746C116.098 31.8292 116.603 30.9107 116.603 29.7192C116.603 28.5277 116.107 27.6092 115.114 26.9638C114.121 26.3184 112.673 25.9957 110.77 25.9957C108.866 25.9957 107.377 26.3267 106.301 26.9886C105.226 27.634 104.688 28.5525 104.688 29.744ZM123.953 30.2902C124.019 30.8528 124.209 31.3245 124.524 31.7051C124.838 32.0857 125.31 32.4001 125.939 32.6484C126.584 32.8801 127.412 33.0538 128.421 33.1697C129.431 33.269 130.655 33.3186 132.095 33.3186C133.469 33.3186 134.61 33.2772 135.521 33.1945C136.431 33.0952 137.151 32.9628 137.68 32.7973C138.226 32.6153 138.607 32.3919 138.822 32.1271C139.054 31.8623 139.17 31.5561 139.17 31.2086C139.17 30.5963 138.921 30.1412 138.425 29.8433C137.945 29.5289 137.308 29.3055 136.514 29.1731C135.719 29.0407 134.809 28.9662 133.783 28.9497C132.773 28.9331 131.739 28.9166 130.68 28.9C129.621 28.8669 128.578 28.8007 127.552 28.7015C126.543 28.5856 125.641 28.3705 124.847 28.056C124.052 27.7416 123.407 27.2948 122.91 26.7156C122.43 26.1364 122.19 25.3586 122.19 24.3822C122.19 23.5713 122.372 22.8431 122.737 22.1977C123.101 21.5358 123.655 20.9731 124.4 20.5097C125.161 20.0464 126.113 19.6905 127.254 19.4423C128.413 19.1775 129.77 19.0451 131.325 19.0451C134.569 19.0451 136.993 19.583 138.599 20.6587C140.204 21.7178 141.007 23.2238 141.007 25.1765H138.698C138.698 24.7628 138.607 24.3739 138.425 24.0098C138.259 23.6292 137.912 23.3065 137.382 23.0417C136.869 22.7604 136.141 22.5452 135.198 22.3963C134.255 22.2308 133.022 22.1481 131.499 22.1481C130.192 22.1481 129.1 22.206 128.223 22.3218C127.345 22.4377 126.642 22.6032 126.113 22.8183C125.583 23.0334 125.211 23.2899 124.995 23.5878C124.78 23.8692 124.673 24.1753 124.673 24.5063C124.673 25.0524 124.913 25.4579 125.393 25.7226C125.873 25.9874 126.501 26.1695 127.279 26.2688C128.074 26.3515 128.975 26.3929 129.985 26.3929C130.994 26.3929 132.02 26.4094 133.063 26.4425C134.106 26.4591 135.132 26.5335 136.141 26.6659C137.151 26.7818 138.044 27.0135 138.822 27.361C139.616 27.692 140.254 28.1719 140.734 28.8007C141.213 29.4131 141.453 30.2405 141.453 31.2831C141.453 32.8883 140.7 34.1461 139.194 35.0563C137.689 35.9664 135.322 36.4215 132.095 36.4215C128.52 36.4215 125.873 35.8754 124.151 34.7832C122.43 33.6744 121.57 32.1767 121.57 30.2902H123.953ZM148.78 29.9923C148.78 31.1176 149.044 31.9368 149.574 32.4498C150.104 32.9463 151.03 33.1945 152.354 33.1945C152.569 33.1945 152.784 33.1862 153 33.1697C153.231 33.1531 153.48 33.12 153.744 33.0704V35.9251C153.529 36.0078 153.273 36.0657 152.975 36.0988C152.677 36.1485 152.346 36.1733 151.982 36.1733C150.178 36.1733 148.821 35.7348 147.911 34.8577C147.001 33.9806 146.546 32.6898 146.546 30.9852V26.2688L143.567 26.2936V23.563L146.546 23.5382V20.5345H148.78V23.5382L153.769 23.5134V26.2439L148.78 26.2688V29.9923ZM156.866 32.4746C156.866 31.0845 157.461 30.075 158.653 29.4462C159.861 28.8173 161.772 28.5194 164.387 28.5525L170.618 28.6022C170.585 28.0726 170.461 27.634 170.245 27.2865C170.03 26.9224 169.699 26.6246 169.253 26.3929C168.806 26.1612 168.243 25.9957 167.565 25.8964C166.886 25.7971 166.067 25.7475 165.107 25.7475C163.386 25.7475 162.095 25.9047 161.235 26.2191C160.391 26.5335 159.878 27.0383 159.696 27.7333H157.337C157.337 26.2439 158.032 25.0855 159.422 24.2581C160.813 23.4306 162.807 23.0169 165.405 23.0169C167.904 23.0169 169.757 23.5216 170.965 24.5311C172.19 25.5406 172.802 26.9721 172.802 28.8256V35.9251H170.568V33.964C170.171 34.7418 169.352 35.3459 168.111 35.7761C166.869 36.2064 165.297 36.4215 163.394 36.4215C161.177 36.4215 159.53 36.1071 158.454 35.4782C157.395 34.8328 156.866 33.8316 156.866 32.4746ZM159.199 32.1271C159.199 32.3753 159.265 32.5905 159.398 32.7725C159.53 32.938 159.753 33.0704 160.068 33.1697C160.382 33.269 160.796 33.3434 161.309 33.3931C161.822 33.4262 162.459 33.4427 163.22 33.4427C164.577 33.4427 165.728 33.3848 166.671 33.269C167.614 33.1366 168.375 32.9463 168.955 32.698C169.55 32.4332 169.981 32.1023 170.245 31.7051C170.51 31.3079 170.634 30.8363 170.618 30.2902H165.628C164.453 30.2902 163.452 30.3233 162.625 30.3894C161.814 30.4556 161.152 30.5632 160.639 30.7122C160.142 30.8445 159.778 31.0266 159.547 31.2583C159.315 31.49 159.199 31.7796 159.199 32.1271ZM190.343 28.3043C190.243 27.9071 190.053 27.5596 189.772 27.2617C189.507 26.9638 189.134 26.7239 188.655 26.5418C188.191 26.3598 187.612 26.2274 186.917 26.1446C186.238 26.0453 185.419 25.9957 184.459 25.9957C183.251 25.9957 182.225 26.0619 181.381 26.1943C180.554 26.3267 179.875 26.5418 179.346 26.8397C178.833 27.1376 178.46 27.5265 178.229 28.0064C177.997 28.4698 177.881 29.0407 177.881 29.7192C177.881 30.3977 177.997 30.9769 178.229 31.4569C178.46 31.9202 178.841 32.3009 179.371 32.5987C179.9 32.8966 180.587 33.1117 181.431 33.2441C182.275 33.3765 183.301 33.4427 184.509 33.4427C185.452 33.4427 186.263 33.4096 186.942 33.3434C187.62 33.2607 188.191 33.1366 188.655 32.9711C189.118 32.8056 189.482 32.5905 189.747 32.3257C190.028 32.0443 190.235 31.6968 190.367 31.2831H192.726C192.709 32.0774 192.494 32.789 192.08 33.4179C191.683 34.0468 191.112 34.5846 190.367 35.0314C189.639 35.4782 188.754 35.8175 187.711 36.0492C186.685 36.2974 185.527 36.4215 184.236 36.4215C181.456 36.4215 179.329 35.8506 177.856 34.7087C176.384 33.5668 175.647 31.9037 175.647 29.7192C175.647 27.5348 176.384 25.8716 177.856 24.7297C179.346 23.5878 181.505 23.0169 184.335 23.0169C185.626 23.0169 186.785 23.141 187.811 23.3892C188.853 23.6375 189.73 23.9933 190.442 24.4566C191.17 24.92 191.724 25.4827 192.105 26.1446C192.502 26.79 192.701 27.5099 192.701 28.3043H190.343ZM195.831 19.0451H198.065V30.2157L210.352 23.141L211.718 25.2014L203.948 29.8185C204.61 30.2322 205.264 30.6294 205.909 31.01C206.571 31.3907 207.249 31.7299 207.945 32.0278C208.656 32.3091 209.393 32.5325 210.154 32.698C210.915 32.8635 211.742 32.9463 212.636 32.9463V35.9251C211.511 35.9251 210.46 35.7761 209.484 35.4782C208.507 35.1638 207.58 34.7749 206.703 34.3115C205.826 33.8316 204.991 33.3103 204.196 32.7477C203.402 32.1685 202.624 31.6058 201.863 31.0597L198.065 33.3186V35.9251H195.831V19.0451Z" fill="white"/>
</svg>
