<svg width="282" height="278" viewBox="0 0 282 278" fill="none" xmlns="http://www.w3.org/2000/svg">
<path d="M41.7955 54.5101C41.4882 54.5101 41.1883 54.3607 41.0084 54.0916C40.7535 53.703 40.821 53.1799 41.1733 52.8735L59.615 36.8584C59.7499 36.7388 59.9149 36.6641 60.0948 36.6416L82.1048 33.4805C82.5621 33.4132 83.0044 33.6897 83.1394 34.1381C83.2743 34.579 83.0644 35.0573 82.6446 35.2516L42.1929 54.4205C42.0654 54.4803 41.9305 54.5101 41.7955 54.5101ZM60.642 38.4502L47.5604 49.8095L76.2575 36.2082L60.642 38.4502Z" fill="url(#paint0_linear_489_30)" fill-opacity="0.3"/>
<path d="M60.2372 38.5025C59.8399 38.5025 59.4801 38.2559 59.3526 37.8747C59.2027 37.4488 59.3826 36.9854 59.7724 36.7612L105.959 10.4106C106.371 10.1789 106.889 10.2836 107.174 10.6572C107.458 11.0309 107.413 11.5615 107.076 11.8903C98.0201 20.6639 92.9974 25.5065 82.892 35.0872C82.7495 35.2217 82.5696 35.3039 82.3822 35.3338L60.3722 38.495C60.3272 38.495 60.2822 38.5025 60.2372 38.5025ZM100.442 15.7091L64.9676 35.9466L81.82 33.5253C89.6314 26.1193 94.3993 21.5457 100.442 15.7091Z" fill="url(#paint1_linear_489_30)" fill-opacity="0.3"/>
<path d="M60.672 66.826C60.4846 66.826 60.3047 66.7737 60.1473 66.6616C58.2431 65.3688 56.339 64.046 54.4799 62.7531C49.3297 59.1734 44.4719 55.7881 41.4058 54.4205C41.0759 54.271 40.8585 53.9422 40.851 53.576C40.8435 53.2098 41.0534 52.881 41.3832 52.724L81.835 33.5552C82.2173 33.3758 82.6746 33.473 82.952 33.7943C83.2293 34.1157 83.2518 34.579 83.012 34.9303L79.646 39.8178C73.1464 49.2565 68.8508 55.4891 61.4442 66.415C61.3018 66.6168 61.0919 66.7588 60.8445 66.8111C60.792 66.826 60.732 66.826 60.672 66.826ZM43.9246 53.6059C47.0507 55.3173 51.2038 58.2019 55.5519 61.2286C57.1486 62.3421 58.7829 63.478 60.4247 64.5915C67.5239 54.1365 71.767 47.9785 78.1091 38.764L79.5035 36.7463L43.9246 53.6059Z" fill="url(#paint2_linear_489_30)" fill-opacity="0.3"/>
<path d="M60.672 66.826C60.4696 66.826 60.2747 66.7663 60.1023 66.6317C59.705 66.3328 59.615 65.7723 59.8924 65.3688C67.3065 54.4354 71.6021 48.2027 78.1016 38.764L81.4676 33.884C81.5051 33.8317 81.5501 33.7794 81.5951 33.7346C91.693 24.1613 96.7157 19.3187 105.764 10.5526C106.116 10.2088 106.679 10.2013 107.046 10.5302C107.413 10.859 107.458 11.4195 107.144 11.8081C90.2762 32.7855 80.9204 43.8608 61.3767 66.5122C61.2043 66.7214 60.9419 66.826 60.672 66.826ZM82.967 35.02L79.6609 39.8252C76.3924 44.5782 73.6786 48.5166 70.8449 52.6568C80.3281 41.5889 87.5324 33.0022 96.0785 22.5247C92.2178 26.2165 88.3046 29.9606 82.967 35.02Z" fill="url(#paint3_linear_489_30)" fill-opacity="0.3"/>
<path d="M60.6795 66.826C60.4321 66.826 60.1847 66.7289 59.9973 66.5346C59.6675 66.1833 59.6525 65.6453 59.9674 65.2791C79.496 42.6501 88.8368 31.5823 105.689 10.6273C105.929 10.3359 106.319 10.2088 106.679 10.3134C107.046 10.4181 107.308 10.7319 107.346 11.1056C108.043 17.3831 108.628 20.7685 110.337 28.3239C110.42 28.6827 110.285 29.0563 109.985 29.273C96.6258 39.3395 87.8172 46.1327 76.6698 54.7343C72.0594 58.2916 67.0741 62.1403 61.2417 66.6243C61.0768 66.7663 60.8744 66.826 60.6795 66.826ZM105.749 13.5494C91.5206 31.2086 82.5396 41.9327 67.3665 59.5695C70.2602 57.3425 72.959 55.2575 75.5378 53.2696C86.5578 44.7725 95.2839 38.0317 108.388 28.1595C106.964 21.8372 106.341 18.4443 105.749 13.5494Z" fill="url(#paint4_linear_489_30)" fill-opacity="0.3"/>
<path d="M109.43 29.4748C109.325 29.4748 109.213 29.4599 109.108 29.415C108.808 29.3029 108.583 29.0563 108.515 28.7424C106.791 21.1048 106.199 17.6821 105.487 11.3223C105.442 10.8964 105.689 10.4928 106.094 10.3433C121.237 4.75336 129.333 2.86263 145.444 1.15873C145.879 1.1139 146.268 1.36051 146.418 1.76407C146.568 2.16762 146.426 2.61602 146.073 2.85516C132.707 12.0921 125.563 17.4429 109.992 29.2805C109.835 29.4076 109.632 29.4748 109.43 29.4748ZM107.436 11.8455C108.051 17.2785 108.62 20.6041 110.03 26.919C123.636 16.576 130.758 11.2476 141.98 3.4306C128.621 4.9925 120.787 6.94302 107.436 11.8455Z" fill="url(#paint5_linear_489_30)" fill-opacity="0.3"/>
<path d="M60.6795 66.826C60.3496 66.826 60.0273 66.6467 59.8624 66.3477C59.6375 65.9442 59.7424 65.436 60.1098 65.152C65.9421 60.6681 70.9274 56.8268 75.5378 53.2696C86.6927 44.6679 95.5013 37.8673 108.868 27.7933C109.138 27.5916 109.49 27.5467 109.797 27.6812C110.105 27.8158 110.322 28.0997 110.36 28.4286C111.342 36.694 112.054 41.0807 113.98 50.7511C114.078 51.2518 113.756 51.7451 113.246 51.8497C92.0004 56.1692 81.2577 59.2332 61.0019 66.7737C60.8969 66.8111 60.7844 66.826 60.6795 66.826ZM108.695 30.267C96.0561 39.8028 87.465 46.4316 76.6848 54.7493C73.4013 57.2827 69.9229 59.9656 66.0921 62.9175C82.6821 56.924 93.2823 54.0244 111.971 50.2056C110.285 41.7309 109.557 37.3367 108.695 30.267Z" fill="url(#paint6_linear_489_30)" fill-opacity="0.3"/>
<path d="M113.066 51.8646C113.006 51.8646 112.938 51.8572 112.878 51.8422C112.511 51.7675 112.219 51.476 112.144 51.1098C110.21 41.3797 109.49 36.9705 108.5 28.6453C108.463 28.3165 108.598 27.9951 108.86 27.7933C124.453 15.9333 131.612 10.5825 145.009 1.31567C145.376 1.06158 145.871 1.09895 146.193 1.41282C146.516 1.71923 146.576 2.21246 146.336 2.58612C134.701 20.8208 127.842 30.9695 113.838 51.4536C113.658 51.7152 113.366 51.8646 113.066 51.8646ZM110.42 28.9592C111.297 36.253 111.979 40.5576 113.546 48.5615C125.69 30.7976 132.407 20.8432 142.228 5.53058C131.305 13.1533 124.153 18.5191 110.42 28.9592Z" fill="url(#paint7_linear_489_30)" fill-opacity="0.3"/>
<path d="M113.066 51.8646C112.803 51.8646 112.541 51.7525 112.361 51.5433C112.076 51.2219 112.054 50.7511 112.294 50.3999C126.282 29.9382 133.134 19.7895 144.762 1.58471C145.039 1.15126 145.609 1.02422 146.051 1.29325C157.093 8.1761 164.035 12.7049 178.429 22.9507C178.721 23.1525 178.864 23.5037 178.811 23.8549C178.759 24.2062 178.511 24.4902 178.174 24.6023C153.72 32.3819 139.971 38.4801 113.493 51.76C113.351 51.8347 113.208 51.8646 113.066 51.8646ZM145.834 3.37081C135.068 20.223 128.336 30.2296 115.87 48.4792C138.727 37.0751 153.008 30.7378 175.813 23.3916C162.806 14.1696 156.006 9.72306 145.834 3.37081Z" fill="url(#paint8_linear_489_30)" fill-opacity="0.3"/>
<path d="M177.874 24.6471C177.679 24.6471 177.492 24.5873 177.327 24.4752C162.971 14.2593 156.051 9.74548 145.039 2.88505C144.702 2.6758 144.529 2.27225 144.619 1.88364C144.709 1.49503 145.039 1.20357 145.436 1.16621C162.603 -0.649788 171.952 -0.403171 188.939 2.31709C189.231 2.36193 189.486 2.54876 189.621 2.81032C189.756 3.07188 189.764 3.38576 189.629 3.65479C185.933 11.1355 183.789 15.1636 178.684 24.1838C178.556 24.4154 178.331 24.5798 178.069 24.6396C178.016 24.6396 177.942 24.6471 177.874 24.6471ZM148.352 2.74306C157.903 8.72912 164.755 13.243 177.567 22.3528C182.035 14.4461 184.164 10.448 187.387 3.95372C172.289 1.59965 163.241 1.30073 148.352 2.74306Z" fill="url(#paint9_linear_489_30)" fill-opacity="0.3"/>
<path d="M29.9434 95.7773C29.771 95.7773 29.6061 95.7325 29.4561 95.6354C29.0963 95.4186 28.9314 94.9852 29.0438 94.5816L40.896 53.3144C40.9709 53.0529 41.1583 52.8361 41.3982 52.724C41.6456 52.6119 41.9305 52.6045 42.1779 52.7166C45.3939 54.1589 50.3342 57.5891 55.5518 61.2211C57.4035 62.5065 59.3001 63.8293 61.1968 65.1147C61.4292 65.2716 61.5791 65.5257 61.6016 65.8097C61.6241 66.0937 61.5192 66.3702 61.3167 66.5645C49.0523 78.3498 42.7326 84.3059 30.5731 95.5307C30.4007 95.6951 30.1758 95.7773 29.9434 95.7773ZM42.3878 54.9062L31.7651 91.8913C42.1029 82.333 48.3176 76.474 59.1877 66.0264C57.6059 64.9428 56.0241 63.8442 54.4723 62.7681C49.8544 59.5396 45.4539 56.4831 42.3878 54.9062Z" fill="url(#paint10_linear_489_30)" fill-opacity="0.3"/>
<path d="M29.9434 95.7773C29.9059 95.7773 29.8684 95.7773 29.831 95.7699C29.3737 95.7101 29.0213 95.3289 29.0063 94.8731L28.2417 71.2203C28.2342 71.0185 28.2941 70.8167 28.4141 70.6449L41.0234 53.0304C41.2858 52.6568 41.7806 52.5297 42.1929 52.7315C42.6052 52.9258 42.8151 53.3966 42.6876 53.8301L30.8355 95.0973C30.7305 95.5083 30.3557 95.7773 29.9434 95.7773ZM30.1308 71.4744L30.693 88.8571L39.4041 58.5382L30.1308 71.4744Z" fill="url(#paint11_linear_489_30)" fill-opacity="0.3"/>
<path d="M52.7856 113.698C52.5757 113.698 52.3658 113.623 52.1933 113.489C41.4807 104.738 36.7953 101.061 29.3887 95.598C29.1638 95.4336 29.0288 95.1795 29.0138 94.8955C28.9988 94.6115 29.1113 94.35 29.3137 94.1556C41.4657 82.9383 47.7778 76.9896 60.0273 65.2193C60.3272 64.9278 60.792 64.8755 61.1518 65.0848C61.5116 65.3015 61.6916 65.7275 61.5791 66.131C56.9312 83.4764 55.3195 93.0795 53.7227 112.831C53.6927 113.175 53.4753 113.481 53.1529 113.616C53.033 113.668 52.913 113.698 52.7856 113.698ZM31.4128 94.7685C38.0173 99.656 42.6427 103.288 51.9985 110.911C53.4603 93.4233 55.0121 83.8874 58.9178 68.8812C48.4451 78.9252 42.2304 84.7693 31.4128 94.7685Z" fill="url(#paint12_linear_489_30)" fill-opacity="0.3"/>
<path d="M52.7856 113.698C52.6507 113.698 52.5232 113.668 52.3958 113.616C52.0359 113.452 51.8185 113.085 51.8485 112.689C53.4603 92.803 55.0871 83.1326 59.7649 65.6527C59.8399 65.3613 60.0573 65.1221 60.3422 65.0175C80.7105 57.4396 91.5131 54.3532 112.871 50.0187C113.268 49.9365 113.681 50.1234 113.875 50.4821C114.07 50.8408 114.018 51.2817 113.733 51.5806C89.6764 76.6533 76.2575 90.3443 53.4453 113.422C53.2729 113.601 53.033 113.698 52.7856 113.698ZM61.4592 66.6018C57.1112 82.8935 55.4544 92.3845 53.9326 110.268C74.998 88.9543 88.1696 75.5025 110.307 52.4475C91.1233 56.4308 80.4781 59.5396 61.4592 66.6018Z" fill="url(#paint13_linear_489_30)" fill-opacity="0.3"/>
<path d="M6.7864 119.684C6.44905 119.684 6.12667 119.497 5.96175 119.191C5.76683 118.832 5.83432 118.391 6.11919 118.1C15.1151 108.87 19.853 104.005 29.2762 94.2005C29.6061 93.8642 30.1308 93.8194 30.5132 94.0959C37.9498 99.5737 42.6502 103.266 53.3928 112.039C53.6852 112.278 53.8051 112.674 53.6927 113.041C53.5802 113.407 53.2579 113.661 52.8756 113.698C33.152 115.365 23.7137 116.598 6.96631 119.677C6.89884 119.677 6.84637 119.684 6.7864 119.684ZM30.0484 96.0837C21.7271 104.745 17.0568 109.551 9.50017 117.3C23.9461 114.7 33.2644 113.504 50.4092 112.024C41.2333 104.551 36.6679 100.979 30.0484 96.0837Z" fill="url(#paint14_linear_489_30)" fill-opacity="0.3"/>
<path d="M113.066 51.8646C112.661 51.8646 112.301 51.6031 112.174 51.2145C112.039 50.781 112.234 50.3027 112.646 50.1009C138.037 37.3666 152.67 30.7602 177.597 22.8311C177.844 22.7564 178.106 22.7788 178.339 22.9058C178.564 23.0329 178.729 23.2421 178.789 23.4962C181.06 32.4043 182.327 37.2918 184.621 46.1401L185.131 48.0906C185.206 48.3821 185.138 48.6885 184.943 48.9202C184.748 49.1518 184.464 49.2789 184.156 49.2565C155.902 47.306 140.653 47.8664 113.201 51.8646C113.156 51.8646 113.111 51.8646 113.066 51.8646ZM177.214 24.9087C154.957 32.0307 141.516 37.8299 118.613 49.2042C142.37 45.9757 157.386 45.5722 182.987 47.291L182.807 46.596C180.595 38.069 179.336 33.2189 177.214 24.9087Z" fill="url(#paint15_linear_489_30)" fill-opacity="0.3"/>
<path d="M52.7856 113.698C52.5232 113.698 52.2683 113.594 52.0809 113.384C51.7586 113.018 51.7735 112.458 52.1184 112.114C74.9231 89.044 88.3345 75.3605 112.384 50.2952C112.684 49.9814 113.156 49.9141 113.531 50.1383C113.905 50.355 114.078 50.8034 113.95 51.2145C111.567 59.0315 110.367 63.0595 107.938 71.5043C107.886 71.6986 107.766 71.863 107.608 71.99C99.467 78.2152 92.8025 83.3419 86.5129 88.1696C75.8602 96.3528 66.6693 103.422 53.3478 113.519C53.1829 113.631 52.988 113.698 52.7856 113.698ZM111.027 54.4055C91.9629 74.2544 79.526 86.9963 62.7036 104.05C70.8749 97.8175 77.7493 92.534 85.3734 86.6824C91.5955 81.8996 98.2001 76.8252 106.229 70.6822C108.193 63.8592 109.355 59.9282 111.027 54.4055Z" fill="url(#paint16_linear_489_30)" fill-opacity="0.3"/>
<path d="M107.046 72.1694C106.814 72.1694 106.589 72.0872 106.409 71.9228C106.146 71.6836 106.042 71.3174 106.146 70.9811C108.575 62.5215 109.782 58.4934 112.166 50.6614C112.271 50.3177 112.571 50.0636 112.931 50.0113C140.541 45.9907 155.871 45.4302 184.284 47.3882C184.748 47.418 185.123 47.7917 185.153 48.2625C185.183 48.7333 184.861 49.1444 184.404 49.2415C154.02 55.392 136.808 61.0193 107.376 72.1171C107.271 72.147 107.159 72.1694 107.046 72.1694ZM113.786 51.7675C111.686 58.6578 110.502 62.6261 108.463 69.7032C134.716 59.8311 151.374 54.3457 177.259 48.8081C153.428 47.4255 138.569 48.1878 113.786 51.7675Z" fill="url(#paint17_linear_489_30)" fill-opacity="0.3"/>
<path d="M177.874 24.6471C177.612 24.6471 177.357 24.535 177.177 24.3407C176.907 24.0418 176.862 23.6083 177.057 23.2571C182.14 14.2668 184.276 10.2611 187.957 2.81779C188.137 2.4516 188.542 2.24235 188.947 2.30961C200.776 4.20034 206.751 5.73235 218.011 9.75295C218.408 9.89494 218.663 10.291 218.626 10.7095C218.588 11.128 218.273 11.4793 217.854 11.554C204.442 13.9081 196.203 16.8675 178.249 24.5798C178.129 24.6247 178.001 24.6471 177.874 24.6471ZM189.336 4.26013C186.165 10.6647 184.089 14.5956 180.056 21.7699C194.929 15.4401 203.025 12.533 214.09 10.3508C205.094 7.25689 199.509 5.91171 189.336 4.26013Z" fill="url(#paint18_linear_489_30)" fill-opacity="0.3"/>
<path d="M246.033 34.4819C245.996 34.4819 245.958 34.4819 245.921 34.4744L219.203 31.2759C218.746 31.2236 218.401 30.8424 218.378 30.3866C218.033 21.9941 217.719 18.1379 216.766 10.7544C216.722 10.3807 216.901 10.007 217.239 9.82021C217.569 9.63338 217.981 9.66327 218.281 9.90242C229.533 18.8404 235.605 23.8101 246.633 32.8303C246.955 33.0919 247.06 33.5403 246.903 33.9214C246.745 34.2577 246.401 34.4819 246.033 34.4819ZM220.215 29.5122L242.952 32.2399C234.009 24.9236 228.199 20.1856 218.911 12.7946C219.623 18.6312 219.923 22.4724 220.215 29.5122Z" fill="url(#paint19_linear_489_30)" fill-opacity="0.3"/>
<path d="M219.315 31.2833C219.24 31.2833 219.158 31.2759 219.083 31.2534C203.033 27.1506 194.546 25.7905 177.814 24.6471C177.379 24.6172 177.027 24.2959 176.952 23.8699C176.877 23.4439 177.109 23.0254 177.507 22.8535C195.611 15.0814 203.932 12.0921 217.531 9.70811C217.786 9.66327 218.041 9.72306 218.251 9.87253C218.461 10.022 218.596 10.2537 218.626 10.5077C219.585 17.966 219.908 21.8446 220.252 30.3043C220.267 30.6033 220.132 30.8798 219.908 31.0666C219.735 31.2086 219.525 31.2833 219.315 31.2833ZM181.787 23.0628C195.806 24.1389 204.172 25.5514 218.326 29.131C218.018 21.9418 217.696 18.1304 216.886 11.7259C204.937 13.8857 196.945 16.6358 181.787 23.0628Z" fill="url(#paint20_linear_489_30)" fill-opacity="0.3"/>
<path d="M184.216 49.249C184.089 49.249 183.969 49.2266 183.849 49.1743C183.579 49.0622 183.384 48.8305 183.309 48.5465L182.807 46.596C180.513 37.7477 179.246 32.8527 176.974 23.9446C176.899 23.6532 176.967 23.3468 177.162 23.1151C177.357 22.8834 177.642 22.7639 177.949 22.7788C194.816 23.9297 203.37 25.2973 219.555 29.4375C219.945 29.5346 220.222 29.8709 220.26 30.267C220.29 30.6631 220.065 31.0367 219.705 31.2011C207.643 36.4698 200.386 40.2961 184.688 49.1294C184.539 49.2116 184.374 49.249 184.216 49.249ZM179.104 24.7368C181.18 32.8677 182.432 37.7028 184.613 46.1327L184.816 46.9099C198.76 39.0704 206.001 35.2442 216.452 30.5958C202.448 27.0983 194.082 25.798 179.104 24.7368Z" fill="url(#paint21_linear_489_30)" fill-opacity="0.3"/>
<path d="M259.332 83.2223C259.145 83.2223 258.965 83.17 258.8 83.0579L254.819 80.3302C247.997 75.6594 243.447 72.5431 235.606 67.2146C235.463 67.1175 235.351 66.983 235.276 66.826C228.431 51.7152 224.99 44.4512 218.468 30.7453C218.266 30.3118 218.416 29.7962 218.828 29.5421C219.24 29.2955 219.773 29.4001 220.065 29.7812C234.354 48.7408 242.855 59.6443 256.941 77.6996L260.067 81.7052C260.352 82.0714 260.329 82.5871 260.007 82.9159C259.827 83.1177 259.58 83.2223 259.332 83.2223ZM236.88 65.8171C244.212 70.8018 248.657 73.8434 254.887 78.1106C243.035 62.9101 235.103 52.739 224.106 38.2334C228.349 47.1864 231.602 54.1664 236.88 65.8171Z" fill="url(#paint22_linear_489_30)" fill-opacity="0.3"/>
<path d="M236.13 67.3791C236.01 67.3791 235.89 67.3566 235.778 67.3118C215.08 58.9642 204.689 55.1753 183.954 49.2191C183.594 49.1145 183.324 48.8006 183.279 48.4269C183.234 48.0533 183.422 47.6871 183.751 47.5077C199.509 38.637 206.796 34.7958 218.933 29.4972C219.398 29.2955 219.938 29.4972 220.155 29.9531C226.685 43.674 230.133 50.9379 236.977 66.0638C237.135 66.415 237.067 66.8186 236.797 67.0951C236.625 67.2744 236.385 67.3791 236.13 67.3791ZM186.623 48.0383C205.319 53.4639 215.672 57.208 234.316 64.7036C228.229 51.2892 224.825 44.1074 218.858 31.5673C207.786 36.4249 200.641 40.1615 186.623 48.0383Z" fill="url(#paint23_linear_489_30)" fill-opacity="0.3"/>
<path d="M136.418 97.6905C136.2 97.6905 135.975 97.6158 135.803 97.4588L135.421 97.1225C123.156 86.4134 117.002 81.0401 106.439 71.9377C106.191 71.721 106.072 71.3922 106.131 71.0708C106.191 70.7495 106.416 70.4804 106.724 70.3609C136.253 59.2258 153.525 53.576 184.036 47.3956C184.441 47.3134 184.846 47.5077 185.048 47.8664C185.243 48.2252 185.183 48.6735 184.898 48.965C176.465 57.5966 169.62 64.5019 162.364 71.8107C154.964 79.2615 147.318 86.9664 137.1 97.4065C136.905 97.5933 136.658 97.6905 136.418 97.6905ZM108.853 71.5566C118.628 79.9864 124.761 85.3372 136.365 95.4709C146.283 85.3447 153.772 77.7967 161.022 70.4954C167.649 63.8143 173.946 57.477 181.42 49.8394C153.353 55.6535 136.425 61.1837 108.853 71.5566Z" fill="url(#paint24_linear_489_30)" fill-opacity="0.3"/>
<path d="M213.385 103.452C213.37 103.452 213.356 103.452 213.341 103.452C213.011 103.437 212.711 103.251 212.561 102.959C207.291 93.1243 203.19 85.5465 199.217 78.2078C194.254 69.0381 189.561 60.3692 183.384 48.7558C183.212 48.4269 183.249 48.0234 183.482 47.7319C183.721 47.4405 184.104 47.3209 184.471 47.4255C205.289 53.4041 215.709 57.208 236.483 65.5855C236.737 65.6901 236.932 65.8919 237.015 66.146C237.105 66.4001 237.075 66.684 236.94 66.9157C229.503 79.6277 224.735 87.086 214.165 103.034C213.993 103.295 213.7 103.452 213.385 103.452ZM186.083 49.8244C191.758 60.4738 196.188 68.6719 200.874 77.3185C204.652 84.3059 208.558 91.5176 213.475 100.695C223.169 86.0547 227.876 78.6786 234.781 66.9008C215.447 59.1211 205.102 55.3472 186.083 49.8244Z" fill="url(#paint25_linear_489_30)" fill-opacity="0.3"/>
<path d="M158.96 128.503C158.668 128.503 158.383 128.361 158.203 128.121C148.802 115.41 144.132 109.065 135.653 97.3019C135.391 96.9357 135.428 96.4275 135.743 96.1062C145.968 85.6586 153.623 77.9537 161.014 70.4954C168.263 63.194 175.115 56.2888 183.542 47.6647C183.841 47.3583 184.306 47.291 184.681 47.5077C185.056 47.717 185.228 48.1579 185.116 48.5689C177.994 74.0676 172.634 89.9632 163.75 116.291C162.521 119.931 161.224 123.772 159.852 127.867C159.74 128.196 159.455 128.443 159.11 128.495C159.058 128.495 159.005 128.503 158.96 128.503ZM137.64 96.846C145.496 107.749 150.122 114.034 158.645 125.566C159.815 122.106 160.917 118.825 161.974 115.694C170.43 90.6283 175.693 75.0316 182.32 51.5881C175.033 59.0315 168.856 65.2567 162.349 71.8107C155.092 79.127 147.588 86.6899 137.64 96.846Z" fill="url(#paint26_linear_489_30)" fill-opacity="0.3"/>
<path d="M158.96 128.503C158.735 128.503 158.518 128.42 158.338 128.271C158.053 128.024 157.948 127.628 158.068 127.277C159.447 123.182 160.744 119.34 161.966 115.701C170.842 89.3952 176.195 73.522 183.309 48.0682C183.414 47.702 183.729 47.433 184.111 47.3882C184.494 47.3433 184.861 47.5451 185.041 47.8814C191.218 59.4948 195.903 68.1563 200.866 77.3259C204.839 84.6646 208.94 92.25 214.21 102.085C214.33 102.316 214.353 102.585 214.27 102.832C214.188 103.079 214 103.28 213.76 103.385C193.782 112.047 182.972 117.128 159.365 128.42C159.237 128.473 159.095 128.503 158.96 128.503ZM184.486 50.8184C177.672 75.0167 172.364 90.7404 163.75 116.291C162.731 119.303 161.674 122.449 160.557 125.767C182.462 115.297 193.227 110.246 212.081 102.062C207.043 92.661 203.07 85.3148 199.217 78.2078C194.554 69.5837 190.131 61.4154 184.486 50.8184Z" fill="url(#paint27_linear_489_30)" fill-opacity="0.3"/>
<path d="M213.385 103.452C213.123 103.452 212.861 103.34 212.681 103.138C212.403 102.825 212.366 102.361 212.606 102.003C223.154 86.0846 227.914 78.6487 235.321 65.9741C235.448 65.7499 235.673 65.593 235.92 65.5332C236.175 65.4734 236.438 65.5257 236.655 65.6752C244.504 71.011 249.047 74.1199 255.876 78.7982L259.857 81.5259C260.149 81.7202 260.299 82.064 260.254 82.4152C260.209 82.759 259.977 83.0579 259.647 83.1775C243.784 89.0066 234.286 93.3261 213.79 103.37C213.67 103.422 213.528 103.452 213.385 103.452ZM236.438 67.7751C229.743 79.2017 225.118 86.4806 216.069 100.164C233.836 91.4952 243.17 87.2878 257.316 82.0341L254.827 80.3302C248.237 75.8238 243.777 72.7673 236.438 67.7751Z" fill="url(#paint28_linear_489_30)" fill-opacity="0.3"/>
<path d="M52.7856 113.698C52.4333 113.698 52.0959 113.496 51.9385 113.168C51.7511 112.771 51.8635 112.293 52.2158 112.024C65.5298 101.928 74.7282 94.8656 85.3734 86.6824C91.663 81.8472 98.335 76.7206 106.476 70.4954C106.829 70.2264 107.323 70.2413 107.661 70.5328C118.231 79.6352 124.386 85.0159 136.65 95.725L137.033 96.0613C137.31 96.3005 137.415 96.6816 137.31 97.0328C137.205 97.3841 136.905 97.6382 136.545 97.6905C102.308 102.496 85.6582 105.896 53.003 113.676C52.928 113.691 52.8606 113.698 52.7856 113.698ZM107.009 72.4384C99.1447 78.4544 92.6451 83.4465 86.5204 88.1546C76.8347 95.598 68.356 102.115 56.8787 110.828C86.198 103.893 102.81 100.568 134.259 96.1211C122.976 86.2639 116.897 80.9579 107.009 72.4384Z" fill="url(#paint29_linear_489_30)" fill-opacity="0.3"/>
<path d="M0.946518 154.696C0.781593 154.696 0.616656 154.651 0.466724 154.562C0.136873 154.367 -0.0355234 153.986 0.0244495 153.605L5.86429 118.593C5.93176 118.205 6.23164 117.898 6.62146 117.831C23.4439 114.737 32.9196 113.504 52.7106 111.83C53.1154 111.792 53.5053 112.032 53.6552 112.413C53.8051 112.794 53.6927 113.227 53.3778 113.489C30.4457 132.067 19.7855 140.497 1.51627 154.502C1.35134 154.629 1.14893 154.696 0.946518 154.696ZM7.60351 119.55L2.25843 151.572C18.7585 138.905 29.2912 130.573 49.8244 113.952C32.3723 115.477 23.0765 116.717 7.60351 119.55Z" fill="url(#paint30_linear_489_30)" fill-opacity="0.3"/>
<path d="M99.8194 145.534C99.6319 145.534 99.4445 145.482 99.2796 145.362C77.7793 130.154 68.4985 123.787 52.2833 113.549C51.9685 113.347 51.796 112.973 51.8635 112.607C51.931 112.241 52.2008 111.942 52.5682 111.852C85.2909 104.05 101.971 100.642 136.283 95.8297C136.658 95.7773 137.033 95.9567 137.22 96.2855C137.415 96.6143 137.385 97.0254 137.152 97.3243L134.454 100.807C121.694 117.293 113.995 127.24 100.561 145.153C100.389 145.407 100.104 145.534 99.8194 145.534ZM55.162 113.16C70.9649 123.182 80.7929 129.997 99.6169 143.315C112.721 125.85 120.39 115.94 132.977 99.6709L134.266 98.0044C102.301 102.533 85.6957 105.904 55.162 113.16Z" fill="url(#paint31_linear_489_30)" fill-opacity="0.3"/>
<path d="M99.8194 145.534C99.5195 145.534 99.2271 145.392 99.0547 145.138C98.8223 144.809 98.8298 144.368 99.0697 144.047C112.504 126.119 120.21 116.164 132.977 99.6784L135.676 96.1958C135.856 95.9642 136.133 95.8371 136.433 95.8297C136.733 95.8371 137.003 95.9791 137.175 96.2183C145.646 107.974 150.317 114.318 159.71 127.015C159.897 127.262 159.942 127.583 159.837 127.875C159.732 128.166 159.492 128.391 159.2 128.473C136.868 134.519 124.91 138.091 105.097 144.002L100.082 145.497C99.9992 145.519 99.9093 145.534 99.8194 145.534ZM136.388 98.3182L134.461 100.807C122.249 116.583 114.67 126.373 102.271 142.889L104.565 142.201C123.996 136.402 135.878 132.852 157.393 127.015C148.795 115.395 144.169 109.11 136.388 98.3182Z" fill="url(#paint32_linear_489_30)" fill-opacity="0.3"/>
<path d="M243.282 166.885C243.147 166.885 243.02 166.855 242.892 166.803C231.73 161.721 222.329 157.364 213.243 153.149C196.683 145.467 181.045 138.21 158.585 128.428C158.248 128.278 158.031 127.957 158.023 127.591C158.016 127.225 158.225 126.888 158.555 126.731C182.185 115.432 193.002 110.343 213.011 101.666C213.468 101.472 214 101.659 214.225 102.107C226.879 127.479 233.439 140.774 244.144 165.585C244.294 165.936 244.219 166.355 243.942 166.624C243.754 166.795 243.522 166.885 243.282 166.885ZM161.209 127.531C182.694 136.917 197.927 143.987 214.038 151.453C222.516 155.384 231.265 159.442 241.46 164.09C231.445 140.968 225.268 128.428 212.951 103.729C194.007 111.949 183.234 116.994 161.209 127.531Z" fill="url(#paint33_linear_489_30)" fill-opacity="0.3"/>
<path d="M243.282 166.885C243.222 166.885 243.17 166.878 243.11 166.87C242.802 166.81 242.547 166.609 242.42 166.317C231.715 141.499 225.523 128.951 212.546 102.929C212.359 102.548 212.448 102.092 212.763 101.816C213.078 101.539 213.543 101.502 213.903 101.734C225.298 109.207 233.949 114.939 242.307 120.476C250.929 126.186 259.07 131.589 269.865 138.659C270.097 138.816 270.255 139.062 270.285 139.339C270.315 139.615 270.217 139.892 270.022 140.094C261.424 148.763 256.206 154.091 247.563 162.917L243.957 166.601C243.777 166.788 243.529 166.885 243.282 166.885ZM215.769 105.201C227.224 128.174 233.649 141.319 243.589 164.299L246.221 161.617C254.594 153.067 259.752 147.799 267.886 139.6C257.556 132.83 249.639 127.583 241.273 122.038C233.634 116.979 225.755 111.755 215.769 105.201Z" fill="url(#paint34_linear_489_30)" fill-opacity="0.3"/>
<path d="M71.9095 176.406C71.8495 176.406 71.7895 176.399 71.737 176.391C71.4147 176.331 71.1448 176.107 71.0323 175.801C61.3842 149.839 57.0437 136.439 51.871 112.966C51.7885 112.6 51.9385 112.218 52.2458 112.002C52.5532 111.785 52.9655 111.778 53.2879 111.979C70.4326 122.801 80.3056 129.654 100.367 143.845C100.584 144.002 100.726 144.241 100.756 144.51C100.786 144.779 100.696 145.041 100.517 145.243C91.9404 154.607 86.4679 160.697 80.1257 167.752C77.8243 170.315 75.3804 173.028 72.6067 176.107C72.4267 176.294 72.1719 176.406 71.9095 176.406ZM54.1875 114.752C59.0303 136.35 63.3033 149.57 72.2468 173.693C74.6007 171.078 76.7148 168.724 78.7239 166.489C84.8861 159.629 90.2387 153.68 98.41 144.749C78.3715 130.58 69.0458 124.176 54.1875 114.752Z" fill="url(#paint35_linear_489_30)" fill-opacity="0.3"/>
<path d="M0.946518 154.696C0.556694 154.696 0.204359 154.45 0.0694201 154.084C-0.0730155 153.702 0.0544067 153.269 0.376761 153.022C18.6235 139.032 29.2837 130.603 52.2009 112.039C52.5307 111.77 53.0105 111.763 53.3479 112.017C53.6927 112.271 53.8201 112.727 53.6552 113.123C47.1706 128.891 44.1945 136.813 39.3517 152.641C39.2317 153.022 38.8869 153.291 38.4821 153.299C22.8666 153.785 15.1601 154.069 0.983985 154.696C0.976488 154.696 0.961511 154.696 0.946518 154.696ZM50.5366 115.791C30.4907 132.015 19.9954 140.318 3.87021 152.701C16.0447 152.17 23.6838 151.886 37.7549 151.453C42.1479 137.134 45.0416 129.257 50.5366 115.791Z" fill="url(#paint36_linear_489_30)" fill-opacity="0.3"/>
<path d="M71.9095 176.406C71.7221 176.406 71.5346 176.346 71.3697 176.234L66.3019 172.677C55.4469 165.062 48.8873 160.458 37.9348 153.134C37.59 152.903 37.44 152.477 37.56 152.088C42.4253 136.193 45.4164 128.234 51.9235 112.405C52.0809 112.024 52.4632 111.792 52.868 111.83C53.2729 111.867 53.6177 112.159 53.7001 112.562C58.8428 135.931 63.1684 149.271 72.7865 175.143C72.929 175.524 72.8015 175.958 72.4791 176.204C72.3142 176.339 72.1119 176.406 71.9095 176.406ZM39.554 151.976C50.1842 159.091 56.7063 163.664 67.3815 171.152L69.9903 172.983C61.4592 149.891 57.231 136.753 52.5232 115.88C46.8932 129.661 43.992 137.523 39.554 151.976Z" fill="url(#paint37_linear_489_30)" fill-opacity="0.3"/>
<path d="M71.9095 176.406C71.6321 176.406 71.3547 176.279 71.1748 176.047C70.8899 175.689 70.9124 175.18 71.2123 174.844C73.986 171.765 76.4299 169.052 78.7314 166.489C85.0735 159.434 90.5535 153.336 99.1297 143.972C99.2421 143.845 99.392 143.755 99.5495 143.711L104.565 142.216C124.393 136.297 136.358 132.725 158.713 126.672C159.17 126.552 159.65 126.784 159.83 127.232C160.002 127.673 159.822 128.174 159.402 128.398C140.324 138.569 126.057 146.565 112.264 154.3C99.5869 161.407 87.6223 168.118 72.3517 176.294C72.2093 176.369 72.0594 176.406 71.9095 176.406ZM100.337 145.422C91.8579 154.674 86.4154 160.735 80.1182 167.737C78.8663 169.135 77.5694 170.577 76.1975 172.101C89.2491 165.054 100.014 159.016 111.342 152.671C123.336 145.945 135.683 139.025 151.246 130.647C133.749 135.453 122.429 138.838 105.104 144.01L100.337 145.422Z" fill="url(#paint38_linear_489_30)" fill-opacity="0.3"/>
<path d="M243.282 166.885C213.513 166.833 198.107 166.758 166.929 166.556C166.487 166.556 166.104 166.242 166.014 165.809C164.005 156.146 162.611 149.517 161.082 142.223C160.167 137.889 159.207 133.323 158.046 127.755C157.971 127.412 158.098 127.06 158.375 126.836C158.645 126.619 159.02 126.567 159.342 126.702C181.817 136.499 197.47 143.755 214.038 151.445C223.124 155.66 232.517 160.017 243.672 165.092C244.077 165.271 244.294 165.712 244.197 166.138C244.099 166.579 243.724 166.885 243.282 166.885ZM167.701 164.695C196.84 164.882 212.186 164.957 238.964 165.009C229.488 160.682 221.249 156.856 213.251 153.149C197.103 145.661 181.825 138.577 160.257 129.153C161.262 133.936 162.109 137.986 162.926 141.85C164.41 148.949 165.775 155.429 167.701 164.695Z" fill="url(#paint39_linear_489_30)" fill-opacity="0.3"/>
<path d="M71.9095 176.406C71.4972 176.406 71.1298 176.137 71.0098 175.741C70.8824 175.315 71.0698 174.859 71.4671 174.65C86.7152 166.482 98.6798 159.771 111.349 152.671C125.15 144.929 139.424 136.925 158.525 126.746C158.788 126.604 159.095 126.597 159.365 126.724C159.635 126.851 159.822 127.09 159.882 127.382C161.052 132.949 162.011 137.515 162.918 141.85C164.455 149.136 165.849 155.772 167.851 165.435C167.904 165.689 167.844 165.958 167.694 166.175C167.536 166.392 167.304 166.526 167.041 166.556L152.491 168.171C121.574 171.601 102.908 173.663 71.9919 176.406C71.9619 176.399 71.932 176.406 71.9095 176.406ZM158.3 128.981C139.769 138.875 125.788 146.707 112.264 154.293C100.726 160.765 89.7663 166.908 76.3699 174.127C104.617 171.586 122.924 169.553 152.288 166.295L165.812 164.8C163.915 155.675 162.566 149.256 161.082 142.223C160.235 138.218 159.35 134.003 158.3 128.981Z" fill="url(#paint40_linear_489_30)" fill-opacity="0.3"/>
<path d="M231.625 207.674C231.497 207.674 231.362 207.644 231.242 207.592C230.808 207.398 230.59 206.912 230.733 206.463C235.86 190.134 238.259 181.959 242.375 165.727C242.412 165.57 242.495 165.42 242.615 165.301L246.221 161.617C254.864 152.791 260.082 147.462 268.688 138.786C269.01 138.457 269.528 138.412 269.902 138.689C270.277 138.958 270.397 139.458 270.187 139.869C258.073 163.627 249.954 178.102 232.434 207.218C232.255 207.51 231.947 207.674 231.625 207.674ZM244.129 166.422C240.718 179.881 238.477 187.81 234.856 199.543C248.395 176.899 256.034 163.276 265.764 144.398C259.482 150.75 254.684 155.645 247.563 162.917L244.129 166.422Z" fill="url(#paint41_linear_489_30)" fill-opacity="0.3"/>
<path d="M231.625 207.674C231.452 207.674 231.287 207.629 231.138 207.54C211.406 195.493 198.685 187.265 179.433 174.814C175.423 172.221 171.135 169.448 166.427 166.414C166.074 166.19 165.917 165.757 166.037 165.361C166.157 164.965 166.524 164.695 166.937 164.695H166.944C198.122 164.897 213.52 164.972 243.282 165.024C243.567 165.024 243.844 165.159 244.017 165.383C244.197 165.607 244.257 165.906 244.189 166.183C240.066 182.459 237.66 190.658 232.524 207.016C232.434 207.293 232.232 207.51 231.962 207.614C231.85 207.652 231.737 207.674 231.625 207.674ZM170.138 166.579C173.803 168.948 177.222 171.152 180.453 173.245C199.359 185.471 211.969 193.624 231.093 205.32C235.853 190.127 238.237 181.989 242.075 166.885C214.12 166.833 198.797 166.758 170.138 166.579Z" fill="url(#paint42_linear_489_30)" fill-opacity="0.3"/>
<path d="M164.095 197.66C164.035 197.66 163.968 197.652 163.9 197.638C133.157 191.24 114.445 186.712 90.7559 180.98C84.8336 179.545 78.5664 178.028 71.6845 176.376C71.2347 176.272 70.9349 175.853 70.9724 175.397C71.0024 174.941 71.3697 174.575 71.827 174.538C102.728 171.795 121.38 169.732 152.288 166.302L166.839 164.695C167.116 164.666 167.394 164.763 167.596 164.957C167.799 165.151 167.896 165.428 167.874 165.704C166.839 177.198 166.269 183.394 165.325 193.669L165.032 196.808C165.01 197.07 164.875 197.316 164.658 197.473C164.485 197.593 164.29 197.66 164.095 197.66ZM77.6669 175.89C82.4272 177.041 86.9102 178.125 91.2057 179.164C114.61 184.828 133.157 189.32 163.256 195.597L163.451 193.505C164.365 183.573 164.935 177.452 165.902 166.676L152.491 168.163C123.509 171.377 105.299 173.394 77.6669 175.89Z" fill="url(#paint43_linear_489_30)" fill-opacity="0.3"/>
<path d="M190.978 214.43C190.806 214.43 190.641 214.385 190.483 214.288C180.543 208.152 175.07 204.715 165.122 198.482L163.586 197.518C163.286 197.331 163.121 196.995 163.151 196.644L163.443 193.505C164.388 183.229 164.965 177.034 165.992 165.54C166.029 165.121 166.337 164.785 166.749 164.703C167.161 164.621 167.574 164.83 167.761 165.196C169.808 169.232 171.644 172.849 173.346 176.212C179.898 189.118 184.629 198.445 191.81 213.077C191.99 213.451 191.908 213.899 191.6 214.183C191.435 214.348 191.211 214.43 190.978 214.43ZM165.077 196.24L166.127 196.898C175.1 202.525 180.438 205.873 188.707 210.992C182.312 197.996 177.784 189.088 171.682 177.064C170.4 174.53 169.036 171.855 167.574 168.963C166.719 178.461 166.172 184.41 165.317 193.677L165.077 196.24Z" fill="url(#paint44_linear_489_30)" fill-opacity="0.3"/>
<path d="M190.978 214.43C190.626 214.43 190.296 214.228 190.139 213.907C182.964 199.282 178.234 189.962 171.682 177.064C169.98 173.701 168.136 170.084 166.097 166.048C165.909 165.674 165.992 165.211 166.307 164.935C166.622 164.658 167.086 164.613 167.439 164.845C172.139 167.879 176.435 170.659 180.445 173.245C199.689 185.688 212.403 193.908 232.112 205.948C232.442 206.15 232.614 206.538 232.547 206.912C232.479 207.285 232.18 207.592 231.797 207.659C215.927 210.566 207.823 211.956 191.121 214.422C191.076 214.422 191.031 214.43 190.978 214.43ZM169.335 168.283C170.767 171.115 172.102 173.738 173.361 176.219C179.823 188.946 184.509 198.191 191.525 212.472C206.893 210.193 214.96 208.832 229.053 206.262C210.492 194.895 198.003 186.816 179.433 174.814C176.262 172.759 172.919 170.599 169.335 168.283Z" fill="url(#paint45_linear_489_30)" fill-opacity="0.3"/>
<path d="M29.7635 191.666C29.5461 191.666 29.3287 191.592 29.1563 191.442C28.9089 191.233 28.789 190.912 28.8414 190.59C31.1204 175.965 32.9121 168.051 37.56 152.103C37.6425 151.819 37.8598 151.587 38.1372 151.483C38.4146 151.378 38.7295 151.416 38.9769 151.587C49.9519 158.926 56.5114 163.522 67.3815 171.152L72.4492 174.702C72.7341 174.896 72.884 175.233 72.8391 175.577C72.7941 175.92 72.5767 176.212 72.2543 176.339C54.135 183.476 45.4989 186.689 30.0484 191.629C29.9509 191.651 29.861 191.666 29.7635 191.666ZM38.9993 153.852C34.8012 168.365 33.0245 176.159 30.9255 189.38C44.9741 184.858 53.5203 181.697 69.9528 175.233L66.3095 172.677C55.7992 165.308 49.3222 160.765 38.9993 153.852Z" fill="url(#paint46_linear_489_30)" fill-opacity="0.3"/>
<path d="M29.7635 191.666C29.4861 191.666 29.2162 191.539 29.0363 191.323C16.412 175.808 10.2123 167.849 0.19683 154.315C-0.00557869 154.039 -0.0430581 153.672 0.106874 153.359C0.256806 153.045 0.564173 152.843 0.909017 152.828C15.0926 152.2 22.8066 151.916 38.4296 151.431C38.7444 151.423 39.0143 151.558 39.2017 151.789C39.3891 152.021 39.4416 152.335 39.3591 152.619C34.7412 168.484 32.957 176.346 30.693 190.874C30.6331 191.24 30.3707 191.539 30.0109 191.637C29.9284 191.659 29.846 191.666 29.7635 191.666ZM2.7457 154.614C11.8016 166.81 17.8739 174.605 29.1638 188.513C31.2403 175.547 33.032 167.722 37.1926 153.336C23.069 153.777 15.4375 154.061 2.7457 154.614Z" fill="url(#paint47_linear_489_30)" fill-opacity="0.3"/>
<path d="M221.729 247.708C221.467 247.708 221.219 247.596 221.04 247.402C209.892 235.191 203.587 228.382 190.296 214.131C190.056 213.877 189.981 213.511 190.101 213.189C190.213 212.86 190.506 212.629 190.851 212.576C207.531 210.11 215.619 208.728 231.467 205.821C231.775 205.768 232.09 205.866 232.314 206.09C232.539 206.314 232.622 206.635 232.554 206.942C228.896 223.375 226.872 231.364 222.651 247.021C222.561 247.349 222.299 247.604 221.969 247.686C221.879 247.701 221.804 247.708 221.729 247.708ZM192.882 214.161C204.907 227.067 211.159 233.808 221.272 244.883C225.073 230.759 227.074 222.822 230.403 207.913C215.994 210.544 207.935 211.919 192.882 214.161Z" fill="url(#paint48_linear_489_30)" fill-opacity="0.3"/>
<path d="M189.007 261.758C188.812 261.758 188.624 261.698 188.459 261.586C188.197 261.399 188.054 261.093 188.069 260.771C189.104 242.425 189.509 232.702 190.041 213.473C190.049 213.092 190.288 212.756 190.648 212.629C191.008 212.494 191.405 212.591 191.668 212.868C204.967 227.127 211.271 233.935 222.426 246.154C222.629 246.378 222.711 246.677 222.651 246.968C222.591 247.26 222.396 247.506 222.119 247.633C208.873 253.619 202.276 256.497 189.359 261.698C189.246 261.735 189.126 261.758 189.007 261.758ZM191.855 215.805C191.368 233.068 190.963 242.694 190.026 259.404C201.653 254.711 208.183 251.863 220.17 246.453C209.99 235.31 203.76 228.577 191.855 215.805Z" fill="url(#paint49_linear_489_30)" fill-opacity="0.3"/>
<path d="M189.007 261.758C188.887 261.758 188.759 261.735 188.639 261.683C172.619 254.95 164.178 251.131 147.588 243.09C147.288 242.94 147.085 242.641 147.063 242.312C147.04 241.984 147.205 241.655 147.483 241.468C163.218 231.215 172.581 225.034 190.446 212.726C190.738 212.524 191.113 212.502 191.428 212.674C191.735 212.838 191.93 213.167 191.915 213.518C191.383 232.769 190.971 242.499 189.936 260.869C189.921 261.175 189.756 261.444 189.494 261.608C189.351 261.706 189.179 261.758 189.007 261.758ZM149.897 242.126C165.062 249.464 173.421 253.246 188.144 259.441C189.089 242.522 189.494 232.881 189.996 215.304C173.608 226.589 164.38 232.687 149.897 242.126Z" fill="url(#paint50_linear_489_30)" fill-opacity="0.3"/>
<path d="M91.753 231.648C91.6255 231.648 91.5056 231.626 91.3856 231.573C91.1532 231.476 90.9733 231.289 90.8759 231.058C82.2623 209.251 78.0567 198.146 71.0098 175.748C70.9124 175.427 70.9873 175.076 71.2197 174.829C71.4521 174.583 71.797 174.478 72.1268 174.56C79.0087 176.212 85.2759 177.729 91.2057 179.164C114.873 184.896 133.569 189.424 164.29 195.807C164.68 195.889 164.98 196.21 165.025 196.599C165.077 196.995 164.867 197.376 164.515 197.555L161.861 198.871C132.242 213.585 117.369 220.969 92.1128 231.566C92.0003 231.626 91.8729 231.648 91.753 231.648ZM73.2963 176.765C79.9308 197.757 84.1139 208.817 92.2702 229.481C116.934 219.108 131.785 211.732 161.022 197.204L161.262 197.084C132.07 190.979 113.763 186.547 90.7634 180.972C85.3059 179.657 79.556 178.267 73.2963 176.765Z" fill="url(#paint51_linear_489_30)" fill-opacity="0.3"/>
<path d="M91.753 231.648C91.573 231.648 91.4006 231.596 91.2432 231.499C84.1889 226.925 78.1016 222.964 72.4867 219.31C57.8458 209.782 46.286 202.256 29.2612 191.532C28.9539 191.338 28.7889 190.986 28.8339 190.628C28.8789 190.269 29.1338 189.97 29.4786 189.858C44.8766 184.933 53.4903 181.734 71.5646 174.612C71.8045 174.515 72.0744 174.53 72.3143 174.635C72.5467 174.747 72.7266 174.949 72.8016 175.195C79.8259 197.533 84.024 208.616 92.6226 230.378C92.7725 230.759 92.66 231.185 92.3452 231.446C92.1728 231.573 91.9629 231.648 91.753 231.648ZM31.9525 191.016C48.0702 201.187 59.3526 208.533 73.5062 217.748C78.4615 220.969 83.7841 224.437 89.8039 228.345C82.0224 208.593 77.8842 197.533 71.3097 176.712C54.5773 183.296 45.9786 186.495 31.9525 191.016Z" fill="url(#paint52_linear_489_30)" fill-opacity="0.3"/>
<path d="M148 243.179C147.798 243.179 147.595 243.112 147.423 242.985C147.108 242.738 146.981 242.327 147.108 241.946C152.566 225.864 155.782 216.971 161.614 200.821L163.211 196.404C163.308 196.135 163.518 195.926 163.788 195.836C164.058 195.747 164.35 195.777 164.59 195.926L166.127 196.89C176.067 203.123 181.54 206.561 191.473 212.696C191.743 212.86 191.908 213.152 191.915 213.466C191.923 213.78 191.773 214.079 191.51 214.258C173.631 226.581 164.26 232.762 148.51 243.022C148.36 243.135 148.18 243.179 148 243.179ZM164.583 198.131L163.383 201.449C157.873 216.709 154.702 225.49 149.762 239.981C163.825 230.811 173.031 224.713 189.269 213.533C180.086 207.853 174.658 204.453 165.13 198.475L164.583 198.131Z" fill="url(#paint53_linear_489_30)" fill-opacity="0.3"/>
<path d="M148 243.179C147.948 243.179 147.903 243.172 147.85 243.164C124.798 239.45 113.568 237.021 91.5281 231.618C91.1383 231.521 90.8459 231.185 90.8159 230.781C90.7859 230.378 91.0108 230.004 91.3857 229.847C116.582 219.273 131.433 211.896 161.022 197.204L163.675 195.889C164.02 195.717 164.433 195.769 164.718 196.023C165.002 196.277 165.107 196.681 164.98 197.04L163.383 201.456C157.558 217.591 154.342 226.484 148.892 242.544C148.757 242.933 148.397 243.179 148 243.179ZM94.7217 230.475C114.693 235.347 125.87 237.716 147.37 241.199C152.678 225.587 155.879 216.717 161.621 200.821L162.424 198.594L161.861 198.871C133.269 213.077 118.426 220.453 94.7217 230.475Z" fill="url(#paint54_linear_489_30)" fill-opacity="0.3"/>
<path d="M53.5877 241.535C53.2429 241.535 52.928 241.348 52.7631 241.042C41.8555 220.573 36.8778 210.491 28.9014 191.091C28.744 190.717 28.8564 190.284 29.1637 190.022C29.4786 189.761 29.9209 189.731 30.2657 189.948C47.298 200.679 58.8653 208.212 73.5137 217.741C79.1286 221.395 85.2159 225.356 92.2702 229.929C92.5776 230.124 92.735 230.482 92.69 230.834C92.6451 231.192 92.3902 231.491 92.0453 231.596C75.6727 236.797 67.8463 238.964 53.7601 241.513C53.7002 241.535 53.6402 241.535 53.5877 241.535ZM31.7501 193.094C38.9918 210.506 43.9546 220.521 54.09 239.555C67.1041 237.171 74.8106 235.086 89.579 230.415C83.2218 226.297 77.6518 222.665 72.4791 219.302C58.5654 210.252 47.433 203.003 31.7501 193.094Z" fill="url(#paint55_linear_489_30)" fill-opacity="0.3"/>
<path d="M53.5877 241.535C53.4753 241.535 53.3553 241.513 53.2429 241.468C35.7533 234.593 27.1847 230.849 11.8316 223.749C11.3743 223.54 11.1644 223.002 11.3593 222.538C15.6474 212.337 19.5156 205.529 28.9613 190.239C29.1488 189.94 29.4861 189.776 29.8385 189.798C30.1908 189.828 30.4982 190.052 30.6331 190.374C38.5795 209.699 43.5423 219.751 54.4199 240.16C54.6073 240.504 54.5548 240.93 54.2924 241.221C54.105 241.431 53.8501 241.535 53.5877 241.535ZM13.4359 222.441C27.5445 228.958 35.9782 232.65 51.5636 238.808C41.7806 220.401 36.8778 210.394 29.5911 192.795C21.1499 206.493 17.3941 213.144 13.4359 222.441Z" fill="url(#paint56_linear_489_30)" fill-opacity="0.3"/>
<path d="M12.2214 223.839C12.184 223.839 12.139 223.839 12.1015 223.831C11.6817 223.779 11.3518 223.45 11.2918 223.039L5.87179 185.008C5.82681 184.701 5.93927 184.387 6.17167 184.178C6.40406 183.969 6.72639 183.887 7.03375 183.969L10.0924 184.754C17.1017 186.547 21.6671 187.721 29.9884 189.828C30.2807 189.903 30.5132 190.104 30.6256 190.381C30.7381 190.658 30.7081 190.971 30.5581 191.225C21.1649 206.419 17.3266 213.182 13.091 223.271C12.9411 223.622 12.5963 223.839 12.2214 223.839ZM7.93335 186.129L12.6862 219.482C16.4045 211.082 20.2803 204.326 28.3016 191.33C20.7451 189.409 16.2921 188.274 9.6351 186.562L7.93335 186.129Z" fill="url(#paint57_linear_489_30)" fill-opacity="0.3"/>
<path d="M29.7635 191.666C29.6885 191.666 29.606 191.659 29.5311 191.637C21.2023 189.522 16.6369 188.356 9.62758 186.562L6.56895 185.777C6.21661 185.688 5.94674 185.404 5.87927 185.045L0.0169151 153.934C-0.0655476 153.508 0.159336 153.082 0.564153 152.903C0.961474 152.731 1.43376 152.85 1.68865 153.202C11.6891 166.713 17.8738 174.65 30.4757 190.142C30.7305 190.456 30.753 190.897 30.5356 191.233C30.3782 191.509 30.0784 191.666 29.7635 191.666ZM7.61849 184.118L10.0999 184.754C16.2996 186.345 20.5876 187.444 27.2596 189.133C16.8093 176.257 10.8345 168.611 2.62572 157.581L7.61849 184.118Z" fill="url(#paint58_linear_489_30)" fill-opacity="0.3"/>
<path d="M221.729 247.708C221.504 247.708 221.279 247.626 221.107 247.469C220.845 247.237 220.732 246.871 220.83 246.527C225.043 230.901 227.067 222.934 230.718 206.531C230.785 206.224 231.003 205.97 231.302 205.858C231.595 205.746 231.925 205.791 232.187 205.97C246.363 216.171 253.043 220.849 264.685 228.48C264.97 228.666 265.135 228.995 265.105 229.339C265.075 229.683 264.857 229.982 264.542 230.116C248.02 237.268 239.549 240.855 222.082 247.633C221.962 247.686 221.849 247.708 221.729 247.708ZM232.232 208.324C228.904 223.218 226.902 231.162 223.116 245.235C238.852 239.106 247.255 235.564 262.196 229.107C251.708 222.202 245.066 217.554 232.232 208.324Z" fill="url(#paint59_linear_489_30)" fill-opacity="0.3"/>
<path d="M257.773 258.395C257.705 258.395 257.646 258.387 257.578 258.372C244.384 255.57 236.977 253.238 221.414 247.648C221.047 247.514 220.8 247.17 220.792 246.781C220.785 246.393 221.025 246.042 221.392 245.9C238.829 239.136 247.285 235.549 263.785 228.412C264.1 228.278 264.467 228.323 264.737 228.539C265.007 228.756 265.142 229.1 265.075 229.436C262.976 240.937 261.664 246.752 258.673 257.7C258.568 258.118 258.193 258.395 257.773 258.395ZM224.406 246.737C237.982 251.572 245.224 253.806 257.106 256.362C259.797 246.453 261.049 240.967 262.923 230.826C248.17 237.208 239.781 240.743 224.406 246.737Z" fill="url(#paint60_linear_489_30)" fill-opacity="0.3"/>
<path d="M213.048 262.445C206.009 262.445 198.242 262.199 188.962 261.758C188.519 261.735 188.159 261.414 188.084 260.981C188.009 260.547 188.249 260.121 188.654 259.957C201.541 254.77 208.123 251.901 221.347 245.922C221.572 245.825 221.819 245.81 222.052 245.892C237.525 251.445 244.886 253.761 257.975 256.542C258.418 256.639 258.725 257.027 258.718 257.476C258.71 257.924 258.38 258.305 257.938 258.38C240.816 261.235 228.761 262.445 213.048 262.445ZM193.325 260.084C218.408 261.167 232.187 260.547 252.803 257.319C242.465 254.942 235.133 252.566 221.782 247.783C210.162 253.029 203.67 255.876 193.325 260.084Z" fill="url(#paint61_linear_489_30)" fill-opacity="0.3"/>
<path d="M231.625 207.674C231.34 207.674 231.07 207.547 230.89 207.315C230.65 207.009 230.62 206.59 230.823 206.254C248.32 177.183 256.424 162.73 268.516 139.017C268.718 138.621 269.175 138.42 269.603 138.539C270.03 138.659 270.315 139.07 270.285 139.511C268.516 161.811 266.626 174.329 261.476 197.765C261.401 198.086 261.169 198.355 260.847 198.452C249.684 202.047 243.792 203.93 231.91 207.622C231.812 207.659 231.722 207.674 231.625 207.674ZM268.028 144.084C257.338 164.875 249.317 179.111 233.694 205.118C243.882 201.95 249.684 200.089 259.76 196.845C264.43 175.539 266.379 163.291 268.028 144.084Z" fill="url(#paint62_linear_489_30)" fill-opacity="0.3"/>
<path d="M264.16 230.206C263.98 230.206 263.8 230.154 263.643 230.049C251.971 222.396 245.276 217.703 231.078 207.487C230.793 207.278 230.643 206.927 230.703 206.583C230.763 206.239 231.01 205.948 231.347 205.843C243.23 202.159 249.114 200.268 260.269 196.681C260.539 196.591 260.832 196.636 261.064 196.786C261.296 196.935 261.454 197.189 261.484 197.466L265.082 229.167C265.12 229.526 264.955 229.877 264.64 230.071C264.497 230.161 264.325 230.206 264.16 230.206ZM233.694 207.069C246.176 216.037 252.765 220.655 262.998 227.388L259.752 198.803C249.849 201.994 244.039 203.855 233.694 207.069Z" fill="url(#paint63_linear_489_30)" fill-opacity="0.3"/>
<path d="M97.6379 257.55C97.5404 257.55 97.4429 257.535 97.3455 257.506C79.0238 251.587 70.2602 248.314 53.2354 241.468C52.8456 241.311 52.6132 240.922 52.6507 240.504C52.6882 240.085 53.003 239.757 53.4153 239.682C67.3965 237.148 75.178 234.996 91.4606 229.825C91.7155 229.743 91.9929 229.772 92.2178 229.907C92.4502 230.041 92.6076 230.266 92.6601 230.527C94.8116 240.878 95.9661 245.952 98.5374 256.4C98.6199 256.728 98.5149 257.072 98.2675 257.304C98.0951 257.468 97.8702 257.55 97.6379 257.55ZM56.9237 240.937C71.5271 246.781 80.1932 249.988 96.326 255.219C94.0995 246.146 92.9599 241.094 91.0483 231.925C76.5873 236.498 68.8283 238.666 56.9237 240.937Z" fill="url(#paint64_linear_489_30)" fill-opacity="0.3"/>
<path d="M34.6063 247.267C34.3514 247.267 34.104 247.163 33.9241 246.976C24.7183 237.223 20.0329 232.351 11.5542 223.555C11.2394 223.233 11.2019 222.733 11.4643 222.366C11.7267 222 12.2139 221.873 12.6188 222.06C27.9418 229.145 36.4805 232.881 53.9326 239.734C54.2924 239.876 54.5323 240.227 54.5248 240.609C54.5173 240.99 54.2774 241.341 53.9176 241.475C45.1391 244.764 41.3833 245.9 34.7937 247.252C34.7263 247.267 34.6663 247.267 34.6063 247.267ZM16.3446 225.834C22.7242 232.463 27.2521 237.193 34.9212 245.317C40.4987 244.158 44.0821 243.112 50.9639 240.579C36.6904 234.936 28.4066 231.364 16.3446 225.834Z" fill="url(#paint65_linear_489_30)" fill-opacity="0.3"/>
<path d="M97.6379 257.55C97.5854 257.55 97.5404 257.543 97.4879 257.535L34.4564 247.252C34.0066 247.178 33.6767 246.796 33.6692 246.348C33.6617 245.9 33.9766 245.504 34.4189 245.414C40.896 244.091 44.5918 242.97 53.2654 239.719C53.4828 239.637 53.7302 239.637 53.9476 239.727C70.9274 246.55 79.6609 249.823 97.9377 255.719C98.4025 255.869 98.6723 256.355 98.5599 256.826C98.44 257.266 98.0652 257.55 97.6379 257.55ZM39.5241 246.191L86.0331 253.776C74.6607 249.928 66.4969 246.796 53.5727 241.603C47.2981 243.949 43.6172 245.182 39.5241 246.191Z" fill="url(#paint66_linear_489_30)" fill-opacity="0.3"/>
<path d="M97.6379 257.55C97.218 257.55 96.8357 257.266 96.7308 256.84C94.1519 246.37 92.9975 241.274 90.8384 230.901C90.771 230.587 90.8759 230.258 91.1083 230.041C91.3407 229.817 91.6705 229.728 91.9854 229.81C113.973 235.205 125.173 237.627 148.165 241.326C148.592 241.393 148.915 241.745 148.952 242.171C148.99 242.596 148.727 242.993 148.315 243.135C126.657 250.369 116.327 253.463 97.8553 257.535C97.7728 257.543 97.7053 257.55 97.6379 257.55ZM92.9749 231.977C94.8791 241.087 96.0261 246.146 98.3275 255.51C115.127 251.781 125.24 248.814 144.102 242.559C123.996 239.256 112.871 236.842 92.9749 231.977Z" fill="url(#paint67_linear_489_30)" fill-opacity="0.3"/>
<path d="M269.348 140.378C269.168 140.378 268.988 140.325 268.83 140.221C258.028 133.144 249.887 127.748 241.265 122.031C232.907 116.493 224.256 110.761 212.868 103.288C212.591 103.101 212.426 102.787 212.448 102.451C212.471 102.115 212.666 101.816 212.973 101.674C233.529 91.5998 243.065 87.2579 259.002 81.4063C259.25 81.3166 259.527 81.3316 259.76 81.4586C259.992 81.5857 260.164 81.8024 260.232 82.0565C265.929 104.491 267.998 116.276 270.277 139.354C270.315 139.712 270.135 140.056 269.827 140.243C269.685 140.333 269.52 140.378 269.348 140.378ZM215.275 102.638C226.002 109.678 234.286 115.163 242.307 120.484C250.486 125.902 258.23 131.036 268.223 137.59C266.064 116.232 263.995 104.573 258.673 83.5287C243.769 89.029 234.346 93.3037 215.275 102.638Z" fill="url(#paint68_linear_489_30)" fill-opacity="0.3"/>
<path d="M259.332 83.2223C259.047 83.2223 258.77 83.0953 258.59 82.8636L255.464 78.8579C241.37 60.7877 232.862 49.8842 218.566 30.9172C218.281 30.5435 218.326 30.0129 218.663 29.6841C219 29.3552 219.533 29.3254 219.9 29.6243C229.068 36.8808 235.74 42.2167 242.81 47.8664C247.548 51.6554 252.585 55.6834 258.867 60.683C259.062 60.84 259.19 61.0642 259.212 61.3183C260.044 69.2623 260.247 73.3801 260.262 82.2956C260.262 82.6917 260.007 83.0504 259.632 83.1775C259.535 83.2074 259.43 83.2223 259.332 83.2223ZM224.488 35.6402C236.25 51.1696 244.369 61.5873 256.941 77.7071L258.38 79.553C258.328 72.6477 258.095 68.6645 257.391 61.8937C251.251 57.0062 246.296 53.0454 241.633 49.3163C236.138 44.9145 230.875 40.7071 224.488 35.6402Z" fill="url(#paint69_linear_489_30)" fill-opacity="0.3"/>
<path d="M258.283 62.3421C258.073 62.3421 257.87 62.2748 257.698 62.1403C251.416 57.1407 246.378 53.1127 241.633 49.3237C234.563 43.674 227.891 38.3381 218.731 31.089C218.401 30.8275 218.288 30.3866 218.446 29.9979C218.611 29.6093 219.008 29.3851 219.42 29.43L246.138 32.6285C246.453 32.6659 246.73 32.8602 246.873 33.1516C252.143 44.0327 254.669 49.7721 259.152 61.0716C259.31 61.4677 259.182 61.9161 258.837 62.1627C258.673 62.2748 258.478 62.3421 258.283 62.3421ZM222.486 31.6645C230.358 37.9046 236.423 42.7473 242.802 47.8515C246.828 51.065 251.063 54.4578 256.101 58.471C252.435 49.3536 250.036 43.9729 245.404 34.4072L222.486 31.6645Z" fill="url(#paint70_linear_489_30)" fill-opacity="0.3"/>
<path d="M258.283 62.3421C257.9 62.3421 257.556 62.1104 257.413 61.7517C252.9 50.37 250.501 44.9145 245.186 33.9588C245.021 33.615 245.081 33.2114 245.336 32.9274C245.591 32.6435 245.996 32.5463 246.356 32.6734L263.081 38.7491C263.515 38.906 263.77 39.3619 263.68 39.8103L259.212 61.5873C259.13 61.9909 258.793 62.2973 258.373 62.3271C258.335 62.3346 258.313 62.3421 258.283 62.3421ZM247.877 35.2143C252.046 43.8832 254.474 49.376 257.998 58.1571L261.679 40.2288L247.877 35.2143Z" fill="url(#paint71_linear_489_30)" fill-opacity="0.3"/>
<path d="M289.784 93.2439C289.679 93.2439 289.566 93.229 289.461 93.1841C277.392 88.8123 271.424 86.8468 259.062 83.1849C258.665 83.0654 258.395 82.7067 258.395 82.2882C258.38 73.4548 258.178 69.3744 257.353 61.5051C257.316 61.109 257.526 60.7354 257.885 60.5635C258.245 60.3916 258.673 60.4663 258.95 60.7503C271.304 73.111 277.781 79.4558 290.436 91.6372C290.751 91.9436 290.811 92.4293 290.578 92.803C290.406 93.0795 290.098 93.2439 289.784 93.2439ZM260.262 81.5931C270.63 84.6721 276.717 86.6376 285.983 89.9482C275.9 80.2255 269.648 74.0825 259.475 63.9264C260.074 70.0844 260.239 74.1573 260.262 81.5931Z" fill="url(#paint72_linear_489_30)" fill-opacity="0.3"/>
<path d="M293.974 72.1694C293.892 72.1694 293.809 72.1619 293.727 72.1395L258.035 62.3122C257.563 62.1777 257.271 61.7069 257.368 61.2211L261.836 39.4441C261.904 39.1003 262.166 38.8238 262.503 38.7341C262.841 38.637 263.208 38.7416 263.44 39.0032C269.595 45.6394 275.03 50.9977 280.788 56.6699C285.188 61.0044 289.739 65.4883 294.649 70.6C294.941 70.9064 294.994 71.3623 294.776 71.7285C294.604 71.9975 294.296 72.1694 293.974 72.1694ZM259.377 60.7354L290.923 69.4267C286.92 65.3239 283.149 61.6022 279.476 57.9852C274.093 52.6792 268.988 47.6572 263.313 41.5889L259.377 60.7354Z" fill="url(#paint73_linear_489_30)" fill-opacity="0.3"/>
<path d="M289.784 93.2439C289.544 93.2439 289.311 93.1542 289.131 92.9824C276.462 80.7935 269.985 74.4338 257.616 62.0656C257.316 61.7667 257.256 61.3033 257.473 60.9371C257.691 60.5709 258.125 60.3991 258.53 60.5037L294.222 70.331C294.694 70.458 294.986 70.9363 294.889 71.4146L290.698 92.4891C290.631 92.8254 290.383 93.0945 290.061 93.1991C289.971 93.229 289.881 93.2439 289.784 93.2439ZM261.446 63.2464C271.852 73.6342 278.194 79.8519 289.199 90.4415L292.887 71.9004L261.446 63.2464Z" fill="url(#paint74_linear_489_30)" fill-opacity="0.3"/>
<path d="M290.841 115.701C290.593 115.701 290.346 115.604 290.166 115.417C277.751 102.727 271.424 96.2407 258.65 82.9309C258.358 82.6245 258.305 82.1611 258.53 81.7949C258.755 81.4362 259.19 81.2643 259.595 81.3839C271.859 85.0159 278.126 87.086 290.098 91.4205C290.436 91.54 290.668 91.839 290.706 92.1902C291.688 100.657 291.905 105.298 291.77 114.774C291.763 115.148 291.53 115.492 291.178 115.626C291.073 115.686 290.96 115.701 290.841 115.701ZM262.458 84.1938C273.126 95.2916 279.326 101.666 289.933 112.502C290.001 104.715 289.769 100.396 288.921 92.9898C278.351 89.1635 272.459 87.1981 262.458 84.1938Z" fill="url(#paint75_linear_489_30)" fill-opacity="0.3"/>
<path d="M290.841 115.701C290.653 115.701 290.466 115.641 290.301 115.529C290.046 115.35 289.896 115.058 289.903 114.752C290.038 105.261 289.836 100.874 288.854 92.4069C288.816 92.0557 288.974 91.7119 289.274 91.5176C289.574 91.3233 289.948 91.3158 290.256 91.4952C297.415 95.6503 302.063 98.3631 307.505 101.539L315.632 106.277C315.962 106.472 316.142 106.845 316.082 107.226C316.022 107.607 315.737 107.906 315.362 107.996C307.018 109.909 302.265 111.411 291.163 115.641C291.065 115.686 290.953 115.701 290.841 115.701ZM290.923 94.051C291.68 101.001 291.883 105.515 291.793 113.407C301.081 109.887 305.856 108.347 312.663 106.711L306.561 103.153C301.538 100.224 297.19 97.6905 290.923 94.051Z" fill="url(#paint76_linear_489_30)" fill-opacity="0.3"/>
<path d="M315.16 108.018C314.995 108.018 314.837 107.974 314.687 107.891L306.561 103.153C301.118 99.9773 296.47 97.2645 289.311 93.1169C288.966 92.9151 288.786 92.519 288.861 92.1304L293.052 71.0559C293.127 70.6897 293.404 70.4057 293.772 70.3235C294.132 70.2413 294.514 70.3833 294.731 70.6822C296.298 72.827 297.73 74.7551 299.057 76.5263C306.538 86.5778 310.662 92.108 316.044 106.756C316.179 107.129 316.067 107.54 315.767 107.794C315.594 107.944 315.377 108.018 315.16 108.018ZM290.833 91.8315C297.67 95.7998 302.213 98.4453 307.505 101.539L313.36 104.954C308.525 92.392 304.717 87.2728 297.55 77.6473C296.59 76.3544 295.563 74.9868 294.476 73.5071L290.833 91.8315Z" fill="url(#paint77_linear_489_30)" fill-opacity="0.3"/>
<path d="M269.348 140.378C269.25 140.378 269.153 140.363 269.063 140.333C268.711 140.221 268.456 139.907 268.418 139.533C266.147 116.568 264.093 104.842 258.418 82.5124C258.313 82.1013 258.5 81.6679 258.875 81.4661C259.25 81.2643 259.715 81.3316 260.007 81.638C272.781 94.9478 279.101 101.435 291.515 114.117C291.853 114.46 291.875 115.013 291.553 115.38C284.169 123.959 279.865 128.869 270.427 139.638L270.06 140.064C269.88 140.266 269.618 140.378 269.348 140.378ZM261.101 85.4792C265.989 105.074 267.991 116.687 270.067 137.201C278.546 127.524 282.804 122.666 289.574 114.804C278.359 103.348 272.099 96.9282 261.101 85.4792Z" fill="url(#paint78_linear_489_30)" fill-opacity="0.3"/>
<path d="M310.879 148.942C310.819 148.942 310.752 148.934 310.692 148.919C303.975 147.537 298.592 146.423 293.284 145.325C286.155 143.845 279.146 142.395 269.168 140.355C268.838 140.288 268.576 140.056 268.471 139.735C268.366 139.414 268.433 139.07 268.651 138.823L269.025 138.397C278.456 127.636 282.759 122.718 290.136 114.154C290.331 113.93 290.616 113.81 290.915 113.833C291.215 113.855 291.478 114.012 291.643 114.266C300.564 128.219 304.717 134.989 311.704 147.552C311.884 147.873 311.854 148.262 311.636 148.561C311.449 148.807 311.171 148.942 310.879 148.942ZM271.117 138.853C280.27 140.729 286.912 142.104 293.659 143.501C298.435 144.488 303.255 145.489 309.065 146.685C302.85 135.58 298.749 128.891 290.728 116.336C284.011 124.131 279.731 129.018 271.117 138.853Z" fill="url(#paint79_linear_489_30)" fill-opacity="0.3"/>
<path d="M310.879 148.942C310.864 148.942 310.849 148.942 310.834 148.942C310.512 148.927 310.219 148.748 310.062 148.464C303.09 135.938 298.952 129.19 290.053 115.275C289.821 114.916 289.866 114.445 290.158 114.132C290.451 113.818 290.915 113.75 291.298 113.952C304.597 121.291 310.729 124.654 322.499 130.916C322.731 131.044 322.904 131.26 322.971 131.522C323.038 131.783 322.986 132.052 322.836 132.269L311.651 148.538C311.471 148.792 311.186 148.942 310.879 148.942ZM293.607 117.36C300.916 128.831 304.927 135.43 310.961 146.229L320.692 132.067C310.474 126.634 304.447 123.339 293.607 117.36Z" fill="url(#paint80_linear_489_30)" fill-opacity="0.3"/>
<path d="M322.049 132.68C321.899 132.68 321.749 132.643 321.607 132.568C309.829 126.298 303.69 122.928 290.383 115.589C290.061 115.41 289.873 115.066 289.903 114.707C289.926 114.348 290.166 114.027 290.503 113.9C301.703 109.633 306.501 108.116 314.95 106.18C315.414 106.075 315.879 106.33 316.037 106.77C319.575 116.396 320.999 121.5 322.964 131.574C323.031 131.925 322.889 132.292 322.604 132.501C322.446 132.613 322.251 132.68 322.049 132.68ZM293.06 114.924C304.514 121.246 310.594 124.572 320.752 129.99C319.035 121.448 317.671 116.68 314.567 108.183C307.183 109.902 302.505 111.367 293.06 114.924Z" fill="url(#paint81_linear_489_30)" fill-opacity="0.3"/>
<path d="M260.562 198.504C260.404 198.504 260.254 198.467 260.112 198.385C259.752 198.183 259.565 197.772 259.647 197.368C264.775 174.037 266.664 161.564 268.418 139.369C268.441 139.1 268.576 138.853 268.785 138.696C269.003 138.532 269.273 138.472 269.535 138.524C279.513 140.564 286.522 142.014 293.652 143.494C298.959 144.592 304.342 145.706 311.059 147.089C311.396 147.156 311.674 147.41 311.771 147.739C311.868 148.068 311.779 148.426 311.524 148.673C302.558 157.417 295.466 164.441 287.242 172.565C280.023 179.709 271.837 187.803 261.206 198.228C261.034 198.407 260.802 198.504 260.562 198.504ZM270.202 140.572C268.538 161.235 266.716 173.559 262.143 194.708C271.694 185.337 279.228 177.878 285.93 171.25C293.764 163.5 300.579 156.759 308.96 148.576C303.03 147.358 298.127 146.341 293.277 145.332C286.395 143.905 279.633 142.5 270.202 140.572Z" fill="url(#paint82_linear_489_30)" fill-opacity="0.3"/>
<path d="M286.47 198.975C279.146 198.975 270.952 198.811 260.532 198.504C260.157 198.497 259.827 198.258 259.685 197.914C259.55 197.563 259.632 197.167 259.902 196.905C270.532 186.487 278.711 178.394 285.93 171.25C294.154 163.119 301.253 156.094 310.219 147.343C310.459 147.104 310.819 147.021 311.141 147.118C311.471 147.216 311.719 147.485 311.786 147.813L322.424 196.412C322.484 196.673 322.424 196.95 322.259 197.167C322.094 197.383 321.847 197.518 321.577 197.54C308.225 198.527 298.532 198.975 286.47 198.975ZM262.781 196.696C288.314 197.421 300.211 197.219 320.362 195.754L310.317 149.854C301.913 158.059 295.091 164.808 287.25 172.565C280.39 179.358 272.654 187.011 262.781 196.696Z" fill="url(#paint83_linear_489_30)" fill-opacity="0.3"/>
<path d="M264.16 230.206C264.018 230.206 263.868 230.176 263.74 230.109C263.455 229.967 263.268 229.69 263.23 229.376L259.632 197.675C259.602 197.406 259.692 197.137 259.872 196.935C260.059 196.733 260.314 196.621 260.592 196.636C288.119 197.443 300.061 197.256 321.449 195.68C321.892 195.642 322.289 195.926 322.416 196.345C322.544 196.763 322.356 197.219 321.974 197.428C304.972 206.837 293.824 213.271 278.381 222.165C274.198 224.571 269.685 227.179 264.632 230.086C264.482 230.161 264.317 230.206 264.16 230.206ZM261.611 198.534L264.925 227.755C269.483 225.132 273.598 222.762 277.437 220.55C291.74 212.307 302.363 206.187 317.364 197.847C298.697 199.132 286.62 199.259 261.611 198.534Z" fill="url(#paint84_linear_489_30)" fill-opacity="0.3"/>
<path d="M293.09 247.574C292.955 247.574 292.82 247.544 292.685 247.484C283.599 243.187 277.459 239.361 263.628 230.049C263.358 229.87 263.208 229.563 263.216 229.242C263.231 228.92 263.403 228.629 263.68 228.465C268.733 225.558 273.246 222.957 277.429 220.55C292.872 211.65 304.035 205.215 321.052 195.799C321.419 195.597 321.876 195.657 322.169 195.956C322.461 196.255 322.529 196.711 322.319 197.077L293.899 247.103C293.734 247.402 293.419 247.574 293.09 247.574ZM265.922 229.331C278.404 237.716 284.416 241.446 292.7 245.414L319.05 199.035C303.652 207.584 292.91 213.78 278.374 222.157C274.558 224.362 270.457 226.723 265.922 229.331Z" fill="url(#paint85_linear_489_30)" fill-opacity="0.3"/>
<path d="M257.773 258.395C257.518 258.395 257.278 258.29 257.098 258.111C256.866 257.872 256.783 257.535 256.866 257.214C259.872 246.191 261.116 240.676 263.23 229.1C263.29 228.786 263.5 228.532 263.785 228.405C264.078 228.278 264.415 228.315 264.677 228.494C278.419 237.746 284.506 241.543 293.487 245.788C293.824 245.944 294.034 246.288 294.019 246.662C294.004 247.036 293.772 247.364 293.427 247.499C280.263 252.648 272.969 254.882 257.983 258.365C257.915 258.387 257.848 258.395 257.773 258.395ZM264.82 230.849C262.968 240.915 261.671 246.632 259.085 256.198C272.204 253.119 279.333 250.952 290.736 246.55C282.917 242.716 276.844 238.92 264.82 230.849Z" fill="url(#paint86_linear_489_30)" fill-opacity="0.3"/>
<path d="M157.693 262.841C138.03 262.841 121.027 261.212 97.4879 257.543C97.0456 257.476 96.7083 257.095 96.6933 256.646C96.6783 256.198 96.9856 255.802 97.4279 255.705C115.817 251.654 126.11 248.568 147.7 241.363C147.933 241.289 148.188 241.304 148.405 241.408C164.957 249.434 173.376 253.246 189.366 259.957C189.771 260.129 189.996 260.547 189.929 260.973C189.854 261.399 189.494 261.72 189.059 261.75C177.297 262.46 167.184 262.841 157.693 262.841ZM102.676 256.444C133.262 261.018 153.075 261.892 184.943 260.121C171.33 254.359 162.986 250.548 147.94 243.254C128.479 249.748 118.179 252.887 102.676 256.444Z" fill="url(#paint87_linear_489_30)" fill-opacity="0.3"/>
<path d="M60.2597 275.882C59.9973 275.882 59.735 275.77 59.555 275.568C49.5845 264.269 44.4044 258.514 33.9092 246.968C33.6393 246.677 33.5868 246.243 33.7817 245.892C33.9766 245.541 34.359 245.354 34.7563 245.414L97.7878 255.697C98.1776 255.757 98.485 256.063 98.5599 256.444C98.6349 256.833 98.455 257.222 98.1101 257.423C79.7209 268.192 71.7145 272.362 60.5371 275.845C60.4471 275.867 60.3497 275.882 60.2597 275.882ZM37.0952 247.693C46.2936 257.819 51.4212 263.529 60.5596 273.879C70.8075 270.636 78.5514 266.675 94.924 257.124L37.0952 247.693Z" fill="url(#paint88_linear_489_30)" fill-opacity="0.3"/>
<path d="M120.36 287.989C120.345 287.989 120.33 287.989 120.308 287.989C93.5672 286.591 81.1453 284.088 59.9149 275.822C59.5475 275.68 59.3076 275.314 59.3226 274.918C59.3376 274.522 59.6 274.178 59.9823 274.059C70.9798 270.636 78.9113 266.503 97.1655 255.817C97.5778 255.577 98.1026 255.682 98.3875 256.063C107.743 268.476 112.414 274.709 121.117 286.502C121.335 286.793 121.357 287.182 121.185 287.496C121.02 287.802 120.697 287.989 120.36 287.989ZM63.0559 275.03C82.0898 282.257 94.2943 284.663 118.426 286.016C110.614 275.441 105.982 269.261 97.3904 257.849C80.8979 267.49 72.8615 271.735 63.0559 275.03Z" fill="url(#paint89_linear_489_30)" fill-opacity="0.3"/>
<path d="M120.36 287.989C120.068 287.989 119.783 287.854 119.603 287.608C110.907 275.822 106.236 269.59 96.8882 257.184C96.6558 256.878 96.6408 256.467 96.8357 256.145C97.0306 255.817 97.4054 255.645 97.7803 255.705C132.527 261.13 152.978 262.072 188.947 259.897C189.404 259.875 189.801 260.166 189.914 260.599C190.026 261.033 189.809 261.489 189.396 261.676C158.938 275.68 144.154 281.33 120.607 287.959C120.525 287.974 120.443 287.989 120.36 287.989ZM99.7669 257.894C108.088 268.94 112.706 275.105 120.727 285.979C142.618 279.791 156.996 274.388 184.104 262.042C151.748 263.798 131.695 262.782 99.7669 257.894Z" fill="url(#paint90_linear_489_30)" fill-opacity="0.3"/>
<path d="M172.342 293.751C154.072 293.751 141.133 292.219 120.173 287.974C119.745 287.884 119.438 287.526 119.423 287.092C119.408 286.659 119.685 286.278 120.105 286.158C143.532 279.559 158.263 273.932 188.617 259.979C188.932 259.837 189.306 259.875 189.584 260.084C189.861 260.293 189.996 260.644 189.936 260.988C187.68 273.864 186.51 280.269 184.201 292.832C184.119 293.265 183.744 293.586 183.302 293.594C179.396 293.691 175.775 293.751 172.342 293.751ZM124.326 286.89C146.478 291.225 159.747 292.301 182.484 291.74C184.599 280.239 185.753 273.887 187.77 262.408C160.01 275.135 145.376 280.807 124.326 286.89Z" fill="url(#paint91_linear_489_30)" fill-opacity="0.3"/>
<path d="M183.272 293.594C183.054 293.594 182.844 293.519 182.672 293.377C182.41 293.16 182.29 292.824 182.35 292.488C184.658 279.925 185.82 273.528 188.077 260.659C188.159 260.196 188.564 259.86 189.044 259.89C218.896 261.332 232.997 260.644 257.616 256.542C258.065 256.467 258.508 256.728 258.658 257.162C258.807 257.595 258.62 258.066 258.215 258.29C227.899 274.649 212.666 282.414 183.601 293.542C183.504 293.571 183.392 293.594 183.272 293.594ZM189.786 261.795C187.717 273.58 186.563 279.94 184.494 291.187C210.874 281.024 225.89 273.536 252.45 259.262C231.122 262.565 216.984 263.081 189.786 261.795Z" fill="url(#paint92_linear_489_30)" fill-opacity="0.3"/>
<path d="M259.422 286.031C259.34 286.031 259.265 286.023 259.182 286.001C258.785 285.904 258.515 285.53 258.485 285.127L256.836 257.521C256.806 257.065 257.113 256.661 257.556 256.556C272.436 253.104 279.671 250.884 292.737 245.773C293.142 245.616 293.599 245.75 293.847 246.109C294.094 246.46 294.072 246.938 293.787 247.26C284.693 257.588 260.929 284.611 260.187 285.605C260.022 285.881 259.737 286.031 259.422 286.031ZM258.755 258.193L260.217 282.698C265.21 276.914 280.69 259.307 289.858 248.889C279.041 253.007 271.844 255.137 258.755 258.193Z" fill="url(#paint93_linear_489_30)" fill-opacity="0.3"/>
<path d="M208.685 309.781C208.378 309.781 208.078 309.624 207.898 309.355C207.666 308.996 207.703 308.525 207.995 308.211C227.007 287.757 237.562 276.704 257.106 256.803C257.368 256.542 257.758 256.452 258.103 256.579C258.448 256.706 258.688 257.027 258.71 257.401L260.359 285.007C260.382 285.351 260.209 285.68 259.909 285.859C240.043 297.861 229.571 302.771 208.985 309.729C208.888 309.766 208.783 309.781 208.685 309.781ZM256.963 259.621C237.839 279.118 227.824 289.655 211.901 306.762C229.916 300.514 240.193 295.574 258.448 284.559L256.963 259.621Z" fill="url(#paint94_linear_489_30)" fill-opacity="0.3"/>
<path d="M208.685 309.781C208.52 309.781 208.355 309.736 208.213 309.654C199.344 304.452 194.082 301.037 182.754 293.437C182.462 293.243 182.305 292.906 182.35 292.555C182.387 292.211 182.619 291.912 182.942 291.785C211.901 280.702 227.097 272.953 257.331 256.639C257.735 256.422 258.245 256.527 258.523 256.9C258.8 257.266 258.77 257.79 258.448 258.118C237.33 279.626 227.232 290.276 209.375 309.489C209.187 309.684 208.94 309.781 208.685 309.781ZM185.288 292.884C195.304 299.595 200.461 302.92 208.505 307.658C225.755 289.102 236.063 278.274 252.788 261.205C226.542 275.307 211.511 282.78 185.288 292.884Z" fill="url(#paint95_linear_489_30)" fill-opacity="0.3"/>
<path d="M130.068 317C129.933 317 129.791 316.97 129.663 316.91C101.836 303.72 86.9852 294.229 59.7275 275.725C59.3301 275.456 59.2027 274.941 59.4276 274.515C59.6525 274.096 60.1548 273.909 60.5971 274.081C81.6026 282.257 93.9045 284.731 120.405 286.121C120.795 286.143 121.125 286.397 121.245 286.763C125.165 298.661 127.055 304.251 130.953 315.767C131.073 316.126 130.968 316.514 130.69 316.761C130.518 316.918 130.293 317 130.068 317ZM67.2915 278.58C89.8788 293.803 104.28 302.696 128.471 314.272C125.173 304.55 123.201 298.683 119.663 287.952C96.5808 286.718 84.2114 284.618 67.2915 278.58Z" fill="url(#paint96_linear_489_30)" fill-opacity="0.3"/>
<path d="M60.2597 275.882C60.0948 275.882 59.9299 275.837 59.7799 275.748L37.9723 262.714C37.7549 262.587 37.6049 262.378 37.545 262.139L33.6917 246.557C33.5868 246.139 33.7817 245.713 34.164 245.511C34.5463 245.309 35.0111 245.391 35.296 245.705C45.7987 257.266 50.9789 263.021 60.9569 274.328C61.2642 274.672 61.2718 275.187 60.9719 275.546C60.792 275.77 60.5296 275.882 60.2597 275.882ZM39.2692 261.317L55.5668 271.062C48.7299 263.342 43.9171 257.991 36.398 249.711L39.2692 261.317Z" fill="url(#paint97_linear_489_30)" fill-opacity="0.3"/>
<path d="M130.068 317C129.626 317 129.244 316.694 129.154 316.253C129.056 315.789 129.326 315.326 129.783 315.177C147.873 309.31 159.275 304.296 182.837 291.838C183.144 291.673 183.512 291.696 183.796 291.89C195.086 299.475 200.334 302.868 209.157 308.047C209.51 308.256 209.682 308.66 209.6 309.056C209.51 309.452 209.18 309.743 208.775 309.781L130.158 317C130.128 317 130.098 317 130.068 317ZM183.219 293.751C163.293 304.273 152.048 309.467 137.94 314.407L205.724 308.182C198.377 303.817 193.137 300.409 183.219 293.751Z" fill="url(#paint98_linear_489_30)" fill-opacity="0.3"/>
<path d="M208.685 309.781C208.295 309.781 207.928 309.534 207.801 309.146C207.636 308.66 207.898 308.129 208.385 307.957C228.814 301.052 239.211 296.18 258.935 284.26C259.302 284.036 259.775 284.095 260.082 284.394C260.389 284.693 260.449 285.164 260.232 285.538C256.926 291.098 255.262 293.781 251.731 299.191C251.603 299.393 251.393 299.535 251.161 299.595C239.789 302.3 210.064 309.392 208.977 309.729C208.888 309.766 208.783 309.781 208.685 309.781ZM256.708 287.787C244.361 295.141 235.568 299.677 224.878 303.952C235.268 301.463 247.27 298.601 250.359 297.868C253.005 293.811 254.594 291.292 256.708 287.787Z" fill="url(#paint99_linear_489_30)" fill-opacity="0.3"/>
<path d="M130.068 317C129.678 317 129.311 316.753 129.184 316.365C125.383 305.147 123.381 299.229 119.468 287.346C119.363 287.032 119.438 286.681 119.655 286.434C119.88 286.188 120.218 286.076 120.54 286.143C145.286 291.158 158.758 292.361 183.249 291.733C183.676 291.711 184.066 292.009 184.179 292.428C184.291 292.846 184.096 293.287 183.714 293.489C160.04 306.007 148.57 311.051 130.361 316.955C130.263 316.985 130.166 317 130.068 317ZM121.747 288.288C125.233 298.87 127.122 304.452 130.66 314.893C147.333 309.445 158.458 304.617 179.328 293.684C157.626 294.072 144.319 292.802 121.747 288.288Z" fill="url(#paint100_linear_489_30)" fill-opacity="0.3"/>
<path d="M321.509 197.54C321.074 197.54 320.692 197.241 320.595 196.808L309.957 148.21C309.904 147.955 309.957 147.694 310.099 147.485L321.277 131.223C321.509 130.887 321.936 130.737 322.334 130.857C322.724 130.976 322.994 131.342 322.994 131.753L322.454 196.621C322.446 197.099 322.086 197.496 321.614 197.54C321.577 197.54 321.547 197.54 321.509 197.54ZM311.876 148.202L320.64 188.259L321.082 134.795L311.876 148.202Z" fill="url(#paint101_linear_489_30)" fill-opacity="0.3"/>
<path d="M6.7864 119.684C6.59898 119.684 6.41904 119.632 6.25412 119.52C5.87929 119.258 5.74436 118.765 5.93927 118.354L28.3392 70.7943C28.5266 70.4057 28.9538 70.189 29.3736 70.2787C29.801 70.3683 30.1083 70.7345 30.1233 71.1605L30.888 94.8133C30.8955 95.0674 30.798 95.314 30.6256 95.4934L7.46856 119.4C7.28115 119.587 7.03379 119.684 6.7864 119.684ZM28.3691 75.1139L10.0324 114.057L28.9914 94.4845L28.3691 75.1139Z" fill="url(#paint102_linear_489_30)" fill-opacity="0.3"/>
<path d="M262.751 40.5576C262.646 40.5576 262.533 40.5427 262.428 40.4978L245.711 34.4221C245.613 34.3847 245.524 34.3324 245.441 34.2726L217.104 11.3522C216.714 11.0383 216.647 10.4779 216.939 10.0818C217.231 9.68569 217.786 9.5736 218.206 9.84263L263.268 38.8388C263.665 39.1003 263.815 39.616 263.598 40.042C263.433 40.3633 263.103 40.5576 262.751 40.5576ZM246.498 32.7257L255.232 35.8943L231.692 20.7461L246.498 32.7257Z" fill="url(#paint103_linear_489_30)" fill-opacity="0.3"/>
<path d="M259.422 286.001C259.145 286.001 258.867 285.874 258.688 285.642C258.41 285.291 258.425 284.79 258.718 284.454L292.385 246.027C292.7 245.661 293.247 245.601 293.637 245.885C294.027 246.169 294.139 246.699 293.899 247.118L276.245 277.295C276.155 277.444 276.027 277.571 275.862 277.653L259.857 285.904C259.715 285.964 259.572 286.001 259.422 286.001ZM287.325 254.643L263.373 281.98L274.76 276.114L287.325 254.643Z" fill="url(#paint104_linear_489_30)" fill-opacity="0.3"/>
<path d="M250.944 299.625C250.726 299.625 250.516 299.55 250.344 299.408C249.984 299.109 249.901 298.593 250.149 298.197L258.628 284.574C258.718 284.432 258.845 284.312 258.995 284.237L275 275.987C275.42 275.77 275.937 275.897 276.2 276.286C276.469 276.674 276.402 277.198 276.057 277.511L251.573 299.386C251.393 299.543 251.168 299.625 250.944 299.625ZM260.082 285.777L255.187 293.646L269.333 281.009L260.082 285.777Z" fill="url(#paint105_linear_489_30)" fill-opacity="0.3"/>
<defs>
<linearGradient id="paint0_linear_489_30" x1="228" y1="-25.5" x2="25.5" y2="291" gradientUnits="userSpaceOnUse">
<stop stop-color="white"/>
<stop offset="1" stop-color="#121212"/>
</linearGradient>
<linearGradient id="paint1_linear_489_30" x1="228" y1="-25.5" x2="25.5" y2="291" gradientUnits="userSpaceOnUse">
<stop stop-color="white"/>
<stop offset="1" stop-color="#121212"/>
</linearGradient>
<linearGradient id="paint2_linear_489_30" x1="228" y1="-25.5" x2="25.5" y2="291" gradientUnits="userSpaceOnUse">
<stop stop-color="white"/>
<stop offset="1" stop-color="#121212"/>
</linearGradient>
<linearGradient id="paint3_linear_489_30" x1="228" y1="-25.5" x2="25.5" y2="291" gradientUnits="userSpaceOnUse">
<stop stop-color="white"/>
<stop offset="1" stop-color="#121212"/>
</linearGradient>
<linearGradient id="paint4_linear_489_30" x1="228" y1="-25.5" x2="25.5" y2="291" gradientUnits="userSpaceOnUse">
<stop stop-color="white"/>
<stop offset="1" stop-color="#121212"/>
</linearGradient>
<linearGradient id="paint5_linear_489_30" x1="228" y1="-25.5" x2="25.5" y2="291" gradientUnits="userSpaceOnUse">
<stop stop-color="white"/>
<stop offset="1" stop-color="#121212"/>
</linearGradient>
<linearGradient id="paint6_linear_489_30" x1="228" y1="-25.5" x2="25.5" y2="291" gradientUnits="userSpaceOnUse">
<stop stop-color="white"/>
<stop offset="1" stop-color="#121212"/>
</linearGradient>
<linearGradient id="paint7_linear_489_30" x1="228" y1="-25.5" x2="25.5" y2="291" gradientUnits="userSpaceOnUse">
<stop stop-color="white"/>
<stop offset="1" stop-color="#121212"/>
</linearGradient>
<linearGradient id="paint8_linear_489_30" x1="228" y1="-25.5" x2="25.5" y2="291" gradientUnits="userSpaceOnUse">
<stop stop-color="white"/>
<stop offset="1" stop-color="#121212"/>
</linearGradient>
<linearGradient id="paint9_linear_489_30" x1="228" y1="-25.5" x2="25.5" y2="291" gradientUnits="userSpaceOnUse">
<stop stop-color="white"/>
<stop offset="1" stop-color="#121212"/>
</linearGradient>
<linearGradient id="paint10_linear_489_30" x1="228" y1="-25.5" x2="25.5" y2="291" gradientUnits="userSpaceOnUse">
<stop stop-color="white"/>
<stop offset="1" stop-color="#121212"/>
</linearGradient>
<linearGradient id="paint11_linear_489_30" x1="228" y1="-25.5" x2="25.5" y2="291" gradientUnits="userSpaceOnUse">
<stop stop-color="white"/>
<stop offset="1" stop-color="#121212"/>
</linearGradient>
<linearGradient id="paint12_linear_489_30" x1="228" y1="-25.5" x2="25.5" y2="291" gradientUnits="userSpaceOnUse">
<stop stop-color="white"/>
<stop offset="1" stop-color="#121212"/>
</linearGradient>
<linearGradient id="paint13_linear_489_30" x1="228" y1="-25.5" x2="25.5" y2="291" gradientUnits="userSpaceOnUse">
<stop stop-color="white"/>
<stop offset="1" stop-color="#121212"/>
</linearGradient>
<linearGradient id="paint14_linear_489_30" x1="228" y1="-25.5" x2="25.5" y2="291" gradientUnits="userSpaceOnUse">
<stop stop-color="white"/>
<stop offset="1" stop-color="#121212"/>
</linearGradient>
<linearGradient id="paint15_linear_489_30" x1="228" y1="-25.5" x2="25.5" y2="291" gradientUnits="userSpaceOnUse">
<stop stop-color="white"/>
<stop offset="1" stop-color="#121212"/>
</linearGradient>
<linearGradient id="paint16_linear_489_30" x1="228" y1="-25.5" x2="25.5" y2="291" gradientUnits="userSpaceOnUse">
<stop stop-color="white"/>
<stop offset="1" stop-color="#121212"/>
</linearGradient>
<linearGradient id="paint17_linear_489_30" x1="228" y1="-25.5" x2="25.5" y2="291" gradientUnits="userSpaceOnUse">
<stop stop-color="white"/>
<stop offset="1" stop-color="#121212"/>
</linearGradient>
<linearGradient id="paint18_linear_489_30" x1="228" y1="-25.5" x2="25.5" y2="291" gradientUnits="userSpaceOnUse">
<stop stop-color="white"/>
<stop offset="1" stop-color="#121212"/>
</linearGradient>
<linearGradient id="paint19_linear_489_30" x1="228" y1="-25.5" x2="25.5" y2="291" gradientUnits="userSpaceOnUse">
<stop stop-color="white"/>
<stop offset="1" stop-color="#121212"/>
</linearGradient>
<linearGradient id="paint20_linear_489_30" x1="228" y1="-25.5" x2="25.5" y2="291" gradientUnits="userSpaceOnUse">
<stop stop-color="white"/>
<stop offset="1" stop-color="#121212"/>
</linearGradient>
<linearGradient id="paint21_linear_489_30" x1="228" y1="-25.5" x2="25.5" y2="291" gradientUnits="userSpaceOnUse">
<stop stop-color="white"/>
<stop offset="1" stop-color="#121212"/>
</linearGradient>
<linearGradient id="paint22_linear_489_30" x1="228" y1="-25.5" x2="25.5" y2="291" gradientUnits="userSpaceOnUse">
<stop stop-color="white"/>
<stop offset="1" stop-color="#121212"/>
</linearGradient>
<linearGradient id="paint23_linear_489_30" x1="228" y1="-25.5" x2="25.5" y2="291" gradientUnits="userSpaceOnUse">
<stop stop-color="white"/>
<stop offset="1" stop-color="#121212"/>
</linearGradient>
<linearGradient id="paint24_linear_489_30" x1="228" y1="-25.5" x2="25.5" y2="291" gradientUnits="userSpaceOnUse">
<stop stop-color="white"/>
<stop offset="1" stop-color="#121212"/>
</linearGradient>
<linearGradient id="paint25_linear_489_30" x1="228" y1="-25.5" x2="25.5" y2="291" gradientUnits="userSpaceOnUse">
<stop stop-color="white"/>
<stop offset="1" stop-color="#121212"/>
</linearGradient>
<linearGradient id="paint26_linear_489_30" x1="228" y1="-25.5" x2="25.5" y2="291" gradientUnits="userSpaceOnUse">
<stop stop-color="white"/>
<stop offset="1" stop-color="#121212"/>
</linearGradient>
<linearGradient id="paint27_linear_489_30" x1="228" y1="-25.5" x2="25.5" y2="291" gradientUnits="userSpaceOnUse">
<stop stop-color="white"/>
<stop offset="1" stop-color="#121212"/>
</linearGradient>
<linearGradient id="paint28_linear_489_30" x1="228" y1="-25.5" x2="25.5" y2="291" gradientUnits="userSpaceOnUse">
<stop stop-color="white"/>
<stop offset="1" stop-color="#121212"/>
</linearGradient>
<linearGradient id="paint29_linear_489_30" x1="228" y1="-25.5" x2="25.5" y2="291" gradientUnits="userSpaceOnUse">
<stop stop-color="white"/>
<stop offset="1" stop-color="#121212"/>
</linearGradient>
<linearGradient id="paint30_linear_489_30" x1="228" y1="-25.5" x2="25.5" y2="291" gradientUnits="userSpaceOnUse">
<stop stop-color="white"/>
<stop offset="1" stop-color="#121212"/>
</linearGradient>
<linearGradient id="paint31_linear_489_30" x1="228" y1="-25.5" x2="25.5" y2="291" gradientUnits="userSpaceOnUse">
<stop stop-color="white"/>
<stop offset="1" stop-color="#121212"/>
</linearGradient>
<linearGradient id="paint32_linear_489_30" x1="228" y1="-25.5" x2="25.5" y2="291" gradientUnits="userSpaceOnUse">
<stop stop-color="white"/>
<stop offset="1" stop-color="#121212"/>
</linearGradient>
<linearGradient id="paint33_linear_489_30" x1="228" y1="-25.5" x2="25.5" y2="291" gradientUnits="userSpaceOnUse">
<stop stop-color="white"/>
<stop offset="1" stop-color="#121212"/>
</linearGradient>
<linearGradient id="paint34_linear_489_30" x1="228" y1="-25.5" x2="25.5" y2="291" gradientUnits="userSpaceOnUse">
<stop stop-color="white"/>
<stop offset="1" stop-color="#121212"/>
</linearGradient>
<linearGradient id="paint35_linear_489_30" x1="228" y1="-25.5" x2="25.5" y2="291" gradientUnits="userSpaceOnUse">
<stop stop-color="white"/>
<stop offset="1" stop-color="#121212"/>
</linearGradient>
<linearGradient id="paint36_linear_489_30" x1="228" y1="-25.5" x2="25.5" y2="291" gradientUnits="userSpaceOnUse">
<stop stop-color="white"/>
<stop offset="1" stop-color="#121212"/>
</linearGradient>
<linearGradient id="paint37_linear_489_30" x1="228" y1="-25.5" x2="25.5" y2="291" gradientUnits="userSpaceOnUse">
<stop stop-color="white"/>
<stop offset="1" stop-color="#121212"/>
</linearGradient>
<linearGradient id="paint38_linear_489_30" x1="228" y1="-25.5" x2="25.5" y2="291" gradientUnits="userSpaceOnUse">
<stop stop-color="white"/>
<stop offset="1" stop-color="#121212"/>
</linearGradient>
<linearGradient id="paint39_linear_489_30" x1="228" y1="-25.5" x2="25.5" y2="291" gradientUnits="userSpaceOnUse">
<stop stop-color="white"/>
<stop offset="1" stop-color="#121212"/>
</linearGradient>
<linearGradient id="paint40_linear_489_30" x1="228" y1="-25.5" x2="25.5" y2="291" gradientUnits="userSpaceOnUse">
<stop stop-color="white"/>
<stop offset="1" stop-color="#121212"/>
</linearGradient>
<linearGradient id="paint41_linear_489_30" x1="228" y1="-25.5" x2="25.5" y2="291" gradientUnits="userSpaceOnUse">
<stop stop-color="white"/>
<stop offset="1" stop-color="#121212"/>
</linearGradient>
<linearGradient id="paint42_linear_489_30" x1="228" y1="-25.5" x2="25.5" y2="291" gradientUnits="userSpaceOnUse">
<stop stop-color="white"/>
<stop offset="1" stop-color="#121212"/>
</linearGradient>
<linearGradient id="paint43_linear_489_30" x1="228" y1="-25.5" x2="25.5" y2="291" gradientUnits="userSpaceOnUse">
<stop stop-color="white"/>
<stop offset="1" stop-color="#121212"/>
</linearGradient>
<linearGradient id="paint44_linear_489_30" x1="228" y1="-25.5" x2="25.5" y2="291" gradientUnits="userSpaceOnUse">
<stop stop-color="white"/>
<stop offset="1" stop-color="#121212"/>
</linearGradient>
<linearGradient id="paint45_linear_489_30" x1="228" y1="-25.5" x2="25.5" y2="291" gradientUnits="userSpaceOnUse">
<stop stop-color="white"/>
<stop offset="1" stop-color="#121212"/>
</linearGradient>
<linearGradient id="paint46_linear_489_30" x1="228" y1="-25.5" x2="25.5" y2="291" gradientUnits="userSpaceOnUse">
<stop stop-color="white"/>
<stop offset="1" stop-color="#121212"/>
</linearGradient>
<linearGradient id="paint47_linear_489_30" x1="228" y1="-25.5" x2="25.5" y2="291" gradientUnits="userSpaceOnUse">
<stop stop-color="white"/>
<stop offset="1" stop-color="#121212"/>
</linearGradient>
<linearGradient id="paint48_linear_489_30" x1="228" y1="-25.5" x2="25.5" y2="291" gradientUnits="userSpaceOnUse">
<stop stop-color="white"/>
<stop offset="1" stop-color="#121212"/>
</linearGradient>
<linearGradient id="paint49_linear_489_30" x1="228" y1="-25.5" x2="25.5" y2="291" gradientUnits="userSpaceOnUse">
<stop stop-color="white"/>
<stop offset="1" stop-color="#121212"/>
</linearGradient>
<linearGradient id="paint50_linear_489_30" x1="228" y1="-25.5" x2="25.5" y2="291" gradientUnits="userSpaceOnUse">
<stop stop-color="white"/>
<stop offset="1" stop-color="#121212"/>
</linearGradient>
<linearGradient id="paint51_linear_489_30" x1="228" y1="-25.5" x2="25.5" y2="291" gradientUnits="userSpaceOnUse">
<stop stop-color="white"/>
<stop offset="1" stop-color="#121212"/>
</linearGradient>
<linearGradient id="paint52_linear_489_30" x1="228" y1="-25.5" x2="25.5" y2="291" gradientUnits="userSpaceOnUse">
<stop stop-color="white"/>
<stop offset="1" stop-color="#121212"/>
</linearGradient>
<linearGradient id="paint53_linear_489_30" x1="228" y1="-25.5" x2="25.5" y2="291" gradientUnits="userSpaceOnUse">
<stop stop-color="white"/>
<stop offset="1" stop-color="#121212"/>
</linearGradient>
<linearGradient id="paint54_linear_489_30" x1="228" y1="-25.5" x2="25.5" y2="291" gradientUnits="userSpaceOnUse">
<stop stop-color="white"/>
<stop offset="1" stop-color="#121212"/>
</linearGradient>
<linearGradient id="paint55_linear_489_30" x1="228" y1="-25.5" x2="25.5" y2="291" gradientUnits="userSpaceOnUse">
<stop stop-color="white"/>
<stop offset="1" stop-color="#121212"/>
</linearGradient>
<linearGradient id="paint56_linear_489_30" x1="228" y1="-25.5" x2="25.5" y2="291" gradientUnits="userSpaceOnUse">
<stop stop-color="white"/>
<stop offset="1" stop-color="#121212"/>
</linearGradient>
<linearGradient id="paint57_linear_489_30" x1="228" y1="-25.5" x2="25.5" y2="291" gradientUnits="userSpaceOnUse">
<stop stop-color="white"/>
<stop offset="1" stop-color="#121212"/>
</linearGradient>
<linearGradient id="paint58_linear_489_30" x1="228" y1="-25.5" x2="25.5" y2="291" gradientUnits="userSpaceOnUse">
<stop stop-color="white"/>
<stop offset="1" stop-color="#121212"/>
</linearGradient>
<linearGradient id="paint59_linear_489_30" x1="228" y1="-25.5" x2="25.5" y2="291" gradientUnits="userSpaceOnUse">
<stop stop-color="white"/>
<stop offset="1" stop-color="#121212"/>
</linearGradient>
<linearGradient id="paint60_linear_489_30" x1="228" y1="-25.5" x2="25.5" y2="291" gradientUnits="userSpaceOnUse">
<stop stop-color="white"/>
<stop offset="1" stop-color="#121212"/>
</linearGradient>
<linearGradient id="paint61_linear_489_30" x1="228" y1="-25.5" x2="25.5" y2="291" gradientUnits="userSpaceOnUse">
<stop stop-color="white"/>
<stop offset="1" stop-color="#121212"/>
</linearGradient>
<linearGradient id="paint62_linear_489_30" x1="228" y1="-25.5" x2="25.5" y2="291" gradientUnits="userSpaceOnUse">
<stop stop-color="white"/>
<stop offset="1" stop-color="#121212"/>
</linearGradient>
<linearGradient id="paint63_linear_489_30" x1="228" y1="-25.5" x2="25.5" y2="291" gradientUnits="userSpaceOnUse">
<stop stop-color="white"/>
<stop offset="1" stop-color="#121212"/>
</linearGradient>
<linearGradient id="paint64_linear_489_30" x1="228" y1="-25.5" x2="25.5" y2="291" gradientUnits="userSpaceOnUse">
<stop stop-color="white"/>
<stop offset="1" stop-color="#121212"/>
</linearGradient>
<linearGradient id="paint65_linear_489_30" x1="228" y1="-25.5" x2="25.5" y2="291" gradientUnits="userSpaceOnUse">
<stop stop-color="white"/>
<stop offset="1" stop-color="#121212"/>
</linearGradient>
<linearGradient id="paint66_linear_489_30" x1="228" y1="-25.5" x2="25.5" y2="291" gradientUnits="userSpaceOnUse">
<stop stop-color="white"/>
<stop offset="1" stop-color="#121212"/>
</linearGradient>
<linearGradient id="paint67_linear_489_30" x1="228" y1="-25.5" x2="25.5" y2="291" gradientUnits="userSpaceOnUse">
<stop stop-color="white"/>
<stop offset="1" stop-color="#121212"/>
</linearGradient>
<linearGradient id="paint68_linear_489_30" x1="228" y1="-25.5" x2="25.5" y2="291" gradientUnits="userSpaceOnUse">
<stop stop-color="white"/>
<stop offset="1" stop-color="#121212"/>
</linearGradient>
<linearGradient id="paint69_linear_489_30" x1="228" y1="-25.5" x2="25.5" y2="291" gradientUnits="userSpaceOnUse">
<stop stop-color="white"/>
<stop offset="1" stop-color="#121212"/>
</linearGradient>
<linearGradient id="paint70_linear_489_30" x1="228" y1="-25.5" x2="25.5" y2="291" gradientUnits="userSpaceOnUse">
<stop stop-color="white"/>
<stop offset="1" stop-color="#121212"/>
</linearGradient>
<linearGradient id="paint71_linear_489_30" x1="228" y1="-25.5" x2="25.5" y2="291" gradientUnits="userSpaceOnUse">
<stop stop-color="white"/>
<stop offset="1" stop-color="#121212"/>
</linearGradient>
<linearGradient id="paint72_linear_489_30" x1="228" y1="-25.5" x2="25.5" y2="291" gradientUnits="userSpaceOnUse">
<stop stop-color="white"/>
<stop offset="1" stop-color="#121212"/>
</linearGradient>
<linearGradient id="paint73_linear_489_30" x1="228" y1="-25.5" x2="25.5" y2="291" gradientUnits="userSpaceOnUse">
<stop stop-color="white"/>
<stop offset="1" stop-color="#121212"/>
</linearGradient>
<linearGradient id="paint74_linear_489_30" x1="228" y1="-25.5" x2="25.5" y2="291" gradientUnits="userSpaceOnUse">
<stop stop-color="white"/>
<stop offset="1" stop-color="#121212"/>
</linearGradient>
<linearGradient id="paint75_linear_489_30" x1="228" y1="-25.5" x2="25.5" y2="291" gradientUnits="userSpaceOnUse">
<stop stop-color="white"/>
<stop offset="1" stop-color="#121212"/>
</linearGradient>
<linearGradient id="paint76_linear_489_30" x1="228" y1="-25.5" x2="25.5" y2="291" gradientUnits="userSpaceOnUse">
<stop stop-color="white"/>
<stop offset="1" stop-color="#121212"/>
</linearGradient>
<linearGradient id="paint77_linear_489_30" x1="228" y1="-25.5" x2="25.5" y2="291" gradientUnits="userSpaceOnUse">
<stop stop-color="white"/>
<stop offset="1" stop-color="#121212"/>
</linearGradient>
<linearGradient id="paint78_linear_489_30" x1="228" y1="-25.5" x2="25.5" y2="291" gradientUnits="userSpaceOnUse">
<stop stop-color="white"/>
<stop offset="1" stop-color="#121212"/>
</linearGradient>
<linearGradient id="paint79_linear_489_30" x1="228" y1="-25.5" x2="25.5" y2="291" gradientUnits="userSpaceOnUse">
<stop stop-color="white"/>
<stop offset="1" stop-color="#121212"/>
</linearGradient>
<linearGradient id="paint80_linear_489_30" x1="228" y1="-25.5" x2="25.5" y2="291" gradientUnits="userSpaceOnUse">
<stop stop-color="white"/>
<stop offset="1" stop-color="#121212"/>
</linearGradient>
<linearGradient id="paint81_linear_489_30" x1="228" y1="-25.5" x2="25.5" y2="291" gradientUnits="userSpaceOnUse">
<stop stop-color="white"/>
<stop offset="1" stop-color="#121212"/>
</linearGradient>
<linearGradient id="paint82_linear_489_30" x1="228" y1="-25.5" x2="25.5" y2="291" gradientUnits="userSpaceOnUse">
<stop stop-color="white"/>
<stop offset="1" stop-color="#121212"/>
</linearGradient>
<linearGradient id="paint83_linear_489_30" x1="228" y1="-25.5" x2="25.5" y2="291" gradientUnits="userSpaceOnUse">
<stop stop-color="white"/>
<stop offset="1" stop-color="#121212"/>
</linearGradient>
<linearGradient id="paint84_linear_489_30" x1="228" y1="-25.5" x2="25.5" y2="291" gradientUnits="userSpaceOnUse">
<stop stop-color="white"/>
<stop offset="1" stop-color="#121212"/>
</linearGradient>
<linearGradient id="paint85_linear_489_30" x1="228" y1="-25.5" x2="25.5" y2="291" gradientUnits="userSpaceOnUse">
<stop stop-color="white"/>
<stop offset="1" stop-color="#121212"/>
</linearGradient>
<linearGradient id="paint86_linear_489_30" x1="228" y1="-25.5" x2="25.5" y2="291" gradientUnits="userSpaceOnUse">
<stop stop-color="white"/>
<stop offset="1" stop-color="#121212"/>
</linearGradient>
<linearGradient id="paint87_linear_489_30" x1="228" y1="-25.5" x2="25.5" y2="291" gradientUnits="userSpaceOnUse">
<stop stop-color="white"/>
<stop offset="1" stop-color="#121212"/>
</linearGradient>
<linearGradient id="paint88_linear_489_30" x1="228" y1="-25.5" x2="25.5" y2="291" gradientUnits="userSpaceOnUse">
<stop stop-color="white"/>
<stop offset="1" stop-color="#121212"/>
</linearGradient>
<linearGradient id="paint89_linear_489_30" x1="228" y1="-25.5" x2="25.5" y2="291" gradientUnits="userSpaceOnUse">
<stop stop-color="white"/>
<stop offset="1" stop-color="#121212"/>
</linearGradient>
<linearGradient id="paint90_linear_489_30" x1="228" y1="-25.5" x2="25.5" y2="291" gradientUnits="userSpaceOnUse">
<stop stop-color="white"/>
<stop offset="1" stop-color="#121212"/>
</linearGradient>
<linearGradient id="paint91_linear_489_30" x1="228" y1="-25.5" x2="25.5" y2="291" gradientUnits="userSpaceOnUse">
<stop stop-color="white"/>
<stop offset="1" stop-color="#121212"/>
</linearGradient>
<linearGradient id="paint92_linear_489_30" x1="228" y1="-25.5" x2="25.5" y2="291" gradientUnits="userSpaceOnUse">
<stop stop-color="white"/>
<stop offset="1" stop-color="#121212"/>
</linearGradient>
<linearGradient id="paint93_linear_489_30" x1="228" y1="-25.5" x2="25.5" y2="291" gradientUnits="userSpaceOnUse">
<stop stop-color="white"/>
<stop offset="1" stop-color="#121212"/>
</linearGradient>
<linearGradient id="paint94_linear_489_30" x1="228" y1="-25.5" x2="25.5" y2="291" gradientUnits="userSpaceOnUse">
<stop stop-color="white"/>
<stop offset="1" stop-color="#121212"/>
</linearGradient>
<linearGradient id="paint95_linear_489_30" x1="228" y1="-25.5" x2="25.5" y2="291" gradientUnits="userSpaceOnUse">
<stop stop-color="white"/>
<stop offset="1" stop-color="#121212"/>
</linearGradient>
<linearGradient id="paint96_linear_489_30" x1="228" y1="-25.5" x2="25.5" y2="291" gradientUnits="userSpaceOnUse">
<stop stop-color="white"/>
<stop offset="1" stop-color="#121212"/>
</linearGradient>
<linearGradient id="paint97_linear_489_30" x1="228" y1="-25.5" x2="25.5" y2="291" gradientUnits="userSpaceOnUse">
<stop stop-color="white"/>
<stop offset="1" stop-color="#121212"/>
</linearGradient>
<linearGradient id="paint98_linear_489_30" x1="228" y1="-25.5" x2="25.5" y2="291" gradientUnits="userSpaceOnUse">
<stop stop-color="white"/>
<stop offset="1" stop-color="#121212"/>
</linearGradient>
<linearGradient id="paint99_linear_489_30" x1="228" y1="-25.5" x2="25.5" y2="291" gradientUnits="userSpaceOnUse">
<stop stop-color="white"/>
<stop offset="1" stop-color="#121212"/>
</linearGradient>
<linearGradient id="paint100_linear_489_30" x1="228" y1="-25.5" x2="25.5" y2="291" gradientUnits="userSpaceOnUse">
<stop stop-color="white"/>
<stop offset="1" stop-color="#121212"/>
</linearGradient>
<linearGradient id="paint101_linear_489_30" x1="228" y1="-25.5" x2="25.5" y2="291" gradientUnits="userSpaceOnUse">
<stop stop-color="white"/>
<stop offset="1" stop-color="#121212"/>
</linearGradient>
<linearGradient id="paint102_linear_489_30" x1="228" y1="-25.5" x2="25.5" y2="291" gradientUnits="userSpaceOnUse">
<stop stop-color="white"/>
<stop offset="1" stop-color="#121212"/>
</linearGradient>
<linearGradient id="paint103_linear_489_30" x1="228" y1="-25.5" x2="25.5" y2="291" gradientUnits="userSpaceOnUse">
<stop stop-color="white"/>
<stop offset="1" stop-color="#121212"/>
</linearGradient>
<linearGradient id="paint104_linear_489_30" x1="228" y1="-25.5" x2="25.5" y2="291" gradientUnits="userSpaceOnUse">
<stop stop-color="white"/>
<stop offset="1" stop-color="#121212"/>
</linearGradient>
<linearGradient id="paint105_linear_489_30" x1="228" y1="-25.5" x2="25.5" y2="291" gradientUnits="userSpaceOnUse">
<stop stop-color="white"/>
<stop offset="1" stop-color="#121212"/>
</linearGradient>
</defs>
</svg>
