<svg width="214" height="288" viewBox="0 0 214 288" fill="none" xmlns="http://www.w3.org/2000/svg">
<path d="M0.77549 366.542C0.751976 366.455 0.741941 366.363 0.747238 366.275L12.9181 127.769C12.9304 127.491 13.0835 127.226 13.3183 127.076L212.127 0.16688C212.399 -0.0071793 212.751 -0.014803 213.034 0.148237C213.316 0.311277 213.486 0.620287 213.471 0.942564L203.174 237.427C203.164 237.712 203.016 237.969 202.776 238.127L2.09261 367.057C1.81422 367.233 1.46179 367.241 1.17939 367.078C0.978945 366.951 0.833355 366.758 0.77549 366.542ZM14.639 128.306L2.57946 364.663L201.449 236.899L211.65 2.54434L14.639 128.306Z" fill="url(#paint0_linear_489_131)"/>
<path d="M0.77549 366.542C0.74294 366.421 0.735546 366.285 0.7588 366.156L35.4129 181.484L37.1268 181.806L2.93157 364.033L143.661 243.312L144.797 244.635L2.18793 366.981C1.90556 367.223 1.50278 367.259 1.18614 367.076C0.972194 366.953 0.833355 366.758 0.77549 366.542Z" fill="url(#paint1_linear_489_131)"/>
<path d="M36.02 181.401L212.352 0.656306C212.466 0.539148 212.64 0.514145 212.779 0.599944C212.915 0.678994 212.981 0.842334 212.943 0.997208L144.565 244.068L143.893 243.879L211.892 2.12502L36.5197 181.889L36.02 181.401Z" fill="url(#paint2_linear_489_131)"/>
<path d="M69.4208 122.583L212.03 0.236298C212.312 -0.0057363 212.715 -0.041337 213.032 0.141465C213.348 0.324268 213.521 0.697619 213.451 1.05642L178.803 185.727L177.089 185.405L211.285 3.17757L70.5567 123.906L69.4208 122.583Z" fill="url(#paint3_linear_489_131)"/>
<path d="M1.28168 366.407C1.2654 366.346 1.26262 366.282 1.28191 366.219L69.6525 123.15L70.3251 123.339L2.32567 365.092L177.698 185.328L178.198 185.817L1.86563 366.561C1.75235 366.678 1.57817 366.703 1.43942 366.618C1.36239 366.573 1.30519 366.494 1.28168 366.407Z" fill="url(#paint4_linear_489_131)"/>
<path d="M12.9463 128.036C12.8848 127.807 12.9197 127.559 13.0468 127.358C13.1919 127.117 13.4401 126.964 13.7228 126.939L69.9274 122.367C70.1052 122.356 70.2821 122.395 70.4361 122.484L178.384 184.812C178.539 184.901 178.661 185.034 178.74 185.194L203.1 237.013C203.219 237.27 203.211 237.562 203.074 237.808C202.937 238.055 202.691 238.215 202.412 238.254L144.338 244.838C144.155 244.858 143.965 244.822 143.802 244.728L35.8317 182.399C35.6691 182.305 35.5344 182.153 35.4653 181.976L12.982 128.143C12.9662 128.111 12.9572 128.077 12.9463 128.036ZM69.786 124.134L15.0539 128.586L36.9562 181.034L144.415 243.074L200.994 236.659L177.272 186.195L69.786 124.134Z" fill="url(#paint5_linear_489_131)"/>
<defs>
<linearGradient id="paint0_linear_489_131" x1="-14.7527" y1="304.405" x2="231.25" y2="58.96" gradientUnits="userSpaceOnUse">
<stop stop-color="#121212"/>
<stop offset="1" stop-color="white"/>
</linearGradient>
<linearGradient id="paint1_linear_489_131" x1="-14.7527" y1="304.405" x2="231.25" y2="58.96" gradientUnits="userSpaceOnUse">
<stop stop-color="#121212"/>
<stop offset="1" stop-color="white"/>
</linearGradient>
<linearGradient id="paint2_linear_489_131" x1="-14.7527" y1="304.405" x2="231.25" y2="58.96" gradientUnits="userSpaceOnUse">
<stop stop-color="#121212"/>
<stop offset="1" stop-color="white"/>
</linearGradient>
<linearGradient id="paint3_linear_489_131" x1="-14.7527" y1="304.405" x2="231.25" y2="58.96" gradientUnits="userSpaceOnUse">
<stop stop-color="#121212"/>
<stop offset="1" stop-color="white"/>
</linearGradient>
<linearGradient id="paint4_linear_489_131" x1="-14.7527" y1="304.405" x2="231.25" y2="58.96" gradientUnits="userSpaceOnUse">
<stop stop-color="#121212"/>
<stop offset="1" stop-color="white"/>
</linearGradient>
<linearGradient id="paint5_linear_489_131" x1="-14.7527" y1="304.405" x2="231.25" y2="58.96" gradientUnits="userSpaceOnUse">
<stop stop-color="#121212"/>
<stop offset="1" stop-color="white"/>
</linearGradient>
</defs>
</svg>
