<svg width="28" height="18" viewBox="0 0 28 18" fill="none" xmlns="http://www.w3.org/2000/svg">
<path d="M17 3C17 2.73478 17.1054 2.48043 17.2929 2.29289C17.4804 2.10536 17.7348 2 18 2H26C26.2652 2 26.5196 2.10536 26.7071 2.29289C26.8946 2.48043 27 2.73478 27 3C27 3.26522 26.8946 3.51957 26.7071 3.70711C26.5196 3.89464 26.2652 4 26 4H18C17.7348 4 17.4804 3.89464 17.2929 3.70711C17.1054 3.51957 17 3.26522 17 3ZM14 12.75C14 14.1424 13.4469 15.4777 12.4623 16.4623C11.4777 17.4469 10.1424 18 8.75 18H1C0.734784 18 0.48043 17.8946 0.292893 17.7071C0.105357 17.5196 0 17.2652 0 17V1C0 0.734784 0.105357 0.48043 0.292893 0.292893C0.48043 0.105357 0.734784 0 1 0H8.25C9.20643 0.00101788 10.1403 0.290738 10.9293 0.831248C11.7184 1.37176 12.3259 2.13788 12.6723 3.02935C13.0188 3.92082 13.0881 4.89612 12.8711 5.82761C12.6541 6.7591 12.161 7.60339 11.4563 8.25C12.2324 8.71692 12.8746 9.37671 13.3203 10.1652C13.7661 10.9538 14.0002 11.8442 14 12.75ZM2 7.5H8.25C8.97935 7.5 9.67882 7.21027 10.1945 6.69454C10.7103 6.17882 11 5.47935 11 4.75C11 4.02065 10.7103 3.32118 10.1945 2.80546C9.67882 2.28973 8.97935 2 8.25 2H2V7.5ZM12 12.75C12 12.3232 11.9159 11.9006 11.7526 11.5063C11.5893 11.112 11.3499 10.7537 11.0481 10.4519C10.7463 10.1501 10.388 9.91072 9.99372 9.74739C9.59941 9.58406 9.1768 9.5 8.75 9.5H2V16H8.75C9.1768 16 9.59941 15.9159 9.99372 15.7526C10.388 15.5893 10.7463 15.3499 11.0481 15.0481C11.3499 14.7463 11.5893 14.388 11.7526 13.9937C11.9159 13.5994 12 13.1768 12 12.75ZM28 12C28 12.2652 27.8946 12.5196 27.7071 12.7071C27.5196 12.8946 27.2652 13 27 13H18.125C18.3132 13.7297 18.7038 14.3913 19.2516 14.9088C19.7995 15.4262 20.4824 15.7783 21.2216 15.9246C21.9608 16.071 22.7263 16.0055 23.43 15.7357C24.1336 15.466 24.7467 15.003 25.1987 14.4C25.2776 14.2949 25.3764 14.2065 25.4895 14.1396C25.6026 14.0727 25.7277 14.0287 25.8578 14.0102C25.9878 13.9917 26.1203 13.999 26.2475 14.0317C26.3748 14.0643 26.4943 14.1217 26.5994 14.2006C26.7044 14.2795 26.7929 14.3783 26.8598 14.4914C26.9267 14.6044 26.9706 14.7296 26.9891 14.8596C27.0077 14.9897 27.0004 15.1221 26.9677 15.2494C26.935 15.3766 26.8776 15.4962 26.7987 15.6012C25.9436 16.7407 24.7109 17.5386 23.3212 17.8523C21.9316 18.166 20.4756 17.975 19.2139 17.3135C17.9522 16.652 16.967 15.5631 16.4346 14.2416C15.9023 12.9202 15.8575 11.4525 16.3083 10.101C16.7591 8.7496 17.676 7.60267 18.8951 6.86544C20.1141 6.12821 21.5557 5.8488 22.9619 6.07719C24.3681 6.30559 25.6472 7.02689 26.5702 8.11204C27.4933 9.19718 28.0001 10.5754 28 12ZM25.875 11C25.6547 10.1396 25.1543 9.37696 24.4527 8.83236C23.7511 8.28776 22.8882 7.99216 22 7.99216C21.1118 7.99216 20.2489 8.28776 19.5473 8.83236C18.8457 9.37696 18.3453 10.1396 18.125 11H25.875Z" fill="url(#paint0_linear_496_388)"/>
<defs>
<linearGradient id="paint0_linear_496_388" x1="1.26411" y1="16.4444" x2="28.5463" y2="11.4759" gradientUnits="userSpaceOnUse">
<stop stop-color="#1051B4"/>
<stop offset="1" stop-color="#43ACFB"/>
</linearGradient>
</defs>
</svg>
