<svg width="26" height="26" viewBox="0 0 26 26" fill="none" xmlns="http://www.w3.org/2000/svg">
<path d="M20.4474 15.105L16.4474 13.105C16.29 13.0265 16.1146 12.991 15.939 13.002C15.7634 13.0129 15.5939 13.07 15.4474 13.1675L13.6112 14.3925C12.7682 13.9291 12.0745 13.2354 11.6112 12.3925L12.8362 10.5562C12.9336 10.4098 12.9907 10.2402 13.0017 10.0646C13.0127 9.88907 12.9771 9.7137 12.8987 9.55625L10.8987 5.55625C10.8158 5.38884 10.6876 5.248 10.5288 5.14968C10.3699 5.05137 10.1867 4.99952 9.99991 5C8.67383 5 7.40206 5.52678 6.46437 6.46447C5.52669 7.40215 4.99991 8.67392 4.99991 10C5.00322 12.9164 6.1632 15.7123 8.22539 17.7745C10.2876 19.8367 13.0835 20.9967 15.9999 21C16.6565 21 17.3067 20.8707 17.9133 20.6194C18.52 20.3681 19.0711 19.9998 19.5354 19.5355C19.9997 19.0712 20.368 18.52 20.6193 17.9134C20.8706 17.3068 20.9999 16.6566 20.9999 16C21 15.8142 20.9484 15.6321 20.8508 15.474C20.7532 15.3159 20.6135 15.1881 20.4474 15.105ZM15.9999 19C13.6138 18.9974 11.3261 18.0483 9.63887 16.361C7.95162 14.6738 7.00255 12.3861 6.99991 10C6.99971 9.3064 7.23986 8.63416 7.67949 8.09768C8.11911 7.5612 8.73104 7.19362 9.41116 7.0575L10.8462 9.9325L9.62491 11.75C9.53365 11.8869 9.47757 12.0442 9.46166 12.2079C9.44574 12.3717 9.47047 12.5368 9.53366 12.6888C10.2491 14.3892 11.6019 15.742 13.3024 16.4575C13.4548 16.5235 13.6212 16.5505 13.7866 16.5361C13.952 16.5217 14.1112 16.4663 14.2499 16.375L16.0762 15.1575L18.9512 16.5925C18.814 17.2734 18.4448 17.8856 17.9066 18.3247C17.3684 18.7637 16.6945 19.0024 15.9999 19ZM12.9999 3.09594e-07C10.7555 -0.000489452 8.54918 0.58011 6.59572 1.68529C4.64227 2.79046 3.00822 4.38256 1.85262 6.30662C0.697029 8.23069 0.0592598 10.4212 0.00139274 12.6648C-0.0564743 14.9085 0.467532 17.1289 1.52241 19.11L0.103658 23.3662C-0.0138614 23.7186 -0.0309162 24.0968 0.0544051 24.4583C0.139726 24.8199 0.324052 25.1505 0.586722 25.4132C0.849392 25.6759 1.18003 25.8602 1.54157 25.9455C1.90311 26.0308 2.28127 26.0138 2.63366 25.8962L6.88991 24.4775C8.63337 25.4048 10.5652 25.9228 12.5387 25.992C14.5122 26.0613 16.4756 25.68 18.2797 24.8772C20.0839 24.0743 21.6815 22.871 22.9512 21.3586C24.2209 19.8462 25.1293 18.0644 25.6076 16.1484C26.0858 14.2325 26.1213 12.2328 25.7113 10.301C25.3013 8.36934 24.4567 6.55642 23.2414 4.9999C22.0262 3.44337 20.4723 2.18415 18.6978 1.31782C16.9232 0.451486 14.9746 0.000810288 12.9999 3.09594e-07ZM12.9999 24C11.0661 24.0013 9.16628 23.4921 7.49241 22.5238C7.36985 22.4527 7.23359 22.4085 7.09266 22.394C6.95172 22.3796 6.80933 22.3953 6.67491 22.44L1.99991 24L3.55866 19.325C3.60359 19.1907 3.61947 19.0483 3.60525 18.9074C3.59103 18.7665 3.54702 18.6301 3.47616 18.5075C2.26362 16.4111 1.77679 13.9732 2.09119 11.572C2.40559 9.17068 3.50365 6.94027 5.21502 5.22674C6.92639 3.51321 9.1554 2.41234 11.5563 2.0949C13.9572 1.77747 16.3957 2.26122 18.4936 3.47111C20.5915 4.68099 22.2314 6.54939 23.1591 8.78644C24.0868 11.0235 24.2502 13.5042 23.6242 15.8436C22.9981 18.1831 21.6176 20.2505 19.6966 21.7253C17.7756 23.2 15.4217 23.9996 12.9999 24Z" fill="url(#paint0_linear_496_314)"/>
<defs>
<linearGradient id="paint0_linear_496_314" x1="1.17077" y1="23.7531" x2="26.9881" y2="20.7308" gradientUnits="userSpaceOnUse">
<stop stop-color="#1051B4"/>
<stop offset="1" stop-color="#43ACFB"/>
</linearGradient>
</defs>
</svg>
