<svg width="730" height="724" viewBox="0 0 730 724" fill="none" xmlns="http://www.w3.org/2000/svg">
<path d="M86.0473 431.525C85.7407 431.435 85.5019 431.113 85.4391 430.756L85.5647 358.816L93.1847 289.983L107.639 225.671L128.114 167.248L155.345 114.76L193.316 67.0844L235.136 31.3406L278.986 8.3519C279.085 8.29629 279.162 8.31857 279.185 8.24067L322.593 0.499206C323.022 0.454845 323.436 0.744364 323.476 1.17843C323.517 1.61249 323.227 2.03531 322.799 2.07967L279.49 9.76552L236.069 32.7099L194.493 68.1866L156.688 115.573L129.602 167.85L109.172 226.116L94.786 290.195L87.1346 358.85L87.0317 430.713C87.0718 431.147 86.706 431.547 86.2233 431.491C86.2007 431.569 86.124 431.547 86.0473 431.525Z" fill="url(#paint0_linear_45_3254)"/>
<path d="M192.503 557.004C192.426 556.981 192.349 556.959 192.272 556.937C191.934 556.67 191.818 556.213 192.008 555.846L235.459 485.601L267.681 439.971C267.703 439.893 267.802 439.838 267.924 439.704L347.298 391.476L428.907 361.3L512.491 343.779L595.788 341.55C596.216 341.506 596.608 341.873 596.649 342.307C596.689 342.741 596.323 343.142 595.894 343.186L512.751 345.46L429.442 362.892L348.108 392.978L269.033 441.04L236.933 486.537L193.504 556.703C193.184 556.948 192.809 557.093 192.503 557.004Z" fill="url(#paint1_linear_45_3254)"/>
<path d="M595.587 343.097C595.434 343.052 595.303 342.93 595.173 342.807L322.185 1.90138C321.924 1.65643 321.961 1.24465 322.128 0.955345C322.295 0.666042 322.67 0.521498 323.053 0.632933L819.407 141.201C819.791 141.312 820.007 141.713 819.97 142.124C819.857 142.514 819.514 142.837 819.108 142.803C728.916 135.002 673.269 189.705 642.417 236.916C608.971 288.189 596.739 341.996 596.603 342.463C596.513 342.774 596.291 342.964 596.016 343.053C595.894 343.186 595.741 343.141 595.587 343.097ZM324.977 2.88178L595.401 340.593C597.712 331.211 610.678 282.603 641.074 236.104C671.225 189.871 725.07 136.503 811.418 140.652L324.977 2.88178Z" fill="url(#paint2_linear_45_3254)"/>
<path d="M512.444 345.37C512.291 345.326 512.16 345.203 512.03 345.081L278.723 9.54266C278.561 9.2421 278.498 8.88594 278.742 8.61892C278.909 8.32961 279.207 8.16278 279.667 8.2965L732.696 147.168C733.079 147.279 733.296 147.68 733.259 148.092C733.146 148.481 732.802 148.804 732.396 148.77C652.331 141.885 597.079 195.521 564.852 241.741C529.9 291.9 513.673 344.291 513.514 344.837C513.424 345.148 513.202 345.337 512.85 345.404C512.674 345.437 512.521 345.393 512.444 345.37ZM281.415 10.5787L512.434 342.833C515.412 333.73 531.76 286.358 563.531 240.85C595.058 195.609 648.486 143.387 725.573 146.787L281.415 10.5787Z" fill="url(#paint3_linear_45_3254)"/>
<path d="M428.982 362.758C428.829 362.713 428.621 362.568 428.513 362.368L234.995 32.3978C234.833 32.0973 234.847 31.7634 235.091 31.4964C235.335 31.2294 235.61 31.1404 235.994 31.2519L645.697 168.427C646.08 168.538 646.296 168.939 646.26 169.351C646.147 169.74 645.803 170.063 645.397 170.029C575.383 164.039 520.546 216.527 486.967 261.679C450.433 310.702 430.264 361.779 430.106 362.324C430.015 362.636 429.717 362.803 429.465 362.814C429.212 362.825 429.059 362.78 428.982 362.758ZM237.512 33.4672L429.147 360.187C432.816 351.285 452.47 305.127 485.592 260.688C518.471 216.516 571.506 165.362 639.332 168.013L237.512 33.4672Z" fill="url(#paint4_linear_45_3254)"/>
<path d="M347.549 392.9C347.319 392.833 347.112 392.689 347.08 392.511L193.297 68.0081C193.135 67.7076 193.226 67.396 193.393 67.1067C193.637 66.8397 194.066 66.7953 194.296 66.8622L560.673 202.341C561.057 202.452 561.273 202.853 561.159 203.243C561.046 203.632 560.726 203.877 560.32 203.843C500.301 198.646 445.913 250.167 410.905 294.227C372.865 342.137 348.755 391.899 348.465 392.322C348.298 392.611 348.077 392.8 347.748 392.789C347.702 392.945 347.626 392.922 347.549 392.9ZM195.561 69.0885L347.791 390.352C352.127 381.728 375.163 336.807 409.638 293.436C443.869 250.333 496.487 200.325 554.998 202.127L195.561 69.0885Z" fill="url(#paint5_linear_45_3254)"/>
<path d="M269.888 434.953C269.658 434.886 269.473 434.663 269.365 434.463L155.317 115.428C155.232 115.15 155.245 114.816 155.489 114.549C155.711 114.36 156.063 114.293 156.369 114.382L479.399 248.243C479.759 248.432 479.975 248.833 479.862 249.222C479.749 249.612 479.428 249.856 479.022 249.823C383.3 241.597 271.884 432.661 270.736 434.608C270.569 434.897 270.271 435.064 269.964 434.975C269.964 434.975 269.964 434.975 269.888 434.953ZM157.481 116.564L270.328 432.293C275.377 423.792 301.772 380.185 337.577 337.961C373.138 296.005 425.286 247.043 474.558 248.018L157.481 116.564Z" fill="url(#paint6_linear_45_3254)"/>
<path d="M202.945 481.895C202.638 481.805 202.453 481.583 202.368 481.304L128.131 167.76C128.046 167.482 128.137 167.17 128.38 166.903C128.602 166.714 128.954 166.648 129.238 166.815L408.941 298.979C409.302 299.168 409.442 299.546 409.328 299.936C409.215 300.325 408.894 300.57 408.489 300.537C331.924 293.909 204.995 479.703 203.717 481.528C203.549 481.817 203.197 481.884 202.945 481.895C203.021 481.917 203.021 481.917 202.945 481.895ZM130.097 169.007L203.584 479.124C209.345 470.745 239.1 428.453 276.158 387.354C329.305 328.376 372.544 298.62 404.683 298.754L130.097 169.007Z" fill="url(#paint7_linear_45_3254)"/>
<path d="M142.758 534.771C142.451 534.682 142.189 534.437 142.203 534.103L107.625 226.004C107.616 225.748 107.707 225.437 108.005 225.27C108.226 225.081 108.555 225.092 108.839 225.259L345.217 355.727C345.578 355.916 345.718 356.295 345.604 356.684C345.491 357.074 345.171 357.318 344.765 357.285C287.412 352.356 145.016 532.724 143.561 534.582C143.362 534.693 143.064 534.86 142.758 534.771ZM109.392 227.363L143.496 531.945C158.075 513.542 283.78 357.129 341.541 355.503L109.392 227.363Z" fill="url(#paint8_linear_45_3254)"/>
<path d="M88.537 593.437C88.1537 593.326 87.915 593.003 87.9289 592.669L93.1621 290.06C93.176 289.727 93.3206 289.515 93.6185 289.348C93.9165 289.181 94.2231 289.271 94.4305 289.415L287.56 418.209C287.844 418.376 287.96 418.832 287.87 419.144C287.779 419.456 287.382 419.678 287.053 419.667C248.935 416.359 90.9484 591.435 89.3629 593.17C89.119 593.437 88.8437 593.526 88.537 593.437ZM94.7844 291.63L89.6049 590.622C106.137 572.364 243.384 422.01 284.496 418.163L94.7844 291.63Z" fill="url(#paint9_linear_45_3254)"/>
<path d="M41.1281 656.702C41.0515 656.68 41.0515 656.68 40.9748 656.658C40.6908 656.491 40.5287 656.19 40.5426 655.856L85.5647 358.816C85.6553 358.504 85.7999 358.293 86.0752 358.204C86.3504 358.115 86.6798 358.126 86.8645 358.349L236.668 485.446C236.929 485.691 236.992 486.047 236.902 486.359C236.811 486.67 236.414 486.893 236.084 486.882C220.986 485.618 102.459 597.315 41.9088 656.591C41.7101 656.702 41.4348 656.791 41.1281 656.702ZM86.9344 360.396L42.4939 653.72C61.0787 635.552 208.41 492.269 234.187 485.401L86.9344 360.396Z" fill="url(#paint10_linear_45_3254)"/>
<path d="M1.26777 723.175C1.1911 723.153 1.11443 723.131 1.03776 723.108C0.753726 722.941 0.614291 722.563 0.727519 722.173L85.5071 430.523C85.5977 430.211 85.8189 430.022 86.0942 429.933C86.3695 429.844 86.6762 429.933 86.8609 430.156L193.316 555.635C193.447 555.757 193.532 556.036 193.487 556.192C193.496 556.448 193.374 556.581 193.229 556.792L1.99435 722.964C1.84974 723.175 1.49778 723.242 1.26777 723.175ZM86.6102 432.449L3.03079 719.97L191.588 556.146L86.6102 432.449Z" fill="url(#paint11_linear_45_3254)"/>
<defs>
<linearGradient id="paint0_linear_45_3254" x1="13.6325" y1="655.923" x2="664.267" y2="777.647" gradientUnits="userSpaceOnUse">
<stop stop-color="#1051B4"/>
<stop offset="1" stop-color="#43ACFB"/>
</linearGradient>
<linearGradient id="paint1_linear_45_3254" x1="13.6325" y1="655.923" x2="664.267" y2="777.647" gradientUnits="userSpaceOnUse">
<stop stop-color="#1051B4"/>
<stop offset="1" stop-color="#43ACFB"/>
</linearGradient>
<linearGradient id="paint2_linear_45_3254" x1="13.6325" y1="655.923" x2="664.267" y2="777.647" gradientUnits="userSpaceOnUse">
<stop stop-color="#1051B4"/>
<stop offset="1" stop-color="#43ACFB"/>
</linearGradient>
<linearGradient id="paint3_linear_45_3254" x1="13.6325" y1="655.923" x2="664.267" y2="777.647" gradientUnits="userSpaceOnUse">
<stop stop-color="#1051B4"/>
<stop offset="1" stop-color="#43ACFB"/>
</linearGradient>
<linearGradient id="paint4_linear_45_3254" x1="13.6325" y1="655.923" x2="664.267" y2="777.647" gradientUnits="userSpaceOnUse">
<stop stop-color="#1051B4"/>
<stop offset="1" stop-color="#43ACFB"/>
</linearGradient>
<linearGradient id="paint5_linear_45_3254" x1="13.6325" y1="655.923" x2="664.267" y2="777.647" gradientUnits="userSpaceOnUse">
<stop stop-color="#1051B4"/>
<stop offset="1" stop-color="#43ACFB"/>
</linearGradient>
<linearGradient id="paint6_linear_45_3254" x1="13.6325" y1="655.923" x2="664.267" y2="777.647" gradientUnits="userSpaceOnUse">
<stop stop-color="#1051B4"/>
<stop offset="1" stop-color="#43ACFB"/>
</linearGradient>
<linearGradient id="paint7_linear_45_3254" x1="13.6325" y1="655.923" x2="664.267" y2="777.647" gradientUnits="userSpaceOnUse">
<stop stop-color="#1051B4"/>
<stop offset="1" stop-color="#43ACFB"/>
</linearGradient>
<linearGradient id="paint8_linear_45_3254" x1="13.6325" y1="655.923" x2="664.267" y2="777.647" gradientUnits="userSpaceOnUse">
<stop stop-color="#1051B4"/>
<stop offset="1" stop-color="#43ACFB"/>
</linearGradient>
<linearGradient id="paint9_linear_45_3254" x1="13.6325" y1="655.923" x2="664.267" y2="777.647" gradientUnits="userSpaceOnUse">
<stop stop-color="#1051B4"/>
<stop offset="1" stop-color="#43ACFB"/>
</linearGradient>
<linearGradient id="paint10_linear_45_3254" x1="13.6325" y1="655.923" x2="664.267" y2="777.647" gradientUnits="userSpaceOnUse">
<stop stop-color="#1051B4"/>
<stop offset="1" stop-color="#43ACFB"/>
</linearGradient>
<linearGradient id="paint11_linear_45_3254" x1="13.6325" y1="655.923" x2="664.267" y2="777.647" gradientUnits="userSpaceOnUse">
<stop stop-color="#1051B4"/>
<stop offset="1" stop-color="#43ACFB"/>
</linearGradient>
</defs>
</svg>
