<svg width="48" height="56" viewBox="0 0 48 56" fill="none" xmlns="http://www.w3.org/2000/svg">
<path d="M44.8812 23.7267L8.5111 1.48006C7.74837 1.01508 6.87593 0.760802 5.98282 0.743171C5.08971 0.72554 4.20791 0.945193 3.42742 1.37971C2.64694 1.81422 1.99571 2.44804 1.54022 3.21647C1.08473 3.98491 0.841278 4.86044 0.834717 5.7537V50.2469C0.841278 51.1402 1.08473 52.0157 1.54022 52.7842C1.99571 53.5526 2.64694 54.1864 3.42742 54.6209C4.20791 55.0555 5.08971 55.2751 5.98282 55.2575C6.87593 55.2398 7.74837 54.9856 8.5111 54.5206L44.8812 32.274C45.6145 31.8275 46.2207 31.1999 46.6413 30.4514C47.0619 29.703 47.2829 28.8589 47.2829 28.0003C47.2829 27.1418 47.0619 26.2977 46.6413 25.5492C46.2207 24.8007 45.6145 24.1731 44.8812 23.7267ZM6.89303 48.4093V7.59139L40.2541 28.0003L6.89303 48.4093Z" fill="url(#paint0_linear_504_26)"/>
<defs>
<linearGradient id="paint0_linear_504_26" x1="2.9317" y1="50.5472" x2="49.2295" y2="45.9291" gradientUnits="userSpaceOnUse">
<stop stop-color="#1051B4"/>
<stop offset="1" stop-color="#43ACFB"/>
</linearGradient>
</defs>
</svg>
