<svg width="686" height="622" viewBox="0 0 686 622" fill="none" xmlns="http://www.w3.org/2000/svg">
<g opacity="0.8">
<path d="M177.927 1.39166C184.835 0.679743 191.865 0.240038 198.993 0.0860953C261.388 -1.31162 323.319 18.8201 368.903 55.3105L591.946 233.859C637.529 270.349 670.169 325.933 681.515 386.351C687.206 416.672 687.17 446.161 681.401 473.975C675.261 503.58 662.868 529.822 644.575 551.982C626.281 574.131 602.701 591.428 574.513 603.383C548.031 614.616 518.725 620.664 487.401 621.364C425.006 622.762 363.075 602.63 317.491 566.14L94.4479 387.591C48.8642 351.101 16.2254 295.518 4.87854 235.099C-0.812169 204.778 -0.776006 175.289 4.99314 147.476C11.1326 117.871 23.5257 91.6284 41.8188 69.4683C60.1131 47.3196 83.693 30.0223 111.881 18.0674C132.338 9.39079 154.478 3.80793 177.927 1.39166ZM368.184 56.1814C278.981 -15.2259 120.844 -24.408 42.7248 70.1833C7.19487 113.199 -5.84006 171.69 6.0131 234.891C17.2989 295.054 49.7969 350.39 95.179 386.719L318.209 565.258C407.41 636.654 565.536 645.837 643.668 551.256C721.799 456.663 680.416 306.127 591.215 234.731L368.184 56.1814Z" fill="url(#paint0_linear_42_572)"/>
<path d="M586.47 230.188C609.123 248.323 627.662 271.184 641.688 296.343C655.716 321.536 665.344 349.118 670.028 377.517C674.686 405.896 674.376 435.196 668.018 463.355C664.844 477.422 660.132 491.159 653.869 504.19C647.605 517.222 639.777 529.537 630.538 540.735C621.276 551.924 610.637 561.979 598.955 570.674C587.274 579.368 574.565 586.723 561.233 592.639C534.528 604.509 505.454 610.784 476.283 612.082C447.088 613.36 417.696 609.706 389.782 601.324C361.891 592.939 335.376 579.734 312.734 561.598C335.428 579.683 361.949 592.831 389.835 601.17C417.745 609.508 447.119 613.106 476.276 611.787C505.407 610.447 534.431 604.132 561.054 592.247C574.36 586.311 587.013 578.963 598.66 570.272C610.295 561.582 620.888 551.531 630.107 540.37C639.328 529.219 647.162 516.96 653.429 503.962C659.698 490.976 664.424 477.272 667.613 463.237C674.002 435.155 674.362 405.895 669.752 377.534C665.118 349.164 655.548 321.588 641.565 296.39C627.585 271.215 609.09 248.337 586.467 230.166L586.47 230.188Z" fill="url(#paint1_linear_42_572)"/>
<path d="M86.0852 379.13C65.7499 359.595 49.4177 336.165 37.3874 310.846C25.3547 285.504 17.5576 258.189 14.5716 230.332C11.5993 202.497 13.4972 174.023 21.2673 147.005C28.971 120.017 42.7541 94.5876 61.9484 73.769C81.0797 52.9002 105.253 36.7598 131.587 26.1115C157.94 15.4158 186.337 9.98501 214.755 9.23111C243.185 8.48731 271.723 12.3884 298.829 20.7745C325.9 29.1754 351.629 42.1545 373.679 59.8159C351.589 42.2156 325.844 29.2951 298.776 20.9393C271.676 12.5982 243.153 8.74104 214.762 9.52635C186.384 10.3218 158.036 15.7929 131.755 26.5041C105.492 37.1678 81.3984 53.3 62.3678 74.1358C52.8375 84.5211 44.5546 96.0186 37.7523 108.309C30.9385 120.6 25.5912 133.662 21.7066 147.119C13.917 174.06 11.9677 202.482 14.8908 230.288C17.8276 258.115 25.5764 285.413 37.5519 310.76C49.5364 336.085 65.8241 359.531 86.1275 379.091L86.0852 379.13Z" fill="url(#paint2_linear_42_572)"/>
<path d="M573.795 220.042C595.03 237.093 611.518 259.448 623.005 283.867C634.519 308.329 641.18 334.942 643.11 361.86C645.028 388.779 642.164 416.066 634.326 441.975C626.522 467.881 613.621 492.331 596.322 513.365C578.934 534.327 557.239 551.749 533.081 564.552C508.914 577.391 482.364 585.716 455.203 589.357C428.053 592.986 400.229 591.982 373.545 585.887C346.919 579.796 321.337 568.464 300.039 551.477C321.367 568.416 346.966 579.689 373.576 585.736C400.244 591.787 428.039 592.737 455.15 589.067C482.26 585.385 508.772 577.018 532.857 564.177C556.956 551.357 578.559 533.944 595.869 513.013C613.154 492.061 626.063 467.689 633.897 441.849C641.765 416.004 644.668 388.759 642.8 361.88C640.92 335.003 634.306 308.397 622.85 283.94C611.409 259.516 594.979 237.155 573.774 220.067L573.795 220.042Z" fill="url(#paint3_linear_42_572)"/>
<path d="M100.475 390.659C81.6098 372.043 67.3899 349.146 57.8021 324.646C48.2212 300.098 43.1829 273.865 42.6908 247.55C42.1987 221.235 46.3167 194.787 55.1608 169.89C63.9705 144.996 77.6296 121.731 95.4093 101.992C113.151 82.2222 134.838 65.9623 158.735 54.0966C182.627 42.1859 208.708 34.6829 235.242 31.5844C261.779 28.5084 288.873 29.8376 314.828 36.0313C340.735 42.2184 365.597 53.4084 386.345 69.9858C365.546 53.4706 340.678 42.338 314.787 36.1947C288.848 30.0449 261.77 28.7597 235.272 31.8773C208.776 35.006 182.756 42.5369 158.924 54.4755C135.087 66.3578 113.492 82.6083 95.8286 102.358C78.1016 122.046 64.4088 145.212 55.5807 170.04C46.7183 194.871 42.5603 221.267 43.0032 247.552C43.446 273.838 48.4361 300.054 57.9701 324.594C67.4995 349.09 81.6749 372.002 100.508 390.644L100.475 390.659Z" fill="url(#paint4_linear_42_572)"/>
<path d="M560.789 209.6C570.717 217.547 579.303 227.056 586.439 237.523C593.575 247.989 599.326 259.373 603.638 271.269C612.264 295.072 615.711 320.558 614.892 345.813C614.484 358.457 612.985 371.066 610.448 383.463C607.912 395.871 604.397 408.095 599.836 419.926C590.754 443.63 577.785 465.857 561.635 485.587C545.308 505.177 525.839 522.21 504.131 535.797C493.284 542.606 481.845 548.487 470.034 553.461C458.213 558.435 445.98 562.451 433.501 565.422C408.554 571.362 382.507 573.238 357.077 569.779C344.379 568.048 331.875 564.828 320.011 560.086C308.159 555.342 296.94 549.007 287.012 541.059C297.052 548.859 308.314 555.052 320.176 559.67C332.049 564.275 344.527 567.35 357.188 568.948C382.518 572.223 408.413 570.215 433.175 564.169C457.943 558.065 481.743 548.065 503.282 534.518C524.822 520.983 544.125 504.024 560.29 484.542C576.365 464.978 589.294 442.927 598.361 419.407C607.439 395.885 612.53 370.908 613.548 345.792C614.511 320.694 611.237 295.314 602.803 271.582C598.632 259.706 593.03 248.307 586.029 237.804C579.028 227.301 570.562 217.723 560.727 209.674L560.789 209.6Z" fill="url(#paint5_linear_42_572)"/>
<path d="M115.22 402.504C106.518 393.668 99.1566 383.589 93.1311 372.791C87.0712 361.997 82.4378 350.465 79.0076 338.603C72.2009 314.84 70.1331 289.838 72.0929 265.217C74.0389 240.575 80.1576 216.265 89.8387 193.433C99.5324 170.611 112.831 149.228 129.356 130.551C137.594 121.198 146.554 112.466 156.145 104.465C165.75 96.4851 176.039 89.3117 186.8 82.9092C208.316 70.1504 231.842 60.6226 256.342 55.1723C268.579 52.4313 281.061 50.724 293.587 50.1163C306.113 49.5086 318.697 50.0219 331.096 51.8862C343.474 53.7642 355.663 56.9592 367.234 61.6639C378.792 66.3584 389.734 72.5852 399.425 80.3636L399.342 80.4632C389.582 72.7943 378.607 66.6962 367.04 62.1392C355.461 57.5721 343.296 54.511 330.967 52.7647C306.26 49.2543 280.931 50.9196 256.648 56.4613C232.348 62.0617 208.978 71.5167 187.62 84.2477C176.948 90.6182 166.749 97.7597 157.21 105.71C147.696 113.668 138.823 122.358 130.66 131.658C97.8262 168.749 77.6592 216.363 73.4807 265.336C71.3892 289.799 73.2829 314.683 79.9191 338.361C83.1971 350.204 87.692 361.74 93.6157 372.559C99.5052 383.382 106.745 393.508 115.34 402.435L115.22 402.504Z" fill="url(#paint6_linear_42_572)"/>
<path d="M500.608 161.362C502.506 162.84 503.585 165.12 504.1 167.423C504.616 169.738 504.699 172.12 504.595 174.476C504.33 179.193 503.374 183.823 502.178 188.374C499.74 197.471 496.335 206.269 492.611 214.895C485.01 232.105 475.952 248.646 466.237 264.754C446.749 296.975 424.461 327.482 400.515 356.599C376.432 385.617 350.641 413.308 322.586 438.671C308.55 451.331 293.948 463.423 278.384 474.259C270.566 479.618 262.512 484.694 253.962 488.888C249.691 490.967 245.273 492.846 240.634 494.052C238.313 494.633 235.926 495.027 233.52 495.013C231.137 494.997 228.638 494.423 226.781 492.884L226.894 492.747C228.783 494.146 231.207 494.557 233.521 494.467C235.857 494.362 238.151 493.853 240.394 493.178C244.875 491.794 249.144 489.806 253.284 487.58C261.551 483.108 269.325 477.777 276.861 472.162C291.948 460.953 306.113 448.542 319.831 435.722C333.497 422.839 346.735 409.51 359.475 395.72C372.254 381.972 384.625 367.856 396.53 353.367C408.497 338.928 420.024 324.136 431.09 309.017C442.204 293.926 452.759 278.449 462.783 262.651C472.734 246.815 482.189 230.643 490.256 213.805C494.303 205.397 498.02 196.817 500.781 187.938C502.15 183.505 503.256 178.974 503.718 174.373C503.943 172.073 503.982 169.758 503.598 167.486C503.227 165.236 502.314 162.997 500.537 161.45L500.608 161.362Z" fill="url(#paint7_linear_42_572)"/>
<path d="M183.423 457.246C182.35 455.137 181.933 452.766 181.797 450.435C181.659 448.093 181.799 445.745 182.08 443.428C182.689 438.789 183.792 434.235 185.111 429.762C187.772 420.813 191.259 412.132 195.051 403.613C202.779 386.617 211.833 370.259 221.554 354.321C231.261 338.362 241.76 322.902 252.657 307.72C263.654 292.607 275.099 277.813 287.049 263.421C310.987 234.68 336.622 207.267 364.482 182.14C378.414 169.594 392.912 157.615 408.371 146.881C416.136 141.573 424.125 136.537 432.608 132.373C436.846 130.309 441.233 128.456 445.85 127.263C448.161 126.695 450.536 126.291 452.931 126.317C455.304 126.346 457.802 126.92 459.671 128.457L459.435 128.744C457.583 127.375 455.217 126.958 452.936 127.034C450.633 127.123 448.349 127.621 446.14 128.281C441.702 129.637 437.452 131.589 433.355 133.788C425.151 138.196 417.418 143.467 409.943 149.007C394.948 160.092 380.885 172.379 367.257 185.065C353.682 197.813 340.537 211.041 327.874 224.675C315.199 238.31 302.881 252.273 291.055 266.629C279.191 280.954 267.681 295.573 256.707 310.57C245.646 325.507 235.134 340.832 225.126 356.458C220.141 364.28 215.317 372.211 210.7 380.245C206.072 388.281 201.652 396.432 197.584 404.741C193.491 413.04 189.692 421.492 186.72 430.234C185.239 434.598 183.975 439.043 183.192 443.563C182.801 445.824 182.539 448.105 182.544 450.392C182.547 452.669 182.831 454.973 183.764 457.074L183.423 457.246Z" fill="url(#paint8_linear_42_572)"/>
<path d="M524.411 180.437C528.569 183.663 531.957 187.822 534.532 192.395C537.077 197.005 538.85 201.99 540.081 207.089C542.498 217.313 542.862 227.908 542.205 238.358C541.49 248.814 539.693 259.188 537.24 269.379C534.776 279.571 531.647 289.593 528.015 299.439C520.762 319.141 511.38 338.026 500.668 356.126C489.907 374.197 477.693 391.416 464.307 407.686C450.847 423.906 436.227 439.199 420.451 453.245C404.646 467.248 387.768 480.143 369.656 491.162C360.606 496.671 351.278 501.731 341.646 506.184C332.012 510.626 322.073 514.462 311.81 517.296C301.553 520.06 290.941 521.859 280.282 521.626C274.961 521.48 269.641 520.787 264.538 519.275C259.454 517.727 254.639 515.309 250.583 511.959L250.665 511.859C254.831 515.05 259.683 517.26 264.745 518.594C267.276 519.255 269.856 519.729 272.456 520.053C275.065 520.353 277.678 520.471 280.303 520.485C290.806 520.439 301.217 518.376 311.254 515.372C331.396 509.358 350.273 499.717 368.002 488.567C385.696 477.306 402.377 464.522 417.888 450.48C433.438 436.47 447.91 421.317 461.195 405.195C474.508 389.115 486.635 372.064 497.396 354.221C508.196 336.407 517.505 317.712 525.096 298.374C532.568 279.013 538.306 258.853 540.179 238.214C541.119 227.929 541.035 217.475 538.951 207.342C538.401 204.814 537.751 202.32 536.921 199.867C536.079 197.426 535.082 195.036 533.897 192.733C531.539 188.138 528.351 183.902 524.328 180.537L524.411 180.437Z" fill="url(#paint9_linear_42_572)"/>
<path d="M156.456 435.617C153.134 431.645 150.66 427.039 148.788 422.223C147.801 419.832 147.173 417.324 146.454 414.836C145.94 412.316 145.299 409.798 145.012 407.232C143.484 397.008 143.719 386.612 144.813 376.357C147.159 355.828 152.96 335.832 160.445 316.596C164.192 306.966 168.457 297.533 173.099 288.289C177.778 279.064 182.835 270.028 188.211 261.175C193.588 252.322 199.396 243.732 205.453 235.321C211.486 226.89 217.905 218.737 224.564 210.777C237.959 194.927 252.463 179.966 268.124 166.262C283.788 152.581 300.489 139.988 318.389 129.264C327.325 123.881 336.551 118.957 346.058 114.63C355.567 110.326 365.377 106.572 375.502 103.867C385.621 101.219 396.078 99.4922 406.583 99.7985C409.204 99.8813 411.819 100.124 414.422 100.482C417.017 100.875 419.584 101.442 422.089 102.196C427.091 103.73 431.836 106.144 435.851 109.43L435.666 109.654C431.575 106.524 426.827 104.315 421.847 102.984C419.362 102.318 416.826 101.828 414.272 101.499C411.71 101.205 409.138 101.038 406.558 101.019C396.221 100.991 385.974 102.958 376.062 105.824C366.142 108.724 356.5 112.53 347.164 116.952C337.829 121.375 328.775 126.395 320.021 131.862C302.515 142.819 286.038 155.343 270.642 169.042C255.245 182.741 240.864 197.542 227.645 213.305L225.177 216.269L222.758 219.273C221.15 221.283 219.503 223.252 217.933 225.292L213.234 231.4C211.663 233.429 210.192 235.538 208.659 237.597C202.638 245.913 196.855 254.41 191.502 263.158C186.101 271.877 181.007 280.78 176.292 289.884C171.626 299.005 167.324 308.305 163.42 317.758C155.683 336.679 149.61 356.384 146.943 376.615C145.579 386.706 145.063 396.959 146.291 407.078C146.506 409.617 147.062 412.098 147.506 414.614C148.141 417.076 148.699 419.568 149.603 421.946C151.254 426.75 153.535 431.388 156.683 435.458L156.456 435.617Z" fill="url(#paint10_linear_42_572)"/>
<path d="M544.32 196.395C553.394 203.691 560.944 212.897 566.219 223.259C571.593 233.565 575.306 244.692 577.532 256.086C581.886 278.929 581.045 302.512 576.994 325.356C574.959 336.791 572.065 348.086 568.407 359.141C564.712 370.177 560.3 380.98 555.255 391.484C545.228 412.53 532.393 432.238 517.627 450.369C502.609 468.298 485.628 484.688 466.744 498.644C457.328 505.648 447.497 512.102 437.264 517.915C427.028 523.694 416.386 528.787 405.419 533.082C383.528 541.644 360.248 547.265 336.644 547.728C324.86 547.906 313.038 546.597 301.693 543.52C290.312 540.549 279.618 535.15 270.512 527.892L270.574 527.817L274.13 530.354C274.728 530.77 275.305 531.212 275.913 531.616L277.796 532.731C279.051 533.467 280.297 534.226 281.561 534.939L285.493 536.856C286.149 537.164 286.797 537.507 287.463 537.803L289.489 538.618L293.55 540.226L297.721 541.55L299.801 542.212C300.502 542.401 301.213 542.567 301.924 542.733C313.235 545.597 324.964 546.677 336.625 546.307C359.992 545.572 383 539.775 404.597 531.049C415.403 526.657 425.891 521.523 436.028 515.789C446.135 510 455.865 503.567 465.169 496.598C483.828 482.699 500.587 466.4 515.398 448.595C530.095 430.687 542.885 411.212 552.889 390.396C557.922 380.007 562.335 369.318 566.03 358.396C569.665 347.457 572.631 336.302 574.795 324.991C579.067 302.397 580.129 279.042 576.105 256.37C574.106 245.055 570.628 233.961 565.474 223.654C565.153 223.004 564.854 222.352 564.523 221.715L563.44 219.845L561.273 216.096L558.835 212.511L557.61 210.724C557.18 210.142 556.707 209.588 556.267 209.018L553.559 205.62C552.593 204.547 551.583 203.501 550.595 202.442L549.103 200.854C548.577 200.351 548.031 199.883 547.484 199.393L544.236 196.483L544.32 196.395Z" fill="url(#paint11_linear_42_572)"/>
<path d="M133.887 417.509C126.136 409.155 119.991 399.326 115.825 388.735C111.581 378.176 108.759 367.06 107.331 355.777C104.493 333.176 106.249 310.17 111.02 287.924C113.398 276.784 116.614 265.82 120.516 255.104C124.404 244.378 128.965 233.89 134.195 223.732C144.656 203.426 157.392 184.207 172.412 166.858C176.086 162.461 180.063 158.317 183.977 154.123L190.066 148.031C192.087 145.99 194.25 144.094 196.336 142.126C204.807 134.365 213.681 127.03 223.009 120.297C241.709 106.907 261.969 95.5296 283.561 87.328C294.353 83.2447 305.443 79.9161 316.747 77.5445C328.053 75.1955 339.577 73.7235 351.135 73.7051C362.681 73.6878 374.261 74.9992 385.365 78.0898C396.475 81.1343 406.96 86.4062 415.891 93.5344L415.757 93.6962L412.276 91.2089L410.541 89.9647L408.705 88.8674L405.024 86.6854L399.254 83.8647C398.599 83.5679 397.927 83.3298 397.275 83.0555L393.297 81.4731C391.963 80.9845 390.582 80.5918 389.23 80.1505C387.869 79.7329 386.523 79.2341 385.118 78.9463C374.059 76.0673 362.57 74.9629 351.136 75.1735C339.7 75.3616 328.298 76.9006 317.13 79.3493C305.95 81.8105 294.997 85.2275 284.35 89.3755C263.079 97.783 243.015 109.037 224.542 122.382C215.314 129.082 206.552 136.383 198.181 144.098C196.117 146.064 193.988 147.946 191.989 149.973L185.978 156.034C182.118 160.2 178.184 164.316 174.566 168.685C144.945 203.089 123.233 244.34 113.232 288.413C108.262 310.407 106.274 333.186 108.826 355.6C110.039 366.803 112.623 377.863 116.647 388.412L117.394 390.395C117.67 391.05 117.967 391.691 118.253 392.333L119.98 396.196C120.597 397.465 121.291 398.703 121.94 399.956C122.589 401.21 123.239 402.463 124.02 403.647L126.242 407.265C127.023 408.449 127.879 409.578 128.692 410.735L129.934 412.463C130.362 413.034 130.832 413.555 131.282 414.112L134.012 417.382L133.887 417.509Z" fill="url(#paint12_linear_42_572)"/>
<path d="M205.819 476.022L214.104 465.446L239.164 433.903L255.987 412.953L272.885 392.064L306.822 350.419L340.984 308.944C363.827 281.352 386.733 253.81 409.815 226.409C432.86 198.978 456.106 171.709 479.553 144.6L480.561 145.407C458.399 173.544 436.009 201.5 413.431 229.304C390.891 257.138 368.174 284.831 345.394 312.474L311.118 353.858L276.627 395.059L259.3 415.605L241.898 436.091L215.641 466.676L206.814 476.818L205.819 476.022Z" fill="url(#paint13_linear_42_572)"/>
<path d="M142.927 20.2757C155.601 18.9697 168.952 18.7437 182.883 19.6533C241.013 23.4194 300.485 46.5025 346.044 82.9727L569.087 261.521C614.658 298.001 649.731 350.613 665.33 405.858C681.747 463.989 674.366 515.876 644.561 551.961C614.756 588.046 564.652 605.742 503.508 601.775C445.378 598.008 385.906 574.925 340.347 538.455L117.304 359.907C71.7331 323.426 36.6607 270.815 21.0613 215.57C4.64411 157.439 12.0249 105.552 41.8301 69.4672C64.8418 41.6071 99.9644 24.7028 142.927 20.2757ZM543.338 600.038C586.003 595.642 620.841 578.892 643.668 551.256C673.237 515.457 680.527 463.933 664.229 406.165C648.686 351.131 613.751 298.732 568.356 262.393L345.313 83.8448C299.931 47.5159 240.687 24.523 182.79 20.7671C122.018 16.8291 72.2695 34.3756 42.7006 70.1745C13.1317 105.973 5.84083 157.497 22.1396 215.265C37.6827 270.299 72.6176 322.698 118.012 359.037L341.055 537.585C386.437 573.914 445.681 596.907 503.579 600.663C517.45 601.556 530.733 601.337 543.338 600.038Z" fill="url(#paint14_linear_42_572)"/>
<path d="M80.1216 51.7922C98.6519 49.8828 121.911 52.9161 148.901 60.9725C198.002 75.6188 252.279 104.929 297.812 141.379L520.855 319.928C566.389 356.378 606.605 402.711 631.184 447.046C657.097 493.783 661.851 531.054 644.563 551.972C627.275 572.901 589.254 575.92 537.493 560.477C488.392 545.831 434.115 516.521 388.582 480.071L165.539 301.522C120.005 265.072 79.7884 218.739 55.2097 174.404C29.297 127.667 24.5432 90.3964 41.8314 69.4783C50.0935 59.4628 63.1242 53.5437 80.1216 51.7922ZM297.083 142.263C251.663 105.904 197.532 76.669 148.563 62.0662C97.2791 46.7684 59.6829 49.6519 42.7145 70.1956C25.7461 90.7391 30.5463 127.561 56.2182 173.868C80.7269 218.085 120.838 264.292 166.258 300.651L389.301 479.2C434.721 515.559 488.851 544.793 537.821 559.396C589.105 574.694 626.7 571.811 643.669 551.267C660.637 530.723 655.837 493.901 630.166 447.595C605.657 403.378 565.545 357.171 520.126 320.811L297.083 142.263Z" fill="url(#paint15_linear_42_572)"/>
<path d="M643.786 552.04L644.513 551.16L42.6752 69.3811L41.9484 70.2609L643.786 552.04Z" fill="url(#paint16_linear_42_572)"/>
</g>
<defs>
<linearGradient id="paint0_linear_42_572" x1="613.983" y1="12.8667" x2="-29.0625" y2="157.346" gradientUnits="userSpaceOnUse">
<stop stop-color="#1051B4"/>
<stop offset="1" stop-color="#43ACFB"/>
</linearGradient>
<linearGradient id="paint1_linear_42_572" x1="613.983" y1="12.8667" x2="-29.0625" y2="157.346" gradientUnits="userSpaceOnUse">
<stop stop-color="#1051B4"/>
<stop offset="1" stop-color="#43ACFB"/>
</linearGradient>
<linearGradient id="paint2_linear_42_572" x1="613.983" y1="12.8667" x2="-29.0625" y2="157.346" gradientUnits="userSpaceOnUse">
<stop stop-color="#1051B4"/>
<stop offset="1" stop-color="#43ACFB"/>
</linearGradient>
<linearGradient id="paint3_linear_42_572" x1="613.983" y1="12.8667" x2="-29.0625" y2="157.346" gradientUnits="userSpaceOnUse">
<stop stop-color="#1051B4"/>
<stop offset="1" stop-color="#43ACFB"/>
</linearGradient>
<linearGradient id="paint4_linear_42_572" x1="613.983" y1="12.8667" x2="-29.0625" y2="157.346" gradientUnits="userSpaceOnUse">
<stop stop-color="#1051B4"/>
<stop offset="1" stop-color="#43ACFB"/>
</linearGradient>
<linearGradient id="paint5_linear_42_572" x1="613.983" y1="12.8667" x2="-29.0625" y2="157.346" gradientUnits="userSpaceOnUse">
<stop stop-color="#1051B4"/>
<stop offset="1" stop-color="#43ACFB"/>
</linearGradient>
<linearGradient id="paint6_linear_42_572" x1="613.983" y1="12.8667" x2="-29.0625" y2="157.346" gradientUnits="userSpaceOnUse">
<stop stop-color="#1051B4"/>
<stop offset="1" stop-color="#43ACFB"/>
</linearGradient>
<linearGradient id="paint7_linear_42_572" x1="613.983" y1="12.8667" x2="-29.0625" y2="157.346" gradientUnits="userSpaceOnUse">
<stop stop-color="#1051B4"/>
<stop offset="1" stop-color="#43ACFB"/>
</linearGradient>
<linearGradient id="paint8_linear_42_572" x1="613.983" y1="12.8667" x2="-29.0625" y2="157.346" gradientUnits="userSpaceOnUse">
<stop stop-color="#1051B4"/>
<stop offset="1" stop-color="#43ACFB"/>
</linearGradient>
<linearGradient id="paint9_linear_42_572" x1="613.983" y1="12.8667" x2="-29.0625" y2="157.346" gradientUnits="userSpaceOnUse">
<stop stop-color="#1051B4"/>
<stop offset="1" stop-color="#43ACFB"/>
</linearGradient>
<linearGradient id="paint10_linear_42_572" x1="613.983" y1="12.8667" x2="-29.0625" y2="157.346" gradientUnits="userSpaceOnUse">
<stop stop-color="#1051B4"/>
<stop offset="1" stop-color="#43ACFB"/>
</linearGradient>
<linearGradient id="paint11_linear_42_572" x1="613.983" y1="12.8667" x2="-29.0625" y2="157.346" gradientUnits="userSpaceOnUse">
<stop stop-color="#1051B4"/>
<stop offset="1" stop-color="#43ACFB"/>
</linearGradient>
<linearGradient id="paint12_linear_42_572" x1="613.983" y1="12.8667" x2="-29.0625" y2="157.346" gradientUnits="userSpaceOnUse">
<stop stop-color="#1051B4"/>
<stop offset="1" stop-color="#43ACFB"/>
</linearGradient>
<linearGradient id="paint13_linear_42_572" x1="613.983" y1="12.8667" x2="-29.0625" y2="157.346" gradientUnits="userSpaceOnUse">
<stop stop-color="#1051B4"/>
<stop offset="1" stop-color="#43ACFB"/>
</linearGradient>
<linearGradient id="paint14_linear_42_572" x1="613.983" y1="12.8667" x2="-29.0625" y2="157.346" gradientUnits="userSpaceOnUse">
<stop stop-color="#1051B4"/>
<stop offset="1" stop-color="#43ACFB"/>
</linearGradient>
<linearGradient id="paint15_linear_42_572" x1="613.983" y1="12.8667" x2="-29.0625" y2="157.346" gradientUnits="userSpaceOnUse">
<stop stop-color="#1051B4"/>
<stop offset="1" stop-color="#43ACFB"/>
</linearGradient>
<linearGradient id="paint16_linear_42_572" x1="613.983" y1="12.8667" x2="-29.0625" y2="157.346" gradientUnits="userSpaceOnUse">
<stop stop-color="#1051B4"/>
<stop offset="1" stop-color="#43ACFB"/>
</linearGradient>
</defs>
</svg>
