<svg width="241" height="237" viewBox="0 0 241 237" fill="none" xmlns="http://www.w3.org/2000/svg">
<path d="M122.891 237L122.546 207.536L122.345 178.075L122.179 119.151L122.345 60.2263L122.546 30.7661L122.891 1.30169L123.241 30.7661L123.442 60.2263L123.604 119.151L123.438 178.075L123.241 207.536L122.891 237Z" fill="url(#paint0_linear_511_14)"/>
<path d="M128.517 234.211L126.751 206.169L125.129 178.119L122.117 122.009L119.438 65.8855L118.214 37.8133L117.134 9.74107L118.904 37.7831L120.526 65.8295L123.534 121.94L126.214 178.067L127.438 206.135L128.517 234.211Z" fill="url(#paint1_linear_511_14)"/>
<path d="M134.139 231.427L130.957 204.803L127.914 178.17L122.061 124.875L116.531 71.5448L113.882 44.8691L111.377 18.176L114.568 44.7958L117.61 71.4328L123.46 124.728L128.985 178.058L131.639 204.734L134.139 231.427Z" fill="url(#paint2_linear_511_14)"/>
<path d="M139.765 228.638L135.162 203.441L130.699 178.218L122.004 127.737L113.624 77.2041L109.549 51.9205L105.619 26.6111L110.227 51.8085L114.69 77.0317L123.385 127.513L131.757 178.045L135.835 203.329L139.765 228.638Z" fill="url(#paint3_linear_511_14)"/>
<path d="M145.391 225.85L139.367 202.075L133.488 178.269L121.951 130.607L110.725 82.8677L105.222 58.9764L99.8622 35.0505L105.886 58.8211L111.766 82.6263L123.302 130.293L134.528 178.028L140.027 201.924L145.391 225.85Z" fill="url(#paint4_linear_511_14)"/>
<path d="M151.013 223.065L143.577 200.717L136.281 178.325L121.899 133.478L107.827 88.5356L100.898 66.0321L94.105 43.4855L101.541 65.8338L108.841 88.2209L123.219 133.073L137.291 178.011L144.22 200.519L151.013 223.065Z" fill="url(#paint5_linear_511_14)"/>
<path d="M156.639 220.277L147.791 199.355L139.074 178.381L121.855 136.349L104.929 94.2035L96.5705 73.0879L88.3477 51.9205L97.1956 72.8422L105.912 93.8155L123.132 135.849L140.054 177.994L148.412 199.109L156.639 220.277Z" fill="url(#paint6_linear_511_14)"/>
<path d="M162.261 217.488L152.005 197.993L141.877 178.438L121.816 139.223L102.039 99.8714L92.2515 80.1479L82.5905 60.3556L92.8504 79.8506L102.979 99.4102L123.035 138.62L142.812 177.976L152.6 197.7L162.261 217.488Z" fill="url(#paint7_linear_511_14)"/>
<path d="M167.887 214.703L156.224 196.635L144.679 178.493L121.781 142.098L99.154 105.539L87.9325 87.2038L76.8332 68.7949L88.5007 86.8589L100.041 105L122.939 141.396L145.566 177.955L156.788 196.295L167.887 214.703Z" fill="url(#paint8_linear_511_14)"/>
<path d="M173.509 211.915L160.442 195.273L147.49 178.55L121.755 144.973L96.2689 111.207L83.6178 94.2595L71.076 77.2299L84.1467 93.8716L97.0994 110.595L122.834 144.172L148.316 177.938L160.967 194.885L173.509 211.915Z" fill="url(#paint9_linear_511_14)"/>
<path d="M179.135 209.126L164.665 193.911L150.3 178.601L121.733 147.839L93.3924 116.875L79.3031 101.315L65.3188 85.665L79.7884 100.88L94.1531 116.19L122.721 146.952L151.061 177.92L165.15 193.48L179.135 209.126Z" fill="url(#paint10_linear_511_14)"/>
<path d="M184.757 206.342L168.888 192.545L153.116 178.653L121.711 150.706L90.516 122.539L74.9928 108.371L59.5615 94.1044L75.43 107.893L91.2067 121.789L122.607 149.736L153.802 177.907L169.325 192.075L184.757 206.342Z" fill="url(#paint11_linear_511_14)"/>
<path d="M190.383 203.553L173.115 191.178L155.935 178.7L121.698 153.568L87.6439 128.194L70.6825 115.423L53.8042 102.539L71.0716 114.91L88.2559 127.392L122.489 152.525L156.543 177.899L173.504 190.674L190.383 203.553Z" fill="url(#paint12_linear_511_14)"/>
<path d="M196.004 200.764L177.342 189.812L158.751 178.744L121.68 156.421L84.7719 133.849L66.3723 122.47L48.047 110.974L66.7089 121.931L85.3008 133L122.371 155.318L159.279 177.894L177.679 189.273L196.004 200.764Z" fill="url(#paint13_linear_511_14)"/>
<path d="M201.63 197.98L181.57 188.437L161.57 178.778L121.667 159.27L81.8998 139.499L62.0664 129.517L42.2898 119.414L62.3505 128.952L82.3501 138.611L122.253 158.119L162.02 177.894L181.854 187.877L201.63 197.98Z" fill="url(#paint14_linear_511_14)"/>
<path d="M207.252 195.191L185.797 187.062L164.39 178.812L121.654 162.115L79.0277 145.141L57.7561 136.56L36.5325 127.849L57.9922 135.978L79.3993 144.227L122.135 160.925L164.757 177.899L186.033 186.485L207.252 195.191Z" fill="url(#paint15_linear_511_14)"/>
<path d="M212.878 192.402L190.02 185.683L167.205 178.838L121.632 164.951L76.1513 150.783L53.4458 143.598L30.7753 136.284L53.6337 143.003L76.4486 149.848L122.017 163.74L167.498 177.907L190.208 185.092L212.878 192.402Z" fill="url(#paint16_linear_511_14)"/>
<path d="M218.504 189.618L194.247 184.304L170.02 178.864L121.615 167.783L73.2748 156.421L49.1311 150.637L25.018 144.723L49.2754 150.033L73.5022 155.473L121.908 166.554L170.243 177.92L194.387 183.705L218.504 189.618Z" fill="url(#paint17_linear_511_14)"/>
<path d="M224.126 186.829L198.465 182.92L172.831 178.886L121.589 170.615L70.3984 162.054L44.8165 157.671L19.2607 153.158L44.9214 157.063L70.5558 161.098L121.798 169.373L172.988 177.938L198.57 182.321L224.126 186.829Z" fill="url(#paint18_linear_511_14)"/>
<path d="M229.752 184.041L202.688 181.537L175.638 178.907L121.562 173.438L67.5132 167.684L40.5018 164.705L13.5035 161.593L40.5674 164.098L67.6138 166.731L121.693 172.201L175.738 177.955L202.754 180.933L229.752 184.041Z" fill="url(#paint19_linear_511_14)"/>
<path d="M235.374 181.256L206.907 180.153L178.444 178.925L121.527 176.261L64.628 173.313L36.1828 171.735L7.74626 170.033L36.2134 171.132L64.6761 172.36L121.593 175.024L178.492 177.976L206.937 179.55L235.374 181.256Z" fill="url(#paint20_linear_511_14)"/>
<path d="M241 178.468L211.121 178.765L181.246 178.937L121.492 179.084L61.7429 178.942L31.8638 178.769L1.98902 178.468L31.8638 178.166L61.7429 177.994L121.492 177.851L181.246 177.998L211.121 178.17L241 178.468Z" fill="url(#paint21_linear_511_14)"/>
<path d="M120.907 235.694L120.557 206.234L120.36 176.769L120.194 117.845L120.356 58.9246L120.557 29.4602L120.907 0L121.256 29.4602L121.453 58.9246L121.619 117.845L121.453 176.769L121.252 206.234L120.907 235.694Z" fill="url(#paint22_linear_511_14)"/>
<path d="M126.528 232.91L124.762 204.868L123.14 176.817L120.133 120.707L117.449 64.5796L116.225 36.5116L115.149 8.43507L116.915 36.4771L118.537 64.5278L121.545 120.638L124.225 176.765L125.453 204.833L126.528 232.91Z" fill="url(#paint23_linear_511_14)"/>
<path d="M132.154 230.121L128.968 203.501L125.925 176.864L120.072 123.569L114.542 70.2388L111.893 43.5631L109.392 16.87L112.579 43.4941L115.621 70.1268L121.47 123.422L127 176.752L129.65 203.428L132.154 230.121Z" fill="url(#paint24_linear_511_14)"/>
<path d="M137.776 227.332L133.173 202.135L128.714 176.916L120.015 126.435L111.639 75.9025L107.565 50.6145L103.635 25.3094L108.238 50.5068L112.701 75.7257L121.396 126.207L129.772 176.739L133.846 202.027L137.776 227.332Z" fill="url(#paint25_linear_511_14)"/>
<path d="M143.402 224.548L137.383 200.773L131.499 176.968L119.962 129.301L108.736 81.566L103.233 57.6704L97.8776 33.7445L103.897 57.5195L109.777 81.3246L121.317 128.987L132.539 176.726L138.038 200.618L143.402 224.548Z" fill="url(#paint26_linear_511_14)"/>
<path d="M149.024 221.759L141.592 199.411L134.292 177.019L119.914 132.172L105.838 87.2339L98.9093 64.7261L92.1203 42.1795L99.5562 64.5278L106.852 86.9192L121.23 131.767L135.306 176.709L142.235 199.213L149.024 221.759Z" fill="url(#paint27_linear_511_14)"/>
<path d="M154.65 218.971L145.802 198.049L137.09 177.076L119.866 135.047L102.94 92.8975L94.5858 71.7862L86.3631 50.6188L95.2109 71.5405L103.923 92.5139L121.143 134.543L138.065 176.692L146.423 197.803L154.65 218.971Z" fill="url(#paint28_linear_511_14)"/>
<path d="M160.272 216.186L150.016 196.691L139.888 177.132L119.827 137.922L100.05 98.5697L90.2624 78.8419L80.6015 59.0539L90.8613 78.5489L100.99 98.1042L121.051 137.318L140.823 176.67L150.611 196.398L160.272 216.186Z" fill="url(#paint29_linear_511_14)"/>
<path d="M165.898 213.398L154.235 195.329L142.69 177.188L119.792 140.797L97.165 104.238L85.9434 85.9021L74.8442 67.489L86.5117 85.5573L98.0524 103.699L120.95 140.094L143.577 176.653L154.799 194.989L165.898 213.398Z" fill="url(#paint30_linear_511_14)"/>
<path d="M171.524 210.609L158.453 193.967L145.501 177.244L119.766 143.667L94.2799 109.906L81.6288 92.9578L69.087 75.9283L82.1577 92.5656L95.1104 109.289L120.845 142.87L146.327 176.632L158.982 193.579L171.524 210.609Z" fill="url(#paint31_linear_511_14)"/>
<path d="M177.146 207.824L162.676 192.605L148.311 177.3L119.744 146.538L91.4034 115.569L77.3141 100.014L63.3297 84.3633L77.7993 99.5783L92.1684 114.884L120.736 145.65L149.072 176.619L163.161 192.174L177.146 207.824Z" fill="url(#paint32_linear_511_14)"/>
<path d="M182.772 205.036L166.903 191.243L151.127 177.347L119.726 149.404L88.527 121.233L73.0038 107.065L57.5725 92.7984L73.441 106.591L89.2177 120.483L120.618 148.43L151.813 176.606L167.34 190.769L182.772 205.036Z" fill="url(#paint33_linear_511_14)"/>
<path d="M188.394 202.247L171.131 189.877L153.946 177.394L119.709 152.266L85.6549 126.892L68.6935 114.117L51.8152 101.238L69.0826 113.608L86.2669 126.086L120.504 151.219L154.554 176.597L171.515 189.368L188.394 202.247Z" fill="url(#paint34_linear_511_14)"/>
<path d="M194.02 199.463L175.353 188.506L156.766 177.438L119.696 155.119L82.7828 132.543L64.3876 121.168L46.058 109.673L64.7242 120.625L83.3161 131.694L120.382 154.016L157.295 176.593L175.69 187.967L194.02 199.463Z" fill="url(#paint35_linear_511_14)"/>
<path d="M199.641 196.674L179.581 187.135L159.581 177.476L119.678 157.968L79.9107 138.193L60.0773 128.211L40.3007 118.108L60.3615 127.646L80.361 137.305L120.264 156.813L160.031 176.593L179.865 186.575L199.641 196.674Z" fill="url(#paint36_linear_511_14)"/>
<path d="M205.267 193.885L183.808 185.761L162.401 177.507L119.665 160.809L77.0387 143.84L55.767 135.254L34.5435 126.547L56.0031 134.672L77.4103 142.922L120.146 159.624L162.772 176.597L184.044 185.179L205.267 193.885Z" fill="url(#paint37_linear_511_14)"/>
<path d="M210.889 191.101L188.035 184.381L165.216 177.537L119.648 163.649L74.1666 149.477L51.4567 142.292L28.7862 134.982L51.6447 141.697L74.4595 148.542L120.032 162.434L165.513 176.606L188.223 183.791L210.889 191.101Z" fill="url(#paint38_linear_511_14)"/>
<path d="M216.515 188.312L192.258 183.002L168.031 177.558L119.626 166.481L71.2858 155.115L47.1421 149.331L23.029 143.417L47.2864 148.727L71.5131 154.167L119.919 165.253L168.254 176.619L192.402 182.403L216.515 188.312Z" fill="url(#paint39_linear_511_14)"/>
<path d="M222.137 185.523L196.481 181.618L170.842 177.584L119.599 169.309L68.4094 160.748L42.8274 156.365L17.2717 151.852L42.9324 155.762L68.5711 159.796L119.809 168.071L171.004 176.632L196.581 181.015L222.137 185.523Z" fill="url(#paint40_linear_511_14)"/>
<path d="M227.763 182.739L200.699 180.235L173.649 177.601L119.573 172.136L65.5242 166.382L38.5128 163.399L11.5145 160.292L38.5784 162.792L65.6291 165.425L119.704 170.895L173.753 176.653L200.765 179.631L227.763 182.739Z" fill="url(#paint41_linear_511_14)"/>
<path d="M233.385 179.95L204.918 178.847L176.455 177.619L119.543 174.959L62.639 172.011L34.1981 170.433L5.75724 168.727L34.2287 169.826L62.6871 171.058L119.604 173.722L176.503 176.67L204.948 178.248L233.385 179.95Z" fill="url(#paint42_linear_511_14)"/>
<path d="M239.011 177.162L209.136 177.463L179.257 177.636L119.508 177.778L59.7538 177.636L29.8747 177.463L0 177.162L29.8747 176.864L59.7538 176.692L119.508 176.55L179.257 176.692L209.136 176.864L239.011 177.162Z" fill="url(#paint43_linear_511_14)"/>
<defs>
<linearGradient id="paint0_linear_511_14" x1="10.8804" y1="216.519" x2="250.1" y2="188.039" gradientUnits="userSpaceOnUse">
<stop stop-color="#121212"/>
<stop offset="1" stop-color="white" stop-opacity="0.3"/>
</linearGradient>
<linearGradient id="paint1_linear_511_14" x1="10.8804" y1="216.519" x2="250.1" y2="188.039" gradientUnits="userSpaceOnUse">
<stop stop-color="#121212"/>
<stop offset="1" stop-color="white" stop-opacity="0.3"/>
</linearGradient>
<linearGradient id="paint2_linear_511_14" x1="10.8804" y1="216.519" x2="250.1" y2="188.039" gradientUnits="userSpaceOnUse">
<stop stop-color="#121212"/>
<stop offset="1" stop-color="white" stop-opacity="0.3"/>
</linearGradient>
<linearGradient id="paint3_linear_511_14" x1="10.8804" y1="216.519" x2="250.1" y2="188.039" gradientUnits="userSpaceOnUse">
<stop stop-color="#121212"/>
<stop offset="1" stop-color="white" stop-opacity="0.3"/>
</linearGradient>
<linearGradient id="paint4_linear_511_14" x1="10.8804" y1="216.519" x2="250.1" y2="188.039" gradientUnits="userSpaceOnUse">
<stop stop-color="#121212"/>
<stop offset="1" stop-color="white" stop-opacity="0.3"/>
</linearGradient>
<linearGradient id="paint5_linear_511_14" x1="10.8804" y1="216.519" x2="250.1" y2="188.039" gradientUnits="userSpaceOnUse">
<stop stop-color="#121212"/>
<stop offset="1" stop-color="white" stop-opacity="0.3"/>
</linearGradient>
<linearGradient id="paint6_linear_511_14" x1="10.8804" y1="216.519" x2="250.1" y2="188.039" gradientUnits="userSpaceOnUse">
<stop stop-color="#121212"/>
<stop offset="1" stop-color="white" stop-opacity="0.3"/>
</linearGradient>
<linearGradient id="paint7_linear_511_14" x1="10.8804" y1="216.519" x2="250.1" y2="188.039" gradientUnits="userSpaceOnUse">
<stop stop-color="#121212"/>
<stop offset="1" stop-color="white" stop-opacity="0.3"/>
</linearGradient>
<linearGradient id="paint8_linear_511_14" x1="10.8804" y1="216.519" x2="250.1" y2="188.039" gradientUnits="userSpaceOnUse">
<stop stop-color="#121212"/>
<stop offset="1" stop-color="white" stop-opacity="0.3"/>
</linearGradient>
<linearGradient id="paint9_linear_511_14" x1="10.8804" y1="216.519" x2="250.1" y2="188.039" gradientUnits="userSpaceOnUse">
<stop stop-color="#121212"/>
<stop offset="1" stop-color="white" stop-opacity="0.3"/>
</linearGradient>
<linearGradient id="paint10_linear_511_14" x1="10.8804" y1="216.519" x2="250.1" y2="188.039" gradientUnits="userSpaceOnUse">
<stop stop-color="#121212"/>
<stop offset="1" stop-color="white" stop-opacity="0.3"/>
</linearGradient>
<linearGradient id="paint11_linear_511_14" x1="10.8804" y1="216.519" x2="250.1" y2="188.039" gradientUnits="userSpaceOnUse">
<stop stop-color="#121212"/>
<stop offset="1" stop-color="white" stop-opacity="0.3"/>
</linearGradient>
<linearGradient id="paint12_linear_511_14" x1="10.8804" y1="216.519" x2="250.1" y2="188.039" gradientUnits="userSpaceOnUse">
<stop stop-color="#121212"/>
<stop offset="1" stop-color="white" stop-opacity="0.3"/>
</linearGradient>
<linearGradient id="paint13_linear_511_14" x1="10.8804" y1="216.519" x2="250.1" y2="188.039" gradientUnits="userSpaceOnUse">
<stop stop-color="#121212"/>
<stop offset="1" stop-color="white" stop-opacity="0.3"/>
</linearGradient>
<linearGradient id="paint14_linear_511_14" x1="10.8804" y1="216.519" x2="250.1" y2="188.039" gradientUnits="userSpaceOnUse">
<stop stop-color="#121212"/>
<stop offset="1" stop-color="white" stop-opacity="0.3"/>
</linearGradient>
<linearGradient id="paint15_linear_511_14" x1="10.8804" y1="216.519" x2="250.1" y2="188.039" gradientUnits="userSpaceOnUse">
<stop stop-color="#121212"/>
<stop offset="1" stop-color="white" stop-opacity="0.3"/>
</linearGradient>
<linearGradient id="paint16_linear_511_14" x1="10.8804" y1="216.519" x2="250.1" y2="188.039" gradientUnits="userSpaceOnUse">
<stop stop-color="#121212"/>
<stop offset="1" stop-color="white" stop-opacity="0.3"/>
</linearGradient>
<linearGradient id="paint17_linear_511_14" x1="10.8804" y1="216.519" x2="250.1" y2="188.039" gradientUnits="userSpaceOnUse">
<stop stop-color="#121212"/>
<stop offset="1" stop-color="white" stop-opacity="0.3"/>
</linearGradient>
<linearGradient id="paint18_linear_511_14" x1="10.8804" y1="216.519" x2="250.1" y2="188.039" gradientUnits="userSpaceOnUse">
<stop stop-color="#121212"/>
<stop offset="1" stop-color="white" stop-opacity="0.3"/>
</linearGradient>
<linearGradient id="paint19_linear_511_14" x1="10.8804" y1="216.519" x2="250.1" y2="188.039" gradientUnits="userSpaceOnUse">
<stop stop-color="#121212"/>
<stop offset="1" stop-color="white" stop-opacity="0.3"/>
</linearGradient>
<linearGradient id="paint20_linear_511_14" x1="10.8804" y1="216.519" x2="250.1" y2="188.039" gradientUnits="userSpaceOnUse">
<stop stop-color="#121212"/>
<stop offset="1" stop-color="white" stop-opacity="0.3"/>
</linearGradient>
<linearGradient id="paint21_linear_511_14" x1="10.8804" y1="216.519" x2="250.1" y2="188.039" gradientUnits="userSpaceOnUse">
<stop stop-color="#121212"/>
<stop offset="1" stop-color="white" stop-opacity="0.3"/>
</linearGradient>
<linearGradient id="paint22_linear_511_14" x1="10.8804" y1="216.519" x2="250.1" y2="188.039" gradientUnits="userSpaceOnUse">
<stop stop-color="#121212"/>
<stop offset="1" stop-color="white" stop-opacity="0.3"/>
</linearGradient>
<linearGradient id="paint23_linear_511_14" x1="10.8804" y1="216.519" x2="250.1" y2="188.039" gradientUnits="userSpaceOnUse">
<stop stop-color="#121212"/>
<stop offset="1" stop-color="white" stop-opacity="0.3"/>
</linearGradient>
<linearGradient id="paint24_linear_511_14" x1="10.8804" y1="216.519" x2="250.1" y2="188.039" gradientUnits="userSpaceOnUse">
<stop stop-color="#121212"/>
<stop offset="1" stop-color="white" stop-opacity="0.3"/>
</linearGradient>
<linearGradient id="paint25_linear_511_14" x1="10.8804" y1="216.519" x2="250.1" y2="188.039" gradientUnits="userSpaceOnUse">
<stop stop-color="#121212"/>
<stop offset="1" stop-color="white" stop-opacity="0.3"/>
</linearGradient>
<linearGradient id="paint26_linear_511_14" x1="10.8804" y1="216.519" x2="250.1" y2="188.039" gradientUnits="userSpaceOnUse">
<stop stop-color="#121212"/>
<stop offset="1" stop-color="white" stop-opacity="0.3"/>
</linearGradient>
<linearGradient id="paint27_linear_511_14" x1="10.8804" y1="216.519" x2="250.1" y2="188.039" gradientUnits="userSpaceOnUse">
<stop stop-color="#121212"/>
<stop offset="1" stop-color="white" stop-opacity="0.3"/>
</linearGradient>
<linearGradient id="paint28_linear_511_14" x1="10.8804" y1="216.519" x2="250.1" y2="188.039" gradientUnits="userSpaceOnUse">
<stop stop-color="#121212"/>
<stop offset="1" stop-color="white" stop-opacity="0.3"/>
</linearGradient>
<linearGradient id="paint29_linear_511_14" x1="10.8804" y1="216.519" x2="250.1" y2="188.039" gradientUnits="userSpaceOnUse">
<stop stop-color="#121212"/>
<stop offset="1" stop-color="white" stop-opacity="0.3"/>
</linearGradient>
<linearGradient id="paint30_linear_511_14" x1="10.8804" y1="216.519" x2="250.1" y2="188.039" gradientUnits="userSpaceOnUse">
<stop stop-color="#121212"/>
<stop offset="1" stop-color="white" stop-opacity="0.3"/>
</linearGradient>
<linearGradient id="paint31_linear_511_14" x1="10.8804" y1="216.519" x2="250.1" y2="188.039" gradientUnits="userSpaceOnUse">
<stop stop-color="#121212"/>
<stop offset="1" stop-color="white" stop-opacity="0.3"/>
</linearGradient>
<linearGradient id="paint32_linear_511_14" x1="10.8804" y1="216.519" x2="250.1" y2="188.039" gradientUnits="userSpaceOnUse">
<stop stop-color="#121212"/>
<stop offset="1" stop-color="white" stop-opacity="0.3"/>
</linearGradient>
<linearGradient id="paint33_linear_511_14" x1="10.8804" y1="216.519" x2="250.1" y2="188.039" gradientUnits="userSpaceOnUse">
<stop stop-color="#121212"/>
<stop offset="1" stop-color="white" stop-opacity="0.3"/>
</linearGradient>
<linearGradient id="paint34_linear_511_14" x1="10.8804" y1="216.519" x2="250.1" y2="188.039" gradientUnits="userSpaceOnUse">
<stop stop-color="#121212"/>
<stop offset="1" stop-color="white" stop-opacity="0.3"/>
</linearGradient>
<linearGradient id="paint35_linear_511_14" x1="10.8804" y1="216.519" x2="250.1" y2="188.039" gradientUnits="userSpaceOnUse">
<stop stop-color="#121212"/>
<stop offset="1" stop-color="white" stop-opacity="0.3"/>
</linearGradient>
<linearGradient id="paint36_linear_511_14" x1="10.8804" y1="216.519" x2="250.1" y2="188.039" gradientUnits="userSpaceOnUse">
<stop stop-color="#121212"/>
<stop offset="1" stop-color="white" stop-opacity="0.3"/>
</linearGradient>
<linearGradient id="paint37_linear_511_14" x1="10.8804" y1="216.519" x2="250.1" y2="188.039" gradientUnits="userSpaceOnUse">
<stop stop-color="#121212"/>
<stop offset="1" stop-color="white" stop-opacity="0.3"/>
</linearGradient>
<linearGradient id="paint38_linear_511_14" x1="10.8804" y1="216.519" x2="250.1" y2="188.039" gradientUnits="userSpaceOnUse">
<stop stop-color="#121212"/>
<stop offset="1" stop-color="white" stop-opacity="0.3"/>
</linearGradient>
<linearGradient id="paint39_linear_511_14" x1="10.8804" y1="216.519" x2="250.1" y2="188.039" gradientUnits="userSpaceOnUse">
<stop stop-color="#121212"/>
<stop offset="1" stop-color="white" stop-opacity="0.3"/>
</linearGradient>
<linearGradient id="paint40_linear_511_14" x1="10.8804" y1="216.519" x2="250.1" y2="188.039" gradientUnits="userSpaceOnUse">
<stop stop-color="#121212"/>
<stop offset="1" stop-color="white" stop-opacity="0.3"/>
</linearGradient>
<linearGradient id="paint41_linear_511_14" x1="10.8804" y1="216.519" x2="250.1" y2="188.039" gradientUnits="userSpaceOnUse">
<stop stop-color="#121212"/>
<stop offset="1" stop-color="white" stop-opacity="0.3"/>
</linearGradient>
<linearGradient id="paint42_linear_511_14" x1="10.8804" y1="216.519" x2="250.1" y2="188.039" gradientUnits="userSpaceOnUse">
<stop stop-color="#121212"/>
<stop offset="1" stop-color="white" stop-opacity="0.3"/>
</linearGradient>
<linearGradient id="paint43_linear_511_14" x1="10.8804" y1="216.519" x2="250.1" y2="188.039" gradientUnits="userSpaceOnUse">
<stop stop-color="#121212"/>
<stop offset="1" stop-color="white" stop-opacity="0.3"/>
</linearGradient>
</defs>
</svg>
