<svg width="587" height="568" viewBox="0 0 587 568" fill="none" xmlns="http://www.w3.org/2000/svg">
<path d="M-126.524 375.974C-126.699 375.863 -126.838 375.695 -126.845 375.447C-126.874 375.105 -126.56 374.736 -126.216 374.71L585.373 323.96C585.716 323.934 586.089 324.25 586.118 324.592C586.147 324.935 585.832 325.303 585.489 325.33L-126.1 376.079C-126.254 376.063 -126.407 376.048 -126.524 375.974Z" fill="url(#paint0_linear_45_3253)"/>
<path d="M234.318 611.933C234.202 611.859 234.143 611.822 234.063 611.691L-103.127 1.14468C-103.309 0.786523 -103.207 0.365196 -102.849 0.186085C-102.491 0.00697487 -102.104 0.170181 -101.885 0.470404L235.305 611.017C235.488 611.375 235.385 611.796 235.027 611.975C234.801 612.075 234.552 612.081 234.318 611.933Z" fill="url(#paint1_linear_45_3253)"/>
<path d="M-126.524 375.974C-126.757 375.826 -126.86 375.6 -126.867 375.352L-103.214 0.765443C-103.207 0.365131 -102.871 0.0911607 -102.469 0.101666C-102.067 0.112177 -101.79 0.44931 -101.797 0.849621L-125.45 375.436C-125.457 375.837 -125.793 376.111 -126.195 376.1C-126.312 376.026 -126.407 376.048 -126.524 375.974Z" fill="url(#paint2_linear_45_3253)"/>
<path d="M-89.0509 373.29C-89.2262 373.18 -89.3869 372.916 -89.394 372.669L-85.4214 32.8944C-85.4139 32.4941 -85.0776 32.2201 -84.7342 32.1938C-84.3324 32.2043 -84.0551 32.5415 -84.0261 32.8839L-87.9986 372.658C-88.0062 373.059 -88.3423 373.332 -88.6857 373.359C-88.8757 373.401 -88.9341 373.364 -89.0509 373.29Z" fill="url(#paint3_linear_45_3253)"/>
<path d="M-51.5781 370.607C-51.7533 370.496 -51.8921 370.328 -51.8992 370.08L-67.6065 65.1182C-67.599 64.7179 -67.3212 64.4072 -66.9778 64.3808C-66.6344 64.3545 -66.262 64.6704 -66.233 65.0128L-50.5258 369.975C-50.5333 370.375 -50.811 370.686 -51.1544 370.712C-51.3443 370.754 -51.4612 370.68 -51.5781 370.607Z" fill="url(#paint4_linear_45_3253)"/>
<path d="M-14.2003 367.944C-14.3755 367.834 -14.5142 367.665 -14.5214 367.418L-49.967 97.2314C-50.0544 96.8521 -49.7401 96.4835 -49.3967 96.4572C-49.0167 96.3729 -48.6442 96.6888 -48.6152 97.0311L-13.1698 367.217C-13.0824 367.597 -13.3967 367.965 -13.74 367.992C-13.8716 368.071 -14.025 368.055 -14.2003 367.944Z" fill="url(#paint5_linear_45_3253)"/>
<path d="M23.2725 365.261C23.0973 365.15 23.017 365.019 22.9733 364.829L-32.1521 129.455C-32.2396 129.076 -32.0203 128.728 -31.6403 128.644C-31.2604 128.56 -30.9098 128.781 -30.8224 129.16L24.303 364.534C24.3905 364.913 24.1712 365.261 23.7912 365.345C23.6013 365.387 23.4478 365.372 23.2725 365.261Z" fill="url(#paint6_linear_45_3253)"/>
<path d="M60.7454 362.577C60.6286 362.504 60.5482 362.372 60.4679 362.24L-14.3372 161.679C-14.4612 161.358 -14.2638 160.915 -13.9423 160.794C-13.5842 160.615 -13.1752 160.873 -13.0512 161.195L61.754 361.756C61.878 362.077 61.6806 362.519 61.3591 362.641C61.1325 362.741 60.9207 362.688 60.7454 362.577Z" fill="url(#paint7_linear_45_3253)"/>
<path d="M98.1816 359.952C98.0647 359.878 98.0063 359.841 97.926 359.71L3.34591 193.982C3.16347 193.624 3.26605 193.202 3.58758 193.081C3.94566 192.902 4.3328 193.065 4.55181 193.366L99.1318 359.093C99.3143 359.452 99.2118 359.873 98.8903 359.994C98.6637 360.094 98.3569 360.063 98.1816 359.952Z" fill="url(#paint8_linear_45_3253)"/>
<path d="M135.654 357.268C135.596 357.231 135.538 357.195 135.479 357.158L21.2193 226.243C21.0003 225.942 21.0078 225.542 21.2856 225.231C21.5852 225.015 21.9871 225.026 22.2427 225.268L136.503 356.183C136.722 356.483 136.714 356.884 136.436 357.195C136.232 357.389 135.888 357.416 135.654 357.268Z" fill="url(#paint9_linear_45_3253)"/>
<path d="M173.127 354.585C173.069 354.548 173.069 354.548 173.127 354.585L39.129 258.446C38.7785 258.224 38.7276 257.787 39.0054 257.476C39.2248 257.129 39.6632 257.081 39.9772 257.36L173.917 353.463C174.267 353.684 174.318 354.121 174.041 354.432C173.799 354.685 173.419 354.769 173.127 354.585Z" fill="url(#paint10_linear_45_3253)"/>
<path d="M56.9221 290.574C56.63 290.39 56.5059 290.069 56.6303 289.742C56.7547 289.416 57.2078 289.215 57.5365 289.342L211.215 350.669C211.602 350.832 211.747 351.248 211.623 351.575C211.499 351.901 211.046 352.101 210.717 351.975L57.039 290.648C56.9806 290.611 56.9221 290.574 56.9221 290.574Z" fill="url(#paint11_linear_45_3253)"/>
<path d="M74.62 322.725C74.3863 322.577 74.2257 322.314 74.3136 322.045C74.3795 321.682 74.7158 321.408 75.081 321.476L248.439 347.991C248.804 348.059 249.082 348.396 249.016 348.76C248.95 349.123 248.613 349.397 248.248 349.329L74.8904 322.814C74.7954 322.835 74.7369 322.798 74.62 322.725Z" fill="url(#paint12_linear_45_3253)"/>
<path d="M92.4129 354.854C92.2376 354.743 92.0989 354.574 92.0918 354.327C92.0993 353.927 92.3772 353.616 92.7206 353.589L285.758 345.291C286.102 345.265 286.474 345.581 286.503 345.923C286.496 346.324 286.218 346.634 285.874 346.661L92.8366 354.959C92.6467 355.001 92.5298 354.927 92.4129 354.854Z" fill="url(#paint13_linear_45_3253)"/>
<path d="M110.111 387.004C109.936 386.893 109.855 386.761 109.812 386.572C109.724 386.193 109.944 385.845 110.324 385.761L323.1 342.687C323.48 342.603 323.83 342.824 323.918 343.203C324.005 343.582 323.786 343.93 323.406 344.014L110.63 387.088C110.44 387.13 110.286 387.114 110.111 387.004Z" fill="url(#paint14_linear_45_3253)"/>
<path d="M127.904 419.133C127.787 419.059 127.707 418.927 127.626 418.796C127.539 418.416 127.7 418.032 128.08 417.948L360.572 340.003C360.894 339.882 361.34 340.082 361.464 340.404C361.551 340.783 361.39 341.167 361.01 341.252L128.518 419.196C128.233 419.259 128.079 419.243 127.904 419.133Z" fill="url(#paint15_linear_45_3253)"/>
<path d="M145.602 451.283C145.485 451.209 145.368 451.135 145.325 450.946C145.142 450.588 145.303 450.203 145.661 450.024L397.833 337.267C398.192 337.088 398.579 337.251 398.761 337.609C398.944 337.968 398.783 338.352 398.424 338.531L146.252 451.288C146.084 451.425 145.777 451.393 145.602 451.283Z" fill="url(#paint16_linear_45_3253)"/>
<path d="M163.395 483.412C163.278 483.338 163.22 483.301 163.139 483.17C162.957 482.811 163.059 482.39 163.417 482.211L435.328 334.679C435.686 334.499 436.073 334.663 436.292 334.963C436.475 335.321 436.372 335.742 436.014 335.922L164.104 483.454C163.877 483.554 163.57 483.522 163.395 483.412Z" fill="url(#paint17_linear_45_3253)"/>
<path d="M181.093 515.562C181.035 515.525 180.918 515.451 180.896 515.356C180.677 515.056 180.779 514.635 181.079 514.419L472.669 332.074C472.969 331.858 473.393 331.963 473.612 332.264C473.831 332.564 473.728 332.985 473.429 333.201L181.838 515.546C181.575 515.704 181.327 515.709 181.093 515.562Z" fill="url(#paint18_linear_45_3253)"/>
<path d="M198.886 547.691C198.828 547.654 198.711 547.58 198.689 547.486C198.47 547.185 198.514 546.727 198.872 546.548L510.201 329.427C510.5 329.211 510.961 329.259 511.143 329.617C511.362 329.917 511.318 330.376 510.96 330.555L199.631 547.675C199.368 547.833 199.061 547.802 198.886 547.691Z" fill="url(#paint19_linear_45_3253)"/>
<path d="M216.584 579.841C216.525 579.804 216.467 579.767 216.445 579.672C216.226 579.372 216.27 578.914 216.57 578.698L547.578 326.765C547.878 326.549 548.338 326.596 548.557 326.897C548.776 327.197 548.732 327.655 548.432 327.871L217.424 579.804C217.161 579.962 216.818 579.988 216.584 579.841Z" fill="url(#paint20_linear_45_3253)"/>
<path d="M234.318 611.933C234.26 611.896 234.202 611.86 234.143 611.823C233.924 611.522 233.932 611.122 234.268 610.848L584.956 324.103C585.256 323.887 585.658 323.897 585.935 324.234C586.154 324.534 586.147 324.935 585.811 325.209L235.122 611.954C234.954 612.091 234.61 612.118 234.318 611.933Z" fill="url(#paint21_linear_45_3253)"/>
<defs>
<linearGradient id="paint0_linear_45_3253" x1="-234.258" y1="272.213" x2="463.349" y2="535.09" gradientUnits="userSpaceOnUse">
<stop stop-color="#1051B4"/>
<stop offset="1" stop-color="#43ACFB"/>
</linearGradient>
<linearGradient id="paint1_linear_45_3253" x1="-234.258" y1="272.213" x2="463.349" y2="535.09" gradientUnits="userSpaceOnUse">
<stop stop-color="#1051B4"/>
<stop offset="1" stop-color="#43ACFB"/>
</linearGradient>
<linearGradient id="paint2_linear_45_3253" x1="-234.258" y1="272.213" x2="463.349" y2="535.09" gradientUnits="userSpaceOnUse">
<stop stop-color="#1051B4"/>
<stop offset="1" stop-color="#43ACFB"/>
</linearGradient>
<linearGradient id="paint3_linear_45_3253" x1="-234.258" y1="272.213" x2="463.349" y2="535.09" gradientUnits="userSpaceOnUse">
<stop stop-color="#1051B4"/>
<stop offset="1" stop-color="#43ACFB"/>
</linearGradient>
<linearGradient id="paint4_linear_45_3253" x1="-234.258" y1="272.213" x2="463.349" y2="535.09" gradientUnits="userSpaceOnUse">
<stop stop-color="#1051B4"/>
<stop offset="1" stop-color="#43ACFB"/>
</linearGradient>
<linearGradient id="paint5_linear_45_3253" x1="-234.258" y1="272.213" x2="463.349" y2="535.09" gradientUnits="userSpaceOnUse">
<stop stop-color="#1051B4"/>
<stop offset="1" stop-color="#43ACFB"/>
</linearGradient>
<linearGradient id="paint6_linear_45_3253" x1="-234.258" y1="272.213" x2="463.349" y2="535.09" gradientUnits="userSpaceOnUse">
<stop stop-color="#1051B4"/>
<stop offset="1" stop-color="#43ACFB"/>
</linearGradient>
<linearGradient id="paint7_linear_45_3253" x1="-234.258" y1="272.213" x2="463.349" y2="535.09" gradientUnits="userSpaceOnUse">
<stop stop-color="#1051B4"/>
<stop offset="1" stop-color="#43ACFB"/>
</linearGradient>
<linearGradient id="paint8_linear_45_3253" x1="-234.258" y1="272.213" x2="463.349" y2="535.09" gradientUnits="userSpaceOnUse">
<stop stop-color="#1051B4"/>
<stop offset="1" stop-color="#43ACFB"/>
</linearGradient>
<linearGradient id="paint9_linear_45_3253" x1="-234.258" y1="272.213" x2="463.349" y2="535.09" gradientUnits="userSpaceOnUse">
<stop stop-color="#1051B4"/>
<stop offset="1" stop-color="#43ACFB"/>
</linearGradient>
<linearGradient id="paint10_linear_45_3253" x1="-234.258" y1="272.213" x2="463.349" y2="535.09" gradientUnits="userSpaceOnUse">
<stop stop-color="#1051B4"/>
<stop offset="1" stop-color="#43ACFB"/>
</linearGradient>
<linearGradient id="paint11_linear_45_3253" x1="-234.258" y1="272.213" x2="463.349" y2="535.09" gradientUnits="userSpaceOnUse">
<stop stop-color="#1051B4"/>
<stop offset="1" stop-color="#43ACFB"/>
</linearGradient>
<linearGradient id="paint12_linear_45_3253" x1="-234.258" y1="272.213" x2="463.349" y2="535.09" gradientUnits="userSpaceOnUse">
<stop stop-color="#1051B4"/>
<stop offset="1" stop-color="#43ACFB"/>
</linearGradient>
<linearGradient id="paint13_linear_45_3253" x1="-234.258" y1="272.213" x2="463.349" y2="535.09" gradientUnits="userSpaceOnUse">
<stop stop-color="#1051B4"/>
<stop offset="1" stop-color="#43ACFB"/>
</linearGradient>
<linearGradient id="paint14_linear_45_3253" x1="-234.258" y1="272.213" x2="463.349" y2="535.09" gradientUnits="userSpaceOnUse">
<stop stop-color="#1051B4"/>
<stop offset="1" stop-color="#43ACFB"/>
</linearGradient>
<linearGradient id="paint15_linear_45_3253" x1="-234.258" y1="272.213" x2="463.349" y2="535.09" gradientUnits="userSpaceOnUse">
<stop stop-color="#1051B4"/>
<stop offset="1" stop-color="#43ACFB"/>
</linearGradient>
<linearGradient id="paint16_linear_45_3253" x1="-234.258" y1="272.213" x2="463.349" y2="535.09" gradientUnits="userSpaceOnUse">
<stop stop-color="#1051B4"/>
<stop offset="1" stop-color="#43ACFB"/>
</linearGradient>
<linearGradient id="paint17_linear_45_3253" x1="-234.258" y1="272.213" x2="463.349" y2="535.09" gradientUnits="userSpaceOnUse">
<stop stop-color="#1051B4"/>
<stop offset="1" stop-color="#43ACFB"/>
</linearGradient>
<linearGradient id="paint18_linear_45_3253" x1="-234.258" y1="272.213" x2="463.349" y2="535.09" gradientUnits="userSpaceOnUse">
<stop stop-color="#1051B4"/>
<stop offset="1" stop-color="#43ACFB"/>
</linearGradient>
<linearGradient id="paint19_linear_45_3253" x1="-234.258" y1="272.213" x2="463.349" y2="535.09" gradientUnits="userSpaceOnUse">
<stop stop-color="#1051B4"/>
<stop offset="1" stop-color="#43ACFB"/>
</linearGradient>
<linearGradient id="paint20_linear_45_3253" x1="-234.258" y1="272.213" x2="463.349" y2="535.09" gradientUnits="userSpaceOnUse">
<stop stop-color="#1051B4"/>
<stop offset="1" stop-color="#43ACFB"/>
</linearGradient>
<linearGradient id="paint21_linear_45_3253" x1="-234.258" y1="272.213" x2="463.349" y2="535.09" gradientUnits="userSpaceOnUse">
<stop stop-color="#1051B4"/>
<stop offset="1" stop-color="#43ACFB"/>
</linearGradient>
</defs>
</svg>
