<svg width="1178" height="753" viewBox="0 0 1178 753" fill="none" xmlns="http://www.w3.org/2000/svg">
<path d="M459.635 752.048L0 198.044L161.104 163.1L161.517 164.955L3.48316 199.234L460.292 749.832L1571.1 387.479L912.574 2.0194L273.454 140.671L273.041 138.816L912.909 0L913.238 0.196129L1575.72 387.973L1573.71 388.625L459.635 752.048Z" fill="url(#paint0_linear_45_3350)"/>
<path d="M963.128 91.9319C931.324 91.9319 904.698 85.3607 864.316 75.3964C845.973 70.8701 825.179 65.7425 799.657 60.14C784.351 56.7784 767.775 55.8035 750.387 57.2405L750.225 55.3477C767.814 53.898 784.583 54.8855 800.082 58.2913C825.624 63.9002 846.431 69.0343 864.787 73.5607C933.981 90.6341 962.618 97.699 1046.7 78.6251L1047.14 80.4735C1011.71 88.507 986.07 91.9319 963.128 91.9319Z" fill="url(#paint1_linear_45_3350)"/>
<path d="M45.8133 251.575L44.4138 250.265C44.6589 250.012 69.3553 224.816 104.771 198.639C137.498 174.457 186.355 144.463 233.233 138.923C275.215 133.96 314.146 145.893 348.497 156.421C374.974 164.537 399.98 172.197 423.245 171.5C442.672 170.918 465.11 165.74 491.845 155.674L492.535 157.447C465.594 167.588 442.949 172.804 423.303 173.4C399.716 174.109 374.555 166.398 347.917 158.232C313.752 147.761 275.028 135.891 233.458 140.81C187.013 146.305 138.484 176.103 105.951 200.14C70.6644 226.221 46.0584 251.328 45.8133 251.575Z" fill="url(#paint2_linear_45_3350)"/>
<path d="M64.6662 274.682L73.1927 264.331L77.4754 259.172L81.842 254.082C84.7702 250.702 87.6534 247.277 90.6138 243.921L99.5661 233.913C111.627 220.67 124.089 207.743 137.291 195.518L142.27 190.96L144.773 188.694L152.493 182.123C153.358 181.401 154.196 180.648 155.086 179.952L163.052 173.646C163.497 173.298 163.935 172.937 164.387 172.602L165.761 171.602L168.502 169.601C170.34 168.278 172.166 166.942 174.017 165.645L179.705 161.916L182.556 160.061C183.511 159.447 184.517 158.909 185.491 158.333L191.386 154.921C192.353 154.332 193.379 153.838 194.398 153.319L197.442 151.787C199.48 150.781 201.473 149.698 203.583 148.824L209.845 146.127C211.935 145.241 214.109 144.532 216.237 143.747L219.443 142.595C220.513 142.215 221.623 141.937 222.706 141.608C224.886 140.968 227.067 140.341 229.253 139.74L229.672 141C227.602 141.88 225.525 142.741 223.448 143.583C222.416 144.013 221.365 144.406 220.346 144.868L217.295 146.267L214.244 147.66C213.232 148.134 212.193 148.54 211.206 149.071L205.247 152.11C203.228 153.06 201.319 154.212 199.377 155.294L196.469 156.934C195.508 157.491 194.508 157.991 193.579 158.599L187.903 162.106C186.961 162.701 186 163.252 185.078 163.878L182.311 165.739L176.771 169.449C174.958 170.741 173.185 172.076 171.379 173.38L168.676 175.337L167.322 176.312C166.877 176.641 166.445 176.995 166.006 177.337L160.756 181.458C153.764 186.972 147.05 192.834 140.42 198.791L137.923 201.013C137.091 201.754 136.298 202.539 135.479 203.299L128.177 210.174C127.358 210.933 126.559 211.706 125.772 212.497L121.006 217.188L116.226 221.872L111.537 226.652L106.855 231.438L104.507 233.824L102.198 236.249C89.8076 249.113 77.7979 262.343 65.6916 275.498L64.6662 274.682Z" fill="url(#paint3_linear_45_3350)"/>
<path d="M109.299 328.459C112.15 325.332 115.052 322.281 117.974 319.236C120.915 316.21 123.888 313.216 126.881 310.24C132.873 304.29 138.975 298.446 145.167 292.692C157.615 281.253 170.424 270.174 183.795 259.748C190.477 254.531 197.255 249.416 204.24 244.58C205.963 243.339 207.736 242.162 209.497 240.972C211.258 239.781 213.006 238.572 214.805 237.433L220.172 233.97L225.622 230.627C232.942 226.253 240.437 222.138 248.151 218.416C255.884 214.751 263.908 211.503 272.099 208.92C280.252 206.293 288.553 204.122 296.905 202.235C305.258 200.349 313.688 198.779 322.163 197.601C339.113 195.183 356.186 193.917 373.226 193.309C381.746 192.986 390.26 192.758 398.755 192.543C407.249 192.321 415.737 192.049 424.186 191.518C432.636 191.011 441.059 190.163 449.334 188.586C451.417 188.238 453.449 187.7 455.5 187.251C456.526 187.01 457.525 186.694 458.538 186.421C459.551 186.137 460.57 185.877 461.557 185.522L464.543 184.529C465.536 184.187 466.491 183.763 467.471 183.389L468.935 182.807C469.419 182.61 469.883 182.364 470.361 182.148L473.198 180.8L473.966 182.161L471.115 183.649C470.638 183.889 470.167 184.161 469.683 184.377L468.213 185.029C467.226 185.453 466.258 185.921 465.259 186.307L462.24 187.434C461.241 187.833 460.208 188.124 459.183 188.447C458.157 188.757 457.138 189.105 456.1 189.378C454.017 189.897 451.953 190.505 449.85 190.916C441.465 192.752 432.951 193.847 424.438 194.594C407.404 196.025 390.376 196.411 373.42 197.316C364.945 197.766 356.482 198.316 348.046 199.082C339.616 199.848 331.212 200.83 322.853 202.096C320.77 202.431 318.673 202.722 316.597 203.096L310.36 204.191C306.219 205.008 302.071 205.799 297.969 206.774C289.752 208.654 281.593 210.813 273.589 213.421C272.589 213.744 271.577 214.041 270.583 214.377L264.676 216.466C263.689 216.808 262.734 217.238 261.76 217.618L257.394 219.384C256.91 219.587 256.439 219.815 255.962 220.024L250.234 222.613C242.669 226.228 235.29 230.267 228.06 234.54C213.586 243.105 199.784 252.778 186.362 262.938C179.641 268.009 173.075 273.276 166.567 278.626C160.059 283.968 153.654 289.432 147.334 295.003C134.666 306.094 122.36 317.628 110.466 329.517L109.299 328.459Z" fill="url(#paint4_linear_45_3350)"/>
<path d="M24.4322 226.513L23.8064 224.715C70.6 209.009 103.526 195.708 127.423 182.864L128.352 184.529C104.352 197.43 71.3354 210.769 24.4322 226.513Z" fill="url(#paint5_linear_45_3350)"/>
<path d="M166.303 396.304C191.476 388.644 216.476 380.383 241.314 371.754C253.73 367.424 266.088 362.936 278.381 358.314C290.681 353.699 302.904 348.907 315.016 343.88C321.073 341.374 327.103 338.797 333.089 336.145C336.081 334.822 339.087 333.511 342.054 332.137C345.034 330.783 348.007 329.422 350.948 327.997C362.751 322.382 374.361 316.413 385.487 309.766L397.877 301.991C399.245 301.111 400.567 300.175 401.909 299.269L409.951 293.793L420.639 285.811L421.574 285.045L425.308 281.968C427.785 279.898 430.339 277.923 432.668 275.701L438.021 270.82C438.614 270.275 439.227 269.75 439.776 269.168L446.561 262.324C455.391 252.993 463.401 242.934 470.799 232.419L473.54 228.45C474.456 227.127 475.378 225.81 476.236 224.442L481.474 216.314C484.84 210.8 488.233 205.305 491.464 199.69C498.004 188.517 504.325 177.16 510.717 165.822C513.897 160.156 517.115 154.465 520.469 148.837C523.797 143.203 527.235 137.619 530.776 132.093C537.832 121.027 545.482 110.29 553.808 100.029C554.86 98.7562 555.879 97.4585 556.962 96.205L560.187 92.432L563.522 88.7476C564.625 87.5132 565.799 86.3357 566.934 85.1266C571.533 80.347 576.338 75.7446 581.381 71.4019C586.419 67.0528 591.753 63.0204 597.3 59.3107C600.08 57.4685 602.905 55.6769 605.794 54.0056C607.213 53.132 608.716 52.3851 610.174 51.5748C611.631 50.7581 613.141 50.0364 614.63 49.2894C626.601 43.3577 639.366 39.1226 652.375 36.5018L652.904 38.6099C646.602 40.4077 640.43 42.5474 634.399 44.9973C628.381 47.4725 622.518 50.2643 616.881 53.4232C615.475 54.2209 614.056 54.9933 612.689 55.8542C611.315 56.7088 609.922 57.5128 608.58 58.4118C605.858 60.14 603.208 61.9821 600.602 63.8686C599.319 64.8372 598.022 65.7932 596.745 66.7744L592.978 69.7877L589.308 72.915L585.709 76.1246C576.215 84.8037 567.669 94.4515 559.736 104.587C551.783 114.715 544.579 125.42 537.639 136.309C534.188 141.766 530.834 147.286 527.583 152.87C524.313 158.44 521.166 164.094 517.947 169.753C511.536 181.059 505.177 192.423 498.54 203.685C495.27 209.332 491.813 214.909 488.381 220.492L483.021 228.766C482.144 230.153 481.196 231.501 480.254 232.856L477.436 236.92C469.844 247.707 461.473 258.026 452.262 267.604L445.193 274.625C444.619 275.226 443.981 275.758 443.368 276.321L437.802 281.316C435.377 283.589 432.732 285.608 430.165 287.716L425.328 291.641L424.328 292.382L414.299 299.751L406.036 305.283C404.656 306.195 403.295 307.145 401.896 308.031L389.176 315.792C377.67 322.471 365.809 328.377 353.793 333.91C341.777 339.436 329.593 344.552 317.312 349.388C305.032 354.231 292.661 358.833 280.232 363.252C267.797 367.664 255.291 371.855 242.752 375.932C230.214 380.015 217.604 383.89 204.969 387.656C192.334 391.429 179.647 395.012 166.896 398.424L166.303 396.304Z" fill="url(#paint6_linear_45_3350)"/>
<path d="M195.294 431.609C206.994 428.684 218.669 425.633 230.324 422.512C241.978 419.397 253.614 416.239 265.23 412.979C288.443 406.433 311.605 399.722 334.559 392.423C357.514 385.137 380.353 377.458 402.682 368.658C413.821 364.214 424.851 359.498 435.435 354.092C436.783 353.453 438.053 352.706 439.363 352.009L443.258 349.888L448.895 346.451C449.515 346.065 450.089 345.628 450.689 345.217L454.242 342.716L457.783 339.975C460.131 338.133 462.531 336.347 464.833 334.455C474.166 327.035 483.234 319.331 491.548 310.974C499.888 302.631 507.382 293.572 514.239 283.975C521.114 274.397 527.454 264.363 533.749 254.272L552.518 223.86C565.05 203.577 577.724 183.168 592.772 164.214C594.623 161.827 596.584 159.517 598.506 157.181L601.479 153.737L602.969 152.021L604.504 150.337C608.548 145.811 612.837 141.481 617.262 137.277L620.622 134.163L624.079 131.15C624.66 130.649 625.227 130.143 625.814 129.649L627.601 128.2C628.801 127.244 629.962 126.25 631.187 125.326C636.037 121.565 641.12 118.083 646.338 114.81L650.324 112.468C650.995 112.082 651.646 111.677 652.33 111.31L654.374 110.221C655.741 109.505 657.083 108.74 658.476 108.075L662.656 106.068C668.28 103.51 674.02 101.155 679.928 99.2943C682.85 98.2687 685.849 97.4965 688.829 96.6482C690.319 96.2177 691.835 95.9138 693.338 95.5467L696.724 94.749L697.872 94.5337C700.929 93.9766 703.98 93.35 707.076 93.0081L709.391 92.6979C710.165 92.5903 710.933 92.4891 711.713 92.4384L716.37 92.0649C722.588 91.7357 728.838 91.6471 735.042 92.2168L737.371 92.3877L739.686 92.6662C741.228 92.8625 742.775 93.008 744.31 93.2549L748.903 94.0336C749.67 94.1539 750.432 94.3186 751.186 94.4832L753.463 94.977C759.519 96.3001 765.479 98.0346 771.271 100.149C777.063 102.257 782.758 104.606 788.234 107.353C793.723 110.075 799.063 113.051 804.255 116.222C809.454 119.394 814.478 122.812 819.387 126.345C824.295 129.89 829.081 133.574 833.783 137.335C838.485 141.095 843.096 144.957 847.701 148.786C850.017 150.692 852.32 152.578 854.661 154.433C857.002 156.294 859.35 158.156 861.723 159.96C866.477 163.568 871.282 167.101 876.455 170.025C881.602 172.982 887.007 175.495 892.676 177.318C893.366 177.59 894.101 177.749 894.817 177.957L899.126 179.148L901.319 179.597L905.711 180.483L910.155 181.104C922.042 182.661 934.129 182.49 946.132 181.794L948.383 181.68L955.136 181.11C958.135 180.863 961.135 180.604 964.153 180.325L973.189 179.502C976.202 179.211 979.22 179.015 982.232 178.768C985.251 178.54 988.263 178.28 991.281 178.078L1000.34 177.489C1003.36 177.28 1006.38 177.122 1009.4 176.97L1018.47 176.52C1030.56 176.008 1042.67 175.71 1054.77 175.596C1066.87 175.52 1078.97 175.603 1091.05 175.843L1109.16 176.16C1112.18 176.204 1115.2 176.286 1118.2 176.305L1122.72 176.356L1127.22 176.349C1139.21 176.375 1151.2 175.546 1163.14 174.204C1169.11 173.507 1175.07 172.678 1180.99 171.64C1183.95 171.114 1186.91 170.589 1189.86 169.968C1192.81 169.367 1195.75 168.721 1198.66 167.981L1198.95 168.88C1193.21 170.867 1187.36 172.418 1181.46 173.83C1175.55 175.204 1169.61 176.407 1163.61 177.35C1157.61 178.299 1151.59 179.141 1145.53 179.673C1144.02 179.838 1142.5 179.952 1140.98 180.066C1139.47 180.18 1137.95 180.306 1136.43 180.407C1133.39 180.566 1130.34 180.73 1127.3 180.781L1122.75 180.889L1118.2 180.939C1115.17 180.983 1112.14 180.977 1109.12 180.977L1090.99 180.832C1078.91 180.737 1066.85 180.591 1054.79 180.559C1048.76 180.547 1042.73 180.528 1036.69 180.597C1030.66 180.616 1024.64 180.724 1018.61 180.8C1006.55 181.078 994.493 181.357 982.451 182.009C979.439 182.167 976.427 182.275 973.415 182.478L964.385 183.066L955.336 183.642L948.532 184.06L946.261 184.142C943.23 184.237 940.205 184.402 937.173 184.44C934.135 184.434 931.104 184.484 928.073 184.427L923.519 184.25C922.003 184.18 920.481 184.193 918.966 184.029L914.419 183.649C913.664 183.579 912.903 183.541 912.148 183.446L909.884 183.136L905.357 182.522L900.867 181.636L898.623 181.186L894.198 180.009C893.463 179.8 892.715 179.648 891.999 179.375L887.665 177.894C886.936 177.666 886.239 177.343 885.536 177.052L883.427 176.16C882.731 175.856 882.015 175.583 881.324 175.254L879.28 174.235C877.919 173.545 876.526 172.912 875.229 172.121C873.913 171.361 872.579 170.62 871.282 169.835L867.444 167.386C866.161 166.575 864.942 165.689 863.684 164.841L861.814 163.556L859.982 162.226C857.531 160.466 855.119 158.668 852.713 156.864C850.301 155.06 847.914 153.218 845.547 151.376C836.047 144.038 826.578 136.752 816.6 130.225C806.661 123.661 796.29 117.799 785.48 112.987C774.663 108.208 763.415 104.447 751.876 102.263C746.123 101.105 740.293 100.402 734.449 100.035C728.605 99.6173 722.742 99.7374 716.912 100.111L712.539 100.491C711.81 100.535 711.081 100.636 710.359 100.738L708.185 101.035C705.276 101.364 702.406 101.966 699.53 102.491L698.452 102.694L697.375 102.941L695.228 103.441C693.802 103.789 692.351 104.068 690.945 104.473C688.12 105.277 685.269 105.992 682.495 106.961C676.891 108.708 671.453 110.924 666.113 113.329L662.146 115.216C660.824 115.842 659.553 116.57 658.251 117.241L656.309 118.267C655.664 118.609 655.039 118.995 654.407 119.356L650.614 121.565C645.641 124.661 640.791 127.953 636.153 131.529C634.979 132.409 633.864 133.359 632.716 134.264L631.006 135.644C630.439 136.113 629.891 136.6 629.336 137.075L626.008 139.955L622.77 142.937C618.5 146.963 614.347 151.129 610.412 155.503L608.922 157.13L607.471 158.795L604.575 162.131C602.698 164.397 600.783 166.645 598.964 168.968C584.252 187.434 571.488 207.47 558.852 227.652L539.845 257.963C533.446 268.047 526.977 278.138 519.863 287.9C512.755 297.655 504.861 306.974 496.179 315.476C487.517 323.997 478.184 331.739 468.664 339.145C466.31 341.032 463.878 342.811 461.485 344.64L457.887 347.369L454.049 350.009C453.404 350.439 452.772 350.907 452.114 351.306L446.167 354.839L442.117 356.991C440.762 357.694 439.427 358.454 438.047 359.093C427.114 364.487 415.892 369.089 404.585 373.413C393.266 377.705 381.837 381.655 370.362 385.447C367.486 386.384 364.622 387.34 361.745 388.251L353.109 390.986C347.336 392.759 341.564 394.544 335.772 396.247C324.195 399.697 312.578 403.008 300.936 406.211C289.294 409.427 277.627 412.535 265.933 415.536C242.546 421.556 219.081 427.241 195.507 432.514L195.294 431.609Z" fill="url(#paint7_linear_45_3350)"/>
<path d="M223.235 465.18C267.255 452.494 311.308 439.915 355.289 427.102C377.27 420.67 399.283 414.333 421.187 407.711C443.116 401.077 465.085 394.652 486.498 386.802C507.886 378.958 528.809 369.716 547.913 357.605C552.673 354.567 557.349 351.395 561.839 348.002C566.328 344.596 570.662 341.013 574.822 337.24C583.123 329.624 590.985 321.464 598.783 313.235C614.359 296.756 629.678 279.923 646.009 263.989C654.174 256.026 662.565 248.258 671.318 240.87C680.07 233.489 689.171 226.462 698.781 220.1C708.398 213.769 718.524 208.091 729.212 203.527C729.876 203.242 730.534 202.931 731.211 202.665L737.326 200.33C738.699 199.842 740.092 199.418 741.473 198.956L743.55 198.278L744.588 197.943L745.646 197.658C748.471 196.924 751.283 196.088 754.127 195.544L758.391 194.638L764.834 193.518L766.995 193.22L771.316 192.638C772.761 192.473 774.212 192.353 775.657 192.207L777.824 191.998C778.547 191.929 779.275 191.904 779.997 191.859L784.351 191.6L788.711 191.486L790.891 191.435L793.071 191.454C794.523 191.473 795.974 191.467 797.432 191.505C803.236 191.688 809.028 192.113 814.794 192.746C820.554 193.429 826.275 194.303 831.964 195.36C843.329 197.512 854.513 200.355 865.574 203.375C871.108 204.875 876.616 206.407 882.137 207.812C887.652 209.211 893.179 210.503 898.72 211.376C900.106 211.63 901.493 211.756 902.873 211.94C904.26 212.098 905.64 212.18 907.027 212.288L909.091 212.345L910.123 212.37L911.149 212.332L913.199 212.263L915.296 212.079C920.888 211.579 926.473 210.648 932.026 209.509C943.139 207.205 954.137 204.109 965.146 201.001C976.156 197.886 987.192 194.721 998.318 191.859C1009.45 189.004 1020.68 186.434 1032.03 184.434C1037.71 183.433 1043.4 182.547 1049.13 181.857C1054.85 181.123 1060.6 180.623 1066.36 180.236C1069.24 180.085 1072.12 179.895 1075.01 179.844C1076.45 179.812 1077.89 179.743 1079.33 179.736L1083.66 179.724C1085.11 179.705 1086.55 179.743 1087.98 179.774L1096.61 179.977L1100.93 180.186C1112.43 180.692 1123.9 181.775 1135.31 183.18C1146.71 184.573 1158.05 186.263 1169.41 187.656C1180.77 189.055 1192.16 190.156 1203.6 190.625C1215.03 191.125 1226.47 191.087 1237.92 190.688L1237.99 192.036C1226.51 192.625 1215.01 192.866 1203.52 192.53C1192.02 192.201 1180.55 191.233 1169.14 189.973C1157.72 188.713 1146.35 187.168 1134.98 185.921C1123.61 184.655 1112.21 183.756 1100.79 183.313L1096.51 183.136L1092.23 183.066L1087.94 183.003C1086.52 182.977 1085.09 182.952 1083.67 182.984L1079.4 183.028C1077.97 183.047 1076.55 183.123 1075.13 183.167C1072.28 183.243 1069.44 183.452 1066.6 183.623C1060.91 184.047 1055.24 184.585 1049.59 185.351C1043.94 186.073 1038.31 186.991 1032.71 188.023C1021.49 190.087 1010.39 192.72 999.35 195.639C988.314 198.57 977.349 201.805 966.34 205.008C955.336 208.198 944.268 211.338 932.943 213.744C927.28 214.928 921.539 215.915 915.708 216.46L913.522 216.656L910.149 216.789L906.801 216.713C905.324 216.605 903.847 216.523 902.383 216.359C900.925 216.169 899.455 216.036 898.016 215.782C892.231 214.89 886.581 213.592 880.989 212.193C875.397 210.788 869.863 209.275 864.336 207.8C853.294 204.812 842.251 202.013 831.08 199.918C825.495 198.892 819.883 198.038 814.253 197.379C808.616 196.765 802.965 196.36 797.302 196.189C795.89 196.151 794.471 196.158 793.058 196.145L790.936 196.126L784.571 196.297L780.339 196.557C779.636 196.607 778.927 196.633 778.224 196.696L776.115 196.905C774.709 197.05 773.302 197.171 771.896 197.329L767.698 197.899L765.602 198.19L763.512 198.557L759.339 199.285L755.198 200.171C752.412 200.709 749.735 201.513 747.013 202.21L745.994 202.482L744.988 202.805L742.982 203.457C741.647 203.9 740.305 204.305 738.977 204.774L733.062 207.033C732.411 207.293 731.772 207.591 731.121 207.869C720.762 212.282 710.881 217.802 701.445 223.999C692.022 230.222 683.057 237.129 674.407 244.409C665.758 251.695 657.438 259.374 649.324 267.269C633.103 283.076 617.746 299.763 602.085 316.254C594.236 324.484 586.296 332.675 577.815 340.411C573.539 344.26 569.082 347.926 564.483 351.389C559.878 354.845 555.105 358.074 550.229 361.144C530.673 373.368 509.434 382.579 487.833 390.353C466.207 398.127 444.129 404.439 422.187 410.934C411.196 414.175 400.186 417.365 389.17 420.512C378.16 423.671 367.131 426.779 356.102 429.868L289.888 448.297C267.81 454.424 245.719 460.47 223.609 466.49L223.235 465.18Z" fill="url(#paint8_linear_45_3350)"/>
<path d="M253.253 501.549C296.054 488.141 338.868 474.771 381.611 461.185L445.722 440.808L477.739 430.501L485.737 427.912L509.608 419.872C512.272 419.005 514.89 418.03 517.528 417.081L537.265 409.946L556.846 402.419L560.768 400.919L572.435 396.209C582.839 392.094 593.107 387.656 603.42 383.326C613.676 378.85 623.944 374.413 634.135 369.798C654.568 360.669 674.865 351.23 695.337 342.095C715.809 332.973 736.468 324.148 757.584 316.4C762.88 314.507 768.123 312.475 773.503 310.803L781.533 308.189L785.551 306.891C786.893 306.467 788.26 306.113 789.608 305.72C795.026 304.195 800.45 302.631 805.893 301.225L814.059 299.168L822.244 297.187C844.07 291.913 866.006 287.121 887.703 281.449C898.552 278.632 909.342 275.574 919.985 272.13C930.633 268.699 941.147 264.857 951.331 260.33C961.528 255.823 971.486 250.746 981.49 245.726C991.487 240.693 1001.51 235.66 1011.68 230.868C1031.99 221.277 1052.99 212.718 1074.95 206.755L1085.31 204.185L1087.4 203.761L1091.6 202.931C1097.17 201.703 1102.87 201.076 1108.53 200.247C1119.85 198.981 1131.22 198.411 1142.58 198.443C1153.94 198.506 1165.28 199.139 1176.54 200.285C1187.8 201.393 1198.98 203.014 1210.09 204.812C1221.19 206.666 1232.24 208.635 1243.28 210.446C1254.33 212.161 1265.41 213.75 1276.62 213.617L1276.68 214.409C1271.07 215.061 1265.39 215.175 1259.74 215.01C1254.08 214.864 1248.44 214.44 1242.83 213.909C1237.21 213.389 1231.61 212.769 1226.04 212.092L1209.32 210.117C1198.19 208.8 1187.07 207.629 1175.95 206.844C1170.39 206.426 1164.83 206.173 1159.27 205.957C1153.71 205.755 1148.16 205.73 1142.61 205.755C1137.05 205.837 1131.51 206.002 1125.97 206.363C1120.44 206.673 1114.92 207.186 1109.42 207.812C1103.96 208.604 1098.48 209.211 1093.08 210.363L1089.01 211.13L1086.98 211.516L1084.96 211.997L1076.88 213.89C1075.53 214.174 1074.21 214.598 1072.87 214.953L1068.87 216.061L1064.85 217.156C1063.53 217.549 1062.2 217.979 1060.88 218.384L1052.93 220.872L1045.05 223.569C1042.4 224.436 1039.82 225.462 1037.2 226.418C1034.6 227.393 1031.98 228.336 1029.4 229.38L1021.62 232.444L1013.89 235.654C1003.61 239.99 993.39 244.517 983.2 249.157C978.104 251.474 973.002 253.791 967.875 256.076C962.747 258.349 957.62 260.634 952.402 262.755C931.524 271.238 909.833 277.264 888.193 283.209L823.211 300.795L806.99 305.226C805.636 305.581 804.294 305.98 802.959 306.379L798.947 307.569L790.904 309.898C789.569 310.297 788.215 310.652 786.886 311.082L782.906 312.386L774.941 314.976C769.607 316.615 764.389 318.622 759.126 320.483C717.125 335.771 676.768 355.25 635.779 373.368C625.563 377.958 615.25 382.37 604.962 386.821C594.61 391.132 584.303 395.544 573.854 399.64L562.135 404.324L558.201 405.812L538.51 413.225L518.663 420.239C516.019 421.176 513.381 422.126 510.704 422.981L486.711 430.875L478.687 433.407L446.593 443.491C425.179 450.17 403.759 456.83 382.314 463.395L317.938 482.975L285.728 492.686L253.485 502.302L253.253 501.549Z" fill="url(#paint9_linear_45_3350)"/>
<path d="M283.754 537.962C305.626 531.79 327.458 525.453 349.239 518.977C371.014 512.463 392.73 505.777 414.35 498.808L430.539 493.503L446.657 488.014C457.338 484.203 468.058 480.437 478.474 476.037L482.389 474.416L486.279 472.701L494.051 469.244L509.562 462.255L540.567 448.195C561.252 438.851 581.93 429.488 602.679 420.252C613.057 415.637 623.486 411.136 633.96 406.711C639.204 404.514 644.461 402.349 649.73 400.197L661.65 395.506L665.648 394.006C676.278 389.916 687.133 386.321 698.033 382.94L700.078 382.294L702.135 381.699L714.48 378.154C717.228 377.388 719.995 376.698 722.755 375.97L731.037 373.824C753.173 368.31 775.534 363.835 797.877 359.486C820.225 355.149 842.593 351.047 864.794 346.274C886.974 341.443 908.988 335.879 930.337 328.409C941.011 324.655 951.576 320.546 962.063 316.254C972.557 311.969 982.993 307.543 993.41 303.036C1014.24 294.04 1035.02 284.874 1056.04 276.207C1077.07 267.541 1098.34 259.292 1120.26 252.715C1131.23 249.454 1142.36 246.561 1153.73 244.643C1155.15 244.409 1156.58 244.149 1158 243.941L1170.77 242.231L1183.58 240.902C1185 240.763 1186.43 240.674 1187.85 240.554L1196.41 239.914C1199.26 239.712 1202.11 239.598 1204.96 239.433C1210.67 239.085 1216.38 238.939 1222.09 238.743C1233.5 238.484 1244.92 238.395 1256.32 238.585C1267.73 238.762 1279.12 239.11 1290.51 239.648C1296.2 239.895 1301.89 240.187 1307.57 240.484C1313.24 240.737 1318.96 241.155 1324.54 241.123L1324.64 243.023C1318.84 243.295 1313.19 243.143 1307.48 243.08L1290.4 242.814C1279.03 242.662 1267.66 242.554 1256.3 242.674C1253.47 242.719 1250.62 242.693 1247.78 242.763L1239.27 242.921C1236.43 242.959 1233.59 243.092 1230.76 243.175C1227.92 243.282 1225.08 243.333 1222.25 243.491C1216.59 243.763 1210.92 243.985 1205.26 244.403C1202.44 244.599 1199.6 244.751 1196.78 244.992L1188.32 245.738C1186.9 245.865 1185.49 245.966 1184.09 246.112L1171.43 247.517L1158.84 249.296C1157.45 249.511 1156.07 249.771 1154.69 250.012C1149.17 250.967 1143.68 252.215 1138.2 253.519C1135.48 254.24 1132.74 254.899 1130.03 255.665C1127.32 256.443 1124.59 257.165 1121.9 258.007C1111.09 261.248 1100.37 264.863 1089.74 268.744C1079.1 272.599 1068.52 276.663 1058 280.873C1036.95 289.286 1016.06 298.162 995.093 306.891C984.606 311.247 974.112 315.609 963.547 319.818C952.976 324.009 942.372 328.149 931.588 331.878C910.013 339.367 887.858 345.014 865.632 350.002C843.386 354.953 821.038 359.296 798.754 363.816C776.469 368.317 754.256 373.071 732.269 378.591L715.841 382.94L703.599 386.453L701.561 387.042L699.536 387.682C688.732 391.056 677.987 394.531 667.383 398.519C646.112 406.281 625.06 414.751 604.111 423.462C583.149 432.153 562.367 441.263 541.65 450.518L510.569 464.408L495.005 471.314L487.208 474.733L483.299 476.429L479.339 478.044C468.813 482.424 458.061 486.128 447.328 489.894L431.165 495.332L414.95 500.606C393.298 507.55 371.543 514.159 349.762 520.667C327.981 527.181 306.154 533.562 284.276 539.773L283.754 537.962Z" fill="url(#paint10_linear_45_3350)"/>
<path d="M315.171 576.123C326.362 573.312 337.5 570.311 348.607 567.184C359.72 564.076 370.801 560.879 381.862 557.58C403.966 550.959 425.96 543.995 447.792 536.576C469.612 529.137 491.258 521.154 512.414 512.108C522.998 507.601 533.395 502.669 543.792 497.732C554.183 492.781 564.541 487.755 574.899 482.722L637.024 452.456C657.76 442.396 678.6 432.521 699.678 423.107C702.303 421.911 704.954 420.771 707.605 419.613C710.256 418.467 712.887 417.29 715.551 416.169L723.523 412.776C726.18 411.649 728.87 410.573 731.54 409.471C742.253 405.122 753.012 400.868 763.944 397.007C766.659 396.006 769.407 395.076 772.148 394.126C774.889 393.183 777.624 392.22 780.397 391.347C783.164 390.473 785.918 389.549 788.705 388.72L797.057 386.225L805.481 383.908C808.293 383.149 811.137 382.497 813.969 381.801C819.657 380.484 825.404 379.3 831.093 378.3C836.795 377.242 842.503 376.211 848.237 375.35L856.828 373.995C859.692 373.527 862.568 373.185 865.439 372.78L874.049 371.608C876.919 371.235 879.796 370.906 882.672 370.551L891.296 369.513L899.926 368.57C905.679 367.924 911.432 367.348 917.185 366.772L934.439 365.069C945.932 363.885 957.426 362.771 968.887 361.404L981.774 359.834L986.057 359.251L994.622 358.067C997.473 357.65 1000.32 357.168 1003.16 356.725C1014.56 354.972 1025.86 352.743 1037.09 350.249C1039.9 349.616 1042.68 348.875 1045.47 348.198L1051.75 346.641C1052.45 346.464 1053.14 346.248 1053.83 346.052L1066.25 342.443L1070.38 341.146C1081.39 337.715 1092.36 334.176 1103.33 330.612L1136.19 319.78C1147.15 316.166 1158.13 312.583 1169.17 309.183C1191.25 302.365 1213.63 296.351 1236.23 291.419L1244.71 289.59C1247.54 288.976 1250.38 288.425 1253.21 287.849C1258.87 286.691 1264.55 285.621 1270.24 284.545C1281.61 282.424 1293 280.449 1304.43 278.664C1315.85 276.872 1327.3 275.226 1338.77 273.795C1344.51 273.086 1350.25 272.403 1356 271.789C1361.75 271.155 1367.5 270.605 1373.27 270.149L1373.36 271.042C1361.9 272.415 1350.46 274.011 1339.06 275.77C1327.65 277.524 1316.26 279.404 1304.9 281.411C1293.53 283.392 1282.21 285.583 1270.89 287.811C1265.24 288.957 1259.58 290.09 1253.95 291.318C1251.13 291.932 1248.31 292.489 1245.49 293.129L1237.06 295.015C1234.24 295.623 1231.45 296.326 1228.65 296.984C1225.85 297.655 1223.04 298.301 1220.26 299.022L1211.88 301.124L1203.53 303.334C1192.41 306.328 1181.36 309.531 1170.33 312.867C1159.31 316.242 1148.32 319.711 1137.33 323.205L1104.35 333.726C1093.35 337.202 1082.33 340.646 1071.28 343.988L1067.14 345.248L1054.59 348.774C1053.21 349.185 1051.8 349.527 1050.39 349.869L1046.17 350.907C1043.36 351.585 1040.55 352.326 1037.73 352.959C1026.41 355.421 1015.06 357.719 1003.63 359.536C1000.77 359.998 997.918 360.492 995.054 360.923L986.47 362.182L982.18 362.822L969.287 364.563L952.085 366.772L934.884 368.918L917.701 371.146C911.98 371.906 906.253 372.653 900.551 373.476C877.706 376.673 854.971 380.421 832.448 385.048C826.785 386.137 821.238 387.378 815.697 388.752L811.55 389.828C810.17 390.195 808.777 390.505 807.403 390.91L799.141 393.221L790.923 395.715C788.182 396.544 785.467 397.469 782.745 398.342C780.011 399.197 777.295 400.121 774.58 401.045C771.864 401.963 769.143 402.869 766.447 403.843C744.807 411.478 723.387 419.86 702.109 428.609C680.819 437.332 659.702 446.505 638.669 455.887C628.175 460.622 617.688 465.383 607.245 470.232C596.809 475.1 586.367 479.955 575.964 484.893C565.554 489.812 555.137 494.737 544.682 499.586C534.22 504.423 523.752 509.253 513.084 513.665L505.08 516.957C502.41 518.053 499.707 519.059 497.018 520.11C494.322 521.142 491.651 522.224 488.936 523.205L480.816 526.194L476.752 527.681L472.67 529.118L464.517 532.011C459.073 533.91 453.604 535.759 448.147 537.62C426.263 544.945 404.217 551.775 382.082 558.327C371.02 561.625 359.933 564.823 348.82 567.931C337.7 571.039 326.568 574.084 315.384 576.958L315.171 576.123Z" fill="url(#paint11_linear_45_3350)"/>
<path d="M348.343 616.106C370.943 609.921 393.466 603.439 415.917 596.76C438.363 590.043 460.725 583.067 482.989 575.812C527.5 561.265 571.687 545.622 614.224 526.257C656.864 507.088 698.53 485.849 740.731 465.61C751.302 460.584 761.854 455.52 772.522 450.671C777.843 448.227 783.151 445.745 788.531 443.415C793.903 441.067 799.244 438.655 804.642 436.351C826.204 427.096 848.121 418.524 870.579 411.313L879.009 408.642L896.101 403.945L904.757 402.008C907.646 401.368 910.523 400.71 913.412 400.096L922.139 398.532L926.499 397.76C927.957 397.507 929.401 397.222 930.866 397.044L939.637 395.829C945.474 394.936 951.344 394.411 957.2 393.765L961.593 393.303L974.789 392.221C980.652 391.752 986.521 391.442 992.384 391.011L1009.96 389.935C1021.67 389.226 1033.37 388.429 1045.05 387.492L1053.8 386.707C1056.71 386.435 1059.64 386.219 1062.55 385.871L1075.65 384.44C1077.1 384.282 1078.56 384.13 1080.01 383.921C1103.26 381.148 1126.35 377.021 1149.21 371.963C1172.1 367.012 1194.62 360.568 1217.23 354.351L1352.74 316.767L1420.45 297.832L1420.71 298.719L1352.99 317.628L1192.26 362.917C1189.44 363.714 1186.63 364.537 1183.78 365.265L1162.52 370.912L1149.66 373.906C1126.79 379.173 1103.66 383.516 1080.35 386.498C1078.9 386.719 1077.44 386.884 1075.97 387.055L1062.84 388.599C1059.93 388.973 1057 389.213 1054.08 389.511L1045.31 390.372C1039.46 390.942 1033.61 391.41 1027.76 391.929L1010.2 393.36C986.818 395.247 963.47 397.367 940.457 401.178L931.839 402.641C930.401 402.862 928.982 403.191 927.55 403.476L923.274 404.362L914.728 406.122C911.897 406.794 909.085 407.515 906.26 408.211L897.804 410.32L881.073 415.2L872.798 417.96L864.51 420.689C863.123 421.126 861.756 421.632 860.388 422.132L843.98 428.121L839.904 429.704C834.479 431.831 829.029 433.901 823.618 436.072L807.429 442.719C785.906 451.747 764.544 461.204 743.227 470.795C721.93 480.436 700.69 490.23 679.432 500.004C658.186 509.804 636.908 519.572 615.443 528.941L607.394 532.461L589.16 540.102L583.026 542.514C572.145 546.882 561.142 550.921 550.132 554.934L533.556 560.784L512.749 567.829L508.569 569.19L491.864 574.66L483.486 577.325C461.157 584.441 438.724 591.246 416.234 597.836C393.743 604.439 371.201 610.852 348.562 616.967L348.343 616.106Z" fill="url(#paint12_linear_45_3350)"/>
<path d="M383.681 658.426C406.449 651.671 429.178 644.802 451.895 637.877C474.598 630.913 497.276 623.861 519.928 616.752C542.579 609.63 565.205 602.426 587.805 595.152L621.674 584.137C632.967 580.459 644.209 576.73 655.367 572.729C677.664 564.683 699.665 555.859 721.465 546.578C743.259 537.278 764.853 527.51 786.434 517.711C808.028 507.924 829.571 497.997 851.365 488.565C873.139 479.094 895.146 470.061 917.592 462.065C928.834 458.134 940.173 454.431 951.673 451.215C954.549 450.417 957.413 449.588 960.316 448.872L964.656 447.765L966.823 447.208L969.01 446.701C971.919 446.043 974.828 445.334 977.743 444.72L986.489 442.903C1009.8 438.066 1033.26 434.002 1056.73 430.102C1103.64 422.278 1150.67 415.162 1197.1 405.116C1220.31 400.102 1243.38 394.436 1266.22 387.992L1283.32 383.048L1334.55 367.829L1471.12 327.092L1471.67 328.909L1335.07 369.506L1283.86 384.788L1266.74 389.758C1243.86 396.221 1220.79 402.046 1197.56 407.142C1174.33 412.269 1150.94 416.656 1127.51 420.765C1104.09 424.88 1080.61 428.665 1057.21 432.806C1033.81 436.946 1010.5 441.491 987.353 446.733C964.147 451.652 941.592 458.704 919.327 466.712C897.088 474.771 875.171 483.735 853.403 493.072C831.628 502.404 809.963 512.026 788.26 521.591C777.411 526.377 766.537 531.131 755.636 535.822C744.743 540.526 733.81 545.147 722.833 549.673C700.903 558.783 678.761 567.412 656.335 575.306C645.132 579.275 633.819 582.972 622.525 586.606L588.605 597.488C565.966 604.68 543.308 611.795 520.624 618.828C497.934 625.855 475.224 632.806 452.494 639.7C429.772 646.619 407.036 653.488 384.255 660.23L383.681 658.426Z" fill="url(#paint13_linear_45_3350)"/>
<path d="M420.032 703.372L419.465 701.555C421.458 700.954 620.467 640.7 756.023 594.943C803.494 578.921 848.23 562.632 891.496 546.888C974.099 516.818 1052.12 488.419 1139.92 464.92C1259.38 432.945 1397.92 394.949 1519.71 355.573L1520.32 357.377C1398.48 396.766 1259.92 434.774 1140.43 466.75C1052.72 490.23 974.731 518.616 892.167 548.667C848.888 564.417 804.139 580.712 756.649 596.741C621.061 642.504 422.025 702.765 420.032 703.372Z" fill="url(#paint14_linear_45_3350)"/>
<path d="M967.5 151.135C964.153 151.135 960.844 151.078 957.568 150.958C884.64 148.312 804.662 108.182 803.862 107.777L804.752 106.087C805.545 106.492 885.156 146.425 957.645 149.052C1030.19 151.686 1122.19 123.673 1123.1 123.388L1123.68 125.199C1122.79 125.49 1038.56 151.135 967.5 151.135Z" fill="url(#paint15_linear_45_3350)"/>
<path d="M981.619 172.33C980.897 172.33 980.181 172.33 979.458 172.323C928.402 172.159 891.386 163.568 869.321 156.389C845.367 148.596 833.318 140.709 833.196 140.633L834.279 139.056C834.395 139.132 846.289 146.906 870.031 154.617C891.941 161.732 928.718 170.253 979.465 170.424C1086.33 170.766 1158.81 145.02 1159.53 144.76L1160.2 146.539C1159.47 146.811 1087.65 172.33 981.619 172.33Z" fill="url(#paint16_linear_45_3350)"/>
<path d="M982.929 118.387C978.272 118.387 973.602 118.28 968.926 118.071C936.741 116.621 904.544 110.328 867.593 98.2814C803.72 77.4477 774.38 74.3076 774.09 74.2823L774.289 72.3958C774.58 72.4275 804.088 75.5675 868.206 96.4835C920.63 113.582 992.436 129.44 1083.17 100.048L1083.77 101.852C1049.52 112.943 1016.38 118.387 982.929 118.387Z" fill="url(#paint17_linear_45_3350)"/>
<path d="M929.621 71.5223C913.038 71.5223 896.198 70.2244 879.177 67.6226C830.803 60.2349 781.249 56.6138 780.752 56.5758L780.894 54.683C781.391 54.721 831.016 58.3484 879.473 65.7424C925.409 72.7567 969.945 70.2434 1011.86 58.266L1012.4 60.0893C985.754 67.7049 958.058 71.5223 929.621 71.5223Z" fill="url(#paint18_linear_45_3350)"/>
<path d="M823.45 60.5071L823.379 58.6079C927.421 54.7336 979.059 39.5341 979.568 39.3822L980.136 41.199C979.62 41.3509 927.783 56.6265 823.45 60.5071Z" fill="url(#paint19_linear_45_3350)"/>
<path d="M948.483 20.9067L780.623 54.5201L781.01 56.3809L948.87 22.7675L948.483 20.9067Z" fill="url(#paint20_linear_45_3350)"/>
<path d="M320.324 150.034L320.299 148.134C320.679 148.128 359.075 147.514 401.502 139.449C443.993 131.377 525.661 111.702 526.48 111.506L526.945 113.348C526.126 113.544 444.406 133.232 401.87 141.31C359.262 149.407 320.705 150.027 320.324 150.034Z" fill="url(#paint21_linear_45_3350)"/>
<path d="M392.44 162.226C372.336 162.226 355.734 160.542 355.47 160.517L355.67 158.63C356.102 158.675 399.032 163.03 430.365 157.643C464.497 151.774 503.384 139.607 503.771 139.48L504.364 141.291C503.97 141.411 464.968 153.623 430.7 159.517C418.626 161.58 404.862 162.226 392.44 162.226Z" fill="url(#paint22_linear_45_3350)"/>
<path d="M137.053 361.682C142.922 357.782 148.862 353.99 154.854 350.274L159.343 347.483L163.864 344.735C166.877 342.899 169.895 341.082 172.933 339.291C185.059 332.087 197.32 325.091 209.736 318.375C234.535 304.878 259.857 292.242 285.831 280.968L295.576 276.745C298.84 275.372 302.136 274.068 305.412 272.725L315.268 268.775L330.032 262.97L344.743 257.064L354.502 253.012L359.385 250.999L364.235 248.916C377.193 243.409 390.022 237.61 402.554 231.286L407.262 228.918L416.537 223.942C418.065 223.094 419.575 222.202 421.097 221.334L425.65 218.713L430.114 215.953C431.597 215.023 433.1 214.124 434.551 213.155L441.053 208.737C441.775 208.249 442.458 207.705 443.168 207.192L447.373 204.077C448.083 203.571 448.76 203.026 449.431 202.469L451.456 200.823L454.488 198.342L455.461 197.475L459.338 193.993L460.305 193.119L461.227 192.201L463.079 190.372C465.601 187.985 467.877 185.37 470.231 182.826C474.753 177.609 478.874 171.982 482.976 166.341L495.212 149.299C503.435 137.961 511.826 126.693 520.94 115.95C525.487 110.575 530.157 105.289 535.059 100.206C539.941 95.1034 544.959 90.115 550.242 85.3924L552.209 83.6072L554.221 81.8726C555.569 80.7205 556.904 79.5557 558.265 78.4162C561.032 76.1942 563.76 73.9216 566.631 71.8135C569.436 69.6295 572.371 67.6163 575.286 65.5652C576.744 64.546 578.26 63.6028 579.75 62.6215L581.988 61.1592C582.729 60.6654 583.51 60.2286 584.271 59.7665L588.863 57.0126L593.559 54.4235L595.913 53.1321L598.312 51.9293L603.117 49.5364L608.026 47.3397L610.483 46.2444L617.991 43.2627L623.073 41.4586C636.689 36.85 650.923 33.8049 665.378 32.792C679.819 31.7475 694.453 32.7731 708.63 35.8941C722.8 39.0213 736.513 44.1996 749.18 51.1632C755.508 54.6577 761.577 58.5953 767.369 62.862L769.529 64.4763C770.252 65.0081 770.968 65.5526 771.664 66.1287L775.857 69.5218L779.92 73.0542C781.281 74.2254 782.552 75.4915 783.874 76.7006C784.525 77.3147 785.19 77.916 785.828 78.5491L787.724 80.4546C788.982 81.727 790.272 82.9742 791.472 84.3036L795.116 88.2412C796.296 89.6149 797.49 90.9823 798.605 92.394C800.863 95.2048 802.985 98.1042 804.971 101.073C806.984 104.03 808.835 107.062 810.628 110.126C817.723 122.42 823.411 135.283 828.99 148.103C831.77 154.522 834.537 160.935 837.266 167.36C839.994 173.786 842.638 180.243 845.231 186.719C850.417 199.665 855.402 212.68 860.395 225.683C865.393 238.686 870.399 251.676 875.7 264.54C878.364 270.966 881.086 277.366 883.988 283.69C886.884 290.008 889.941 296.256 893.315 302.321C894.998 305.353 896.791 308.329 898.7 311.215C900.616 314.102 902.66 316.9 904.937 319.483C906.066 320.787 907.279 321.996 908.562 323.199L912.367 326.807C913.612 328.029 914.947 329.162 916.263 330.321L920.21 333.784C930.885 342.862 942.275 351.11 953.756 359.232C965.243 367.348 976.84 375.331 988.159 383.706C999.479 392.069 1010.51 400.837 1020.92 410.288C1023.52 412.656 1026.05 415.099 1028.61 417.505C1031.15 419.929 1033.63 422.411 1036.14 424.861L1051.12 439.642L1081 469.276L1140.52 528.777L1140.1 529.188C1120.33 509.291 1100.46 489.483 1080.55 469.719L1050.61 440.136L1035.56 425.431C1033.04 422.993 1030.54 420.524 1027.99 418.119C1025.43 415.738 1022.9 413.314 1020.29 410.965C1009.86 401.59 998.814 392.898 987.469 384.605C976.13 376.299 964.501 368.38 952.963 360.315C941.437 352.237 929.976 344.013 919.146 334.992C913.793 330.39 908.485 325.826 903.583 320.648C901.209 317.995 899.094 315.153 897.12 312.234C895.153 309.31 893.308 306.315 891.58 303.258C888.11 297.155 884.981 290.888 882.014 284.564C879.047 278.233 876.255 271.833 873.527 265.407C868.096 252.55 862.975 239.585 857.86 226.62C852.752 213.662 847.656 200.697 842.374 187.82C839.729 181.382 837.04 174.969 834.266 168.588C831.499 162.207 828.604 155.883 825.488 149.666C819.232 137.252 812.234 125.199 804.533 113.785C802.598 110.936 800.65 108.113 798.612 105.365C797.619 103.973 796.554 102.637 795.535 101.269C794.478 99.94 793.439 98.5853 792.343 97.2939C791.278 95.9708 790.156 94.7046 789.047 93.4322L785.564 89.6465C784.422 88.3678 783.184 87.1714 781.984 85.9496L780.172 84.12C779.565 83.5123 778.927 82.9362 778.308 82.3474C777.05 81.1826 775.831 79.9671 774.535 78.8466L770.665 75.4535L766.672 72.2059C766.014 71.6551 765.331 71.136 764.64 70.6233L762.583 69.0723C757.075 64.9765 751.302 61.2352 745.317 57.8736C733.339 51.1443 720.388 46.1306 706.966 43.0349C693.544 39.9456 679.651 38.7238 665.829 39.5468C652.014 40.3444 638.288 42.9779 625.073 47.213L620.138 48.8717L615.263 50.7138L612.824 51.638L610.431 52.6636L605.639 54.7084L600.938 56.9494L598.583 58.0763L596.281 59.2917L591.675 61.729L587.16 64.3371C586.412 64.7802 585.645 65.1918 584.91 65.6539L582.704 67.0402C581.24 67.9772 579.743 68.8634 578.305 69.8383C575.428 71.7944 572.526 73.7127 569.746 75.7954C566.908 77.8022 564.199 79.9862 561.445 82.1133C560.09 83.2021 558.762 84.3289 557.42 85.4305L555.415 87.1017L553.454 88.8235C542.947 97.9585 533.227 107.98 524.12 118.52C514.974 129.035 506.467 140.095 498.204 151.357L485.84 168.31C481.674 173.944 477.475 179.591 472.786 184.934C470.38 187.529 468.051 190.201 465.472 192.644L462.634 195.449L457.687 199.886L456.693 200.773L455.661 201.615L453.604 203.299L451.553 204.989C450.876 205.559 450.185 206.122 449.469 206.641L445.225 209.844C444.516 210.37 443.819 210.927 443.09 211.427L440.904 212.94C429.282 221.056 417.04 228.247 404.508 234.837C391.963 241.408 379.205 247.574 366.247 253.259L361.397 255.424L356.521 257.519L346.75 261.666L332.012 267.693L317.19 273.485L307.373 277.385C304.103 278.689 300.82 279.942 297.563 281.278L287.83 285.374C274.853 290.837 262.063 296.718 249.293 302.656C236.606 308.765 223.932 314.906 211.426 321.388C205.15 324.579 198.939 327.896 192.695 331.156C186.491 334.493 180.286 337.822 174.12 341.222C161.788 348.021 149.507 354.94 137.401 362.138L137.053 361.682Z" fill="url(#paint23_linear_45_3350)"/>
<path d="M71.5802 183.465C71.9608 185.149 72.6704 186.934 73.5476 188.548C73.754 188.966 73.9861 189.365 74.2376 189.758C74.4827 190.15 74.7084 190.562 74.9793 190.941L75.805 192.075L76.2242 192.638L76.6821 193.17C79.0879 196.044 82.1 198.437 85.4411 200.209C87.0858 201.159 88.8916 201.786 90.6589 202.463L93.4067 203.235C94.3096 203.533 95.2707 203.615 96.1995 203.799C98.0635 204.153 99.9662 204.375 101.882 204.539C103.791 204.723 105.707 204.856 107.635 204.97C111.486 205.198 115.362 205.464 119.264 205.976C123.153 206.521 127.062 207.388 130.816 208.768C134.569 210.148 138.162 211.984 141.51 214.149C144.851 216.327 147.946 218.834 150.836 221.524C153.706 224.234 156.402 227.089 158.885 230.096C161.407 233.077 163.71 236.211 165.941 239.376C168.134 242.567 170.263 245.789 172.275 249.075C174.333 252.348 176.197 255.658 178.144 258.957C182.001 265.559 185.646 272.263 189.277 278.955C192.908 285.646 196.469 292.363 200.029 299.061C207.162 312.456 214.509 325.693 222.313 338.671C224.261 341.912 226.183 345.178 228.227 348.363C230.259 351.56 232.239 354.788 234.303 357.96L242.159 369.798L247.048 376.787C251.331 383.041 255.942 389.081 260.431 395.196C261.541 396.734 262.734 398.216 263.895 399.716L272.634 410.953C273.221 411.7 273.834 412.428 274.434 413.168L281.645 422L285.257 426.412L288.972 430.748C293.945 436.509 298.827 442.333 303.935 448.018L546.72 722.231L545.269 723.485L300.453 450.981C295.318 445.346 290.352 439.51 285.315 433.761L281.555 429.431L270.538 416.213C269.926 415.479 269.306 414.751 268.707 414.004L259.786 402.78C258.6 401.279 257.387 399.798 256.252 398.26C251.66 392.145 246.958 386.112 242.565 379.851L237.535 372.868L235.909 370.507L229.434 361.036C227.305 357.858 225.254 354.636 223.164 351.433C221.049 348.242 219.069 344.976 217.056 341.728C209.026 328.719 201.551 315.4 194.288 302.023L188.858 291.989L183.485 281.949C179.892 275.27 176.242 268.63 172.514 262.059C170.624 258.792 168.786 255.469 166.819 252.278C164.884 249.056 162.845 245.909 160.756 242.807C159.692 241.269 158.627 239.737 157.531 238.218C156.409 236.73 155.331 235.205 154.164 233.755C153.029 232.273 151.842 230.855 150.668 229.412C149.449 228.019 148.237 226.608 146.94 225.291C141.871 219.923 136.111 215.194 129.39 212.06C126.036 210.49 122.463 209.357 118.774 208.521C115.085 207.679 111.279 207.198 107.454 206.704L101.701 205.951C99.779 205.691 97.8635 205.375 95.9608 204.919C94.0387 204.565 92.1941 203.913 90.3301 203.349C89.4206 202.995 88.5305 202.602 87.6339 202.235L86.9631 201.957C86.7438 201.855 86.531 201.729 86.3181 201.621L85.0219 200.95C81.6035 199.101 78.4947 196.702 75.8825 193.828L75.3859 193.296L74.928 192.733L74.0184 191.6C73.7282 191.214 73.451 190.808 73.1672 190.416C72.8769 190.023 72.606 189.618 72.3609 189.2C71.3161 187.536 70.4129 185.858 69.7098 183.908L71.5802 183.465Z" fill="url(#paint24_linear_45_3350)"/>
<path d="M759.759 33.3808L758.854 35.0596L803.84 58.4102L804.745 56.7314L759.759 33.3808Z" fill="url(#paint25_linear_45_3350)"/>
<path d="M811.021 22.7329C817.729 27.1199 824.65 31.2221 831.648 35.1786C838.652 39.1162 845.734 42.9273 852.926 46.5104C860.137 50.0618 867.393 53.5246 874.804 56.6456C878.48 58.2725 882.227 59.7222 885.962 61.2162C887.819 61.9885 889.722 62.6341 891.605 63.3368C893.495 64.0205 895.372 64.7359 897.268 65.3942L908.749 69.1862C912.632 70.4397 916.412 71.9844 920.165 73.5734C927.615 76.8843 934.787 80.7774 941.604 85.1708C955.285 93.9449 967.546 104.568 979.426 115.355C985.373 120.749 991.249 126.193 997.292 131.378C1003.34 136.562 1009.58 141.475 1016.33 145.52C1030.12 153.749 1043.97 161.872 1058.93 167.24C1066.42 169.911 1074.13 171.95 1081.97 173.577C1089.8 175.21 1097.74 176.425 1105.73 177.603C1113.71 178.787 1121.73 179.844 1129.77 181.268C1137.81 182.674 1145.87 184.668 1153.58 187.688C1161.31 190.682 1168.51 194.854 1175.2 199.551L1177.69 201.33C1178.54 201.906 1179.3 202.583 1180.11 203.204L1184.89 207.002C1185.7 207.622 1186.45 208.3 1187.21 208.964L1189.5 210.965C1191.01 212.307 1192.56 213.617 1194.04 214.985C1205.91 225.956 1216.96 237.623 1227.86 249.385C1238.75 261.153 1249.42 273.086 1260.21 284.88L1268.35 293.68L1276.58 302.371L1284.98 310.886L1289.28 315.026C1290.72 316.406 1292.13 317.805 1293.64 319.103L1298.07 323.079C1298.45 323.408 1298.81 323.75 1299.19 324.066L1302.65 326.858C1305.67 329.397 1308.98 331.669 1312.19 334.043C1315.45 336.366 1318.75 338.645 1322.03 340.943L1331.97 347.723C1345.3 356.694 1358.71 365.544 1372.18 374.318C1385.66 383.092 1399.13 391.86 1412.67 400.545L1453.3 426.564L1452.75 427.406L1432.09 414.928L1411.51 402.318C1397.81 393.879 1384.11 385.434 1370.51 376.837C1356.9 368.234 1343.32 359.612 1329.88 350.749L1319.83 344.051C1316.51 341.772 1313.17 339.519 1309.86 337.208C1306.58 334.841 1303.23 332.6 1300.07 330.004L1297.67 328.111L1296.47 327.162C1296.08 326.839 1295.71 326.497 1295.33 326.168L1290.76 322.161C1289.22 320.844 1287.78 319.432 1286.31 318.046L1281.92 313.88L1273.4 305.34L1265.06 296.649L1256.83 287.868C1245.92 276.125 1235.23 264.217 1224.35 252.499C1213.46 240.801 1202.44 229.222 1190.74 218.441C1189.27 217.099 1187.77 215.808 1186.28 214.491L1184.04 212.522C1183.3 211.864 1182.56 211.199 1181.77 210.598L1177.13 206.901C1176.35 206.299 1175.6 205.635 1174.79 205.084L1172.39 203.362C1165.94 198.823 1159.11 194.854 1151.79 192.005C1144.48 189.131 1136.78 187.2 1128.91 185.814C1121.03 184.402 1113.03 183.332 1105.02 182.136C1097.01 180.939 1088.98 179.654 1080.99 177.957C1073.01 176.261 1065.09 174.127 1057.38 171.329C1049.68 168.519 1042.27 165.018 1035.11 161.182C1027.95 157.339 1021 153.211 1014.13 149.014C1007.1 144.716 1000.74 139.594 994.661 134.283C988.579 128.965 982.748 123.452 976.866 118.02C965.133 107.151 953.137 96.5659 939.792 87.8298C933.136 83.449 926.151 79.5748 918.901 76.2702C915.251 74.6749 911.561 73.143 907.782 71.8642L896.333 67.8823C894.43 67.1859 892.547 66.4388 890.657 65.7171C888.774 64.9764 886.865 64.2991 885.007 63.4951C881.279 61.9314 877.525 60.4186 873.855 58.722C866.451 55.4681 859.214 51.8723 852.029 48.1943C837.717 40.7306 823.772 32.6085 810.434 23.5495L811.021 22.7329Z" fill="url(#paint26_linear_45_3350)"/>
<path d="M1510.43 408.914C1509.28 408.224 1394.5 339.677 1359.65 316.045C1340.02 302.739 1317.71 283.506 1296.14 264.907C1271.82 243.941 1248.84 224.139 1231.48 214.212C1199.18 195.746 1173.7 186.643 1145.38 178.66C1121.19 171.836 1093.7 154.199 1052.1 127.49C1045.5 123.255 1038.67 118.868 1031.44 114.26C979.717 81.3157 861.194 13.8384 860.001 13.161L860.969 11.5152C862.162 12.1926 980.723 79.695 1032.49 112.664C1039.73 117.279 1046.56 121.66 1053.16 125.895C1094.61 152.502 1122 170.082 1145.91 176.824C1174.37 184.851 1199.98 193.999 1232.45 212.567C1249.97 222.588 1273.02 242.447 1297.41 263.47C1318.95 282.031 1341.21 301.225 1360.75 314.469C1395.55 338.069 1510.28 406.591 1511.43 407.281L1510.43 408.914Z" fill="url(#paint27_linear_45_3350)"/>
<path d="M853.796 62.5267C857.357 63.3813 860.724 64.603 864.065 65.9387L866.554 66.9644L869.005 68.0784C870.656 68.7937 872.237 69.6295 873.849 70.4271C880.228 73.7064 886.317 77.4983 892.205 81.5688C903.88 89.8491 914.606 99.3766 924.358 109.771L938.844 125.3C943.714 130.422 948.59 135.543 953.627 140.474C958.671 145.393 963.811 150.204 969.307 154.509C974.795 158.814 980.665 162.562 987.057 165.29L989.449 166.322L991.9 167.246C993.519 167.892 995.209 168.392 996.867 168.955C1000.08 170.013 1003.47 170.589 1006.95 171.038C1013.91 171.912 1021.05 172.298 1028.18 172.741C1035.32 173.178 1042.49 173.64 1049.67 174.336C1056.84 175.039 1064 175.982 1071.12 177.318C1078.24 178.647 1085.31 180.414 1092.2 182.781C1099.09 185.143 1105.8 188.093 1112.12 191.771C1112.93 192.201 1113.7 192.708 1114.47 193.195L1116.78 194.664C1118.3 195.689 1119.77 196.766 1121.26 197.835C1122.68 198.988 1124.14 200.102 1125.52 201.279C1126.86 202.482 1128.24 203.647 1129.56 204.875C1134.85 209.762 1139.8 214.959 1144.53 220.315C1153.93 231.071 1162.51 242.402 1170.91 253.804C1179.29 265.224 1187.48 276.726 1195.88 288.052C1204.28 299.364 1212.89 310.519 1222.29 320.958C1226.98 326.174 1231.88 331.207 1237.04 335.942C1239.61 338.316 1242.27 340.595 1245 342.779L1247.06 344.393C1247.75 344.938 1248.44 345.47 1249.16 345.989L1253.43 349.148C1264.85 357.555 1276.46 365.746 1288.11 373.881C1299.76 382.016 1311.46 390.081 1323.21 398.089C1334.93 406.129 1346.69 414.131 1358.48 422.082L1393.89 445.897L1393.23 446.872L1375.19 435.445L1357.23 423.899C1345.27 416.182 1333.35 408.42 1321.45 400.615C1297.71 384.921 1274.02 369.133 1250.89 352.503L1246.55 349.376C1245.83 348.863 1245.11 348.325 1244.4 347.768L1242.25 346.122C1239.41 343.9 1236.65 341.583 1233.99 339.177C1228.65 334.372 1223.63 329.251 1218.82 323.984C1209.19 313.431 1200.43 302.226 1191.9 290.907C1183.39 279.575 1175.2 268.054 1166.81 256.703C1158.43 245.365 1149.89 234.154 1140.63 223.607C1136 218.346 1131.18 213.256 1126.06 208.515C1124.79 207.325 1123.46 206.198 1122.17 205.033C1120.85 203.9 1119.49 202.862 1118.16 201.773C1116.76 200.766 1115.36 199.747 1113.94 198.779L1111.75 197.386C1111.02 196.924 1110.3 196.443 1109.54 196.031C1097.56 189.036 1084.02 184.725 1070.18 182.072C1063.25 180.724 1056.24 179.755 1049.18 179.015C1042.12 178.287 1035.02 177.78 1027.88 177.299C1020.74 176.799 1013.58 176.394 1006.35 175.419C1005.44 175.28 1004.54 175.166 1003.63 175.007C1002.72 174.837 1001.82 174.691 1000.91 174.501C1000 174.286 999.092 174.109 998.183 173.862L996.131 173.273L995.486 173.051C993.771 172.444 992.042 171.912 990.346 171.222L987.798 170.228L985.289 169.12C983.599 168.417 982 167.525 980.361 166.708C979.542 166.297 978.775 165.803 977.975 165.353C977.195 164.885 976.376 164.461 975.621 163.948C974.105 162.935 972.538 161.992 971.1 160.89L968.9 159.289C968.172 158.751 967.481 158.168 966.772 157.605C961.128 153.085 955.949 148.141 950.931 143.083C940.94 132.935 931.504 122.337 922.029 111.835C912.619 101.377 902.228 91.761 890.877 83.3477C885.149 79.2139 879.215 75.3523 872.991 71.9781C871.43 71.1488 869.889 70.2751 868.283 69.5281L865.896 68.3634L863.471 67.2871C860.233 65.8817 856.899 64.5776 853.532 63.666L853.796 62.5267Z" fill="url(#paint28_linear_45_3350)"/>
<path d="M815.646 57.9812C819.154 58.9371 822.463 60.1969 825.733 61.6213C826.559 61.9568 827.359 62.3493 828.165 62.7228C828.965 63.1089 829.784 63.4572 830.571 63.8686C832.144 64.698 833.757 65.4576 835.286 66.3628C841.484 69.8446 847.347 73.8898 852.842 78.3718L856.899 81.8094L861.736 86.361L862.659 87.317L864.49 89.2351L866.322 91.1596C866.948 91.7927 867.483 92.4953 868.07 93.1537L871.514 97.1926L874.804 101.295C876.984 104.036 879.151 106.79 881.299 109.55C889.89 120.59 898.294 131.764 907.466 142.222C912.052 147.438 916.856 152.458 922.042 156.997C927.228 161.523 932.859 165.55 939.018 168.411C945.133 171.292 951.944 172.69 958.826 173.836C965.721 174.95 972.751 175.717 979.788 176.628C993.848 178.426 1008.11 180.819 1021.62 185.89C1028.37 188.378 1034.89 191.556 1041.04 195.297C1044.07 197.228 1047.1 199.215 1049.89 201.437C1052.69 203.653 1055.55 205.793 1058.17 208.192C1068.91 217.53 1078.5 227.981 1087.45 238.838C1096.41 249.701 1104.74 260.989 1112.95 272.327C1121.16 283.665 1129.19 295.091 1137.47 306.309L1140.58 310.512L1143.75 314.665C1145.83 317.476 1148.03 320.109 1150.2 322.775C1152.52 325.351 1154.76 327.978 1157.2 330.46C1158.4 331.707 1159.57 332.992 1160.81 334.208L1164.52 337.886C1174.49 347.622 1185.04 356.833 1195.79 365.803C1217.34 383.712 1239.8 400.596 1262.55 417.074C1285.29 433.572 1308.42 449.575 1331.81 465.18L1330.95 466.478C1324.99 462.717 1319.07 458.907 1313.17 455.064C1307.28 451.215 1301.41 447.315 1295.56 443.409C1283.87 435.572 1272.26 427.621 1260.72 419.543C1249.2 411.459 1237.81 403.179 1226.54 394.759C1215.27 386.327 1204.13 377.717 1193.22 368.817L1189.13 365.474L1185.08 362.087C1182.36 359.846 1179.72 357.517 1177.05 355.225C1174.38 352.933 1171.78 350.54 1169.14 348.204L1165.27 344.596C1163.99 343.387 1162.69 342.203 1161.43 340.95L1157.65 337.24C1156.38 336.012 1155.19 334.708 1153.95 333.442C1151.46 330.935 1149.15 328.251 1146.77 325.623C1144.5 322.882 1142.2 320.154 1140.11 317.356L1136.9 313.184L1133.74 308.974C1116.95 286.526 1101.44 263.28 1083.7 241.814C1074.82 231.115 1065.43 220.828 1054.99 211.718C1052.45 209.37 1049.67 207.293 1046.97 205.141C1044.27 202.976 1041.41 201.102 1038.51 199.241C1032.64 195.664 1026.43 192.613 1019.94 190.207L1017.51 189.314C1016.69 189.03 1015.86 188.77 1015.04 188.492C1013.4 187.922 1011.73 187.466 1010.07 186.953C1006.72 186.023 1003.35 185.168 999.93 184.446C993.107 182.984 986.173 181.92 979.188 180.99C972.203 180.047 965.159 179.243 958.097 178.059C954.569 177.464 951.028 176.774 947.526 175.837C944.03 174.906 940.515 173.691 937.219 172.102C930.608 168.936 924.738 164.613 919.417 159.871C914.096 155.104 909.252 149.92 904.653 144.577C895.475 133.872 887.181 122.578 878.719 111.455L872.385 103.112L869.186 98.9651L865.89 94.958C865.329 94.2996 864.813 93.5968 864.219 92.9701L860.698 89.1464L859.814 88.1905L855.158 83.6516L851.242 80.2078C845.941 75.7194 840.258 71.6488 834.234 68.1164C832.757 67.1922 831.19 66.4135 829.668 65.5589C828.907 65.1347 828.107 64.7739 827.333 64.3751C826.552 63.989 825.772 63.5838 824.972 63.2356C821.818 61.7606 818.535 60.4375 815.246 59.4563L815.646 57.9812Z" fill="url(#paint29_linear_45_3350)"/>
<path d="M774.154 56.7912C774.528 53.0182 774.354 55.7594 774.483 54.9237L774.651 54.9489L774.986 54.9933L775.65 55.1008C776.096 55.1768 776.534 55.2529 776.966 55.3415C777.843 55.5124 778.708 55.7086 779.572 55.9175C781.294 56.3417 782.997 56.8291 784.68 57.3799C788.047 58.4751 791.33 59.8045 794.523 61.3238C800.888 64.3878 806.868 68.2304 812.305 72.7124C817.742 77.1754 822.65 82.3096 826.94 87.8108C831.267 93.2234 835.479 98.7119 839.678 104.207C848.043 115.216 856.241 126.332 865.019 136.91C869.418 142.19 873.972 147.33 878.867 152.091C880.118 153.25 881.344 154.44 882.608 155.579L884.543 157.244C885.188 157.795 885.826 158.377 886.484 158.865C889.096 160.928 891.954 162.752 894.914 164.448C900.835 167.848 907.143 170.747 913.432 173.703C919.74 176.641 926.086 179.566 932.375 182.655C938.657 185.744 944.875 189.011 950.95 192.53C957.02 196.069 962.941 199.861 968.649 203.97C974.363 208.066 979.826 212.503 985.012 217.238C990.204 221.98 995.067 227.013 999.756 232.166C1009.11 242.497 1017.83 253.297 1026.34 264.217C1043.37 286.039 1059.71 308.31 1077.66 329.219C1086.63 339.658 1096.01 349.774 1106.31 358.821C1107.58 359.973 1108.91 361.055 1110.23 362.144C1111.53 363.246 1112.89 364.316 1114.25 365.392C1116.97 367.544 1119.66 369.728 1122.39 371.862L1130.57 378.294L1138.78 384.687C1160.69 401.723 1182.8 418.524 1204.9 435.338L1271.24 485.735L1270.08 487.248L1253.23 474.973L1236.44 462.635L1202.91 437.889C1180.62 421.309 1158.37 404.667 1136.27 387.815L1127.99 381.484L1119.74 375.116C1116.99 372.995 1114.26 370.836 1111.53 368.69C1110.16 367.614 1108.8 366.544 1107.45 365.411C1106.09 364.297 1104.73 363.182 1103.42 362.011C1092.85 352.781 1083.33 342.558 1074.25 332.055C1056.09 311.013 1039.64 288.742 1022.6 267.034C1014.06 256.203 1005.49 245.397 996.28 235.198C991.675 230.102 986.921 225.152 981.89 220.53C976.853 215.903 971.545 211.56 965.972 207.54C960.412 203.514 954.627 199.779 948.68 196.291C942.727 192.815 936.612 189.58 930.408 186.504C924.196 183.427 917.895 180.502 911.581 177.533C905.266 174.552 898.939 171.532 892.812 167.955C889.754 166.157 886.749 164.208 883.936 161.941C883.214 161.39 882.569 160.795 881.905 160.213L879.912 158.466C878.609 157.276 877.358 156.041 876.081 154.832C871.089 149.888 866.509 144.608 862.11 139.221C853.339 128.427 845.238 117.216 836.988 106.15C832.88 100.605 828.771 95.0655 824.547 89.6149C820.425 84.158 815.781 79.1505 810.563 74.7255C805.358 70.3004 799.618 66.4769 793.478 63.4066C790.414 61.8683 787.247 60.5071 783.997 59.374C782.371 58.8105 780.733 58.2978 779.069 57.8547C778.237 57.6331 777.405 57.4306 776.566 57.247C776.147 57.1584 775.728 57.0698 775.308 56.9938L774.683 56.8798L774.218 56.8039C774.238 55.9556 773.961 58.6777 774.225 54.892L774.154 56.7912Z" fill="url(#paint30_linear_45_3350)"/>
<path d="M861.13 160.124C865.058 163.53 868.805 167.063 872.501 170.665C876.21 174.254 879.796 177.958 883.356 181.68C890.457 189.156 897.236 196.924 903.699 204.938C905.344 206.92 906.911 208.958 908.491 210.99C910.071 213.022 911.664 215.048 913.167 217.131C914.683 219.207 916.244 221.258 917.734 223.354L922.145 229.691C922.894 230.741 923.597 231.811 924.293 232.894L926.396 236.129L930.569 242.592L934.71 249.043L938.96 255.424C950.37 272.396 962.644 288.811 975.679 304.612C982.219 312.494 988.953 320.223 995.951 327.706C1002.95 335.189 1010.24 342.412 1017.91 349.186C1019.86 350.844 1021.8 352.509 1023.77 354.149C1025.77 355.757 1027.75 357.39 1029.78 358.979C1033.81 362.169 1037.87 365.322 1041.98 368.431C1050.18 374.66 1058.49 380.762 1066.79 386.89C1083.38 399.134 1099.92 411.56 1115.63 424.949C1131.37 438.275 1146.93 451.772 1162.42 465.344C1177.92 478.911 1193.38 492.521 1208.81 506.164L1207.52 507.575C1192.01 494.022 1176.48 480.506 1160.9 467.029C1145.3 453.576 1129.75 440.073 1114 426.81C1098.32 413.497 1081.83 401.159 1065.21 388.948C1056.9 382.839 1048.57 376.743 1040.34 370.513C1036.22 367.405 1032.13 364.246 1028.07 361.049C1026.03 359.46 1024.04 357.82 1022.02 356.206C1020.03 354.554 1018.05 352.87 1016.08 351.193C1008.3 344.349 1000.94 337.088 993.887 329.574C986.831 322.053 980.039 314.298 973.454 306.391C966.843 298.497 960.554 290.356 954.401 282.12C948.235 273.89 942.359 265.458 936.625 256.937L932.368 250.518L928.221 244.029L924.067 237.572L921.99 234.356C921.307 233.28 920.61 232.21 919.875 231.166L915.541 224.854C914.076 222.765 912.542 220.714 911.045 218.644C909.562 216.561 907.995 214.542 906.434 212.516C904.879 210.49 903.331 208.452 901.706 206.47C895.327 198.475 888.639 190.707 881.673 183.186C878.17 179.445 874.643 175.723 870.998 172.121C867.367 168.506 863.658 164.936 859.847 161.555L861.13 160.124Z" fill="url(#paint31_linear_45_3350)"/>
<path d="M669.325 35.5966C671.15 35.8181 672.898 36.2106 674.646 36.6664C676.388 37.1285 678.122 37.6413 679.819 38.2427C683.218 39.4391 686.559 40.8319 689.797 42.4209C696.233 45.6621 702.432 49.4351 708.153 53.8222C711.023 55.9999 713.822 58.2724 716.525 60.6527C719.24 63.0203 721.807 65.5399 724.336 68.0974C729.379 73.2251 734.075 78.6757 738.396 84.3922C740.615 87.2093 742.634 90.1656 744.704 93.0903L747.645 97.5724C748.129 98.3257 748.638 99.0601 749.103 99.8261L750.496 102.111C751.412 103.643 752.354 105.163 753.25 106.707L755.862 111.373L757.165 113.709L758.397 116.083L760.835 120.837C761.628 122.432 762.37 124.047 763.138 125.655C763.886 127.269 764.686 128.858 765.395 130.491L767.504 135.385C768.207 137.018 768.917 138.645 769.562 140.284C772.226 146.824 774.812 153.389 777.263 159.998C782.1 173.241 786.621 186.58 790.736 200.019C794.909 213.44 798.747 226.943 802.63 240.408C806.519 253.867 810.383 267.319 814.717 280.594C816.878 287.235 819.2 293.819 821.76 300.295C824.314 306.771 827.081 313.171 830.306 319.324C833.518 325.478 837.143 331.428 841.452 336.835L843.116 338.816C843.683 339.468 844.212 340.152 844.831 340.753L847.534 343.539L848.501 344.393C849.791 345.533 851.043 346.723 852.455 347.711L854.513 349.262L856.712 350.724C862.549 354.693 868.56 358.378 874.7 361.828C880.847 365.265 887.168 368.348 893.611 371.279C900.055 374.21 906.64 377.154 912.929 380.712C919.217 384.269 925.196 388.308 930.917 392.613L935.148 395.905C935.851 396.462 936.567 396.981 937.257 397.57L939.334 399.323C940.037 399.899 940.701 400.507 941.366 401.109L943.365 402.925C944.668 404.16 945.958 405.407 947.242 406.654C952.311 411.7 957.097 416.973 961.747 422.322C966.398 427.678 970.9 433.135 975.331 438.636C979.768 444.137 984.141 449.67 988.501 455.216C992.861 460.755 997.195 466.313 1001.52 471.871C1005.86 477.423 1010.21 482.956 1014.6 488.464C1018.99 493.965 1023.43 499.428 1027.92 504.847C1030.19 507.537 1032.43 510.253 1034.73 512.918C1037 515.609 1039.31 518.268 1041.62 520.927C1046.27 526.213 1050.99 531.435 1055.85 536.544C1060.73 541.628 1065.69 546.635 1070.82 551.49L1070.25 552.098C1064.92 547.445 1059.71 542.634 1054.66 537.671C1049.62 532.708 1044.7 527.618 1039.86 522.459C1030.19 512.14 1021 501.391 1011.93 490.572C1002.88 479.728 993.958 468.801 985.102 457.843C976.221 446.904 967.301 436.015 958.019 425.488C953.363 420.24 948.602 415.099 943.61 410.231C942.353 409.028 941.089 407.832 939.812 406.648L937.864 404.92C937.219 404.344 936.567 403.761 935.896 403.223C933.284 401.001 930.44 398.887 927.692 396.728C922.075 392.556 916.36 388.542 910.349 385.016C904.37 381.44 898.068 378.35 891.67 375.21C885.278 372.064 878.912 368.722 872.778 365.037C869.734 363.164 866.67 361.321 863.71 359.333C862.22 358.359 860.704 357.415 859.234 356.409L854.828 353.396L852.629 351.882L850.449 350.236C848.953 349.186 847.637 347.939 846.276 346.736L845.257 345.83L842.425 342.918C841.774 342.285 841.219 341.576 840.633 340.899L838.872 338.854C834.312 333.296 830.5 327.219 827.12 320.977C820.406 308.449 815.143 295.3 810.338 282.076C805.5 268.845 801.153 255.488 796.799 242.155C788.118 215.485 779.527 188.865 769.601 162.783C767.169 156.244 764.615 149.755 761.983 143.298C761.345 141.671 760.654 140.088 759.964 138.493L757.907 133.72C757.236 132.124 756.475 130.567 755.759 128.991C755.03 127.421 754.327 125.838 753.573 124.281C750.49 118.083 747.406 111.879 743.866 105.929L742.582 103.675C742.15 102.922 741.679 102.2 741.234 101.459L738.512 97.0406C736.584 94.1728 734.752 91.2292 732.714 88.4375C728.708 82.797 724.51 77.2767 719.885 72.111C715.267 66.9453 710.384 62.0012 705.128 57.4496C699.871 52.9042 694.253 48.7451 688.274 45.1114C685.282 43.3072 682.199 41.6232 679.013 40.1482C675.833 38.6795 672.543 37.331 669.164 36.4384L669.325 35.5966Z" fill="url(#paint32_linear_45_3350)"/>
<path d="M1000.29 575.774C990.036 566.019 980.007 556.099 970.132 545.989C960.29 535.86 950.602 525.561 941.604 514.596L938.283 510.431L935.09 506.189C933 503.34 930.917 500.485 928.905 497.599C924.835 491.844 920.855 486.052 916.869 480.266C908.897 468.7 900.919 457.165 892.399 446.062C890.302 443.257 888.077 440.56 885.91 437.819L882.544 433.806L880.854 431.805L879.106 429.862C877.932 428.577 876.797 427.241 875.59 425.994L871.953 422.253C871.36 421.613 870.708 421.043 870.076 420.448L868.173 418.67C867.528 418.081 866.922 417.473 866.251 416.903L860.259 411.757C858.924 410.623 857.544 409.528 856.19 408.414C853.494 406.161 850.694 404.052 847.921 401.906C842.303 397.703 836.556 393.67 830.59 389.98C824.624 386.289 818.471 382.896 812.182 379.731C805.893 376.553 799.463 373.596 793.065 370.45C789.866 368.848 786.705 367.291 783.526 365.5C780.243 363.714 777.385 361.359 774.638 358.954C769.291 353.971 764.898 348.249 760.919 342.349L758.023 337.867L755.308 333.296C754.863 332.53 754.392 331.777 753.966 331.004L752.695 328.675L750.161 324.015L747.768 319.299C746.968 317.729 746.162 316.159 745.42 314.558C743.93 311.367 742.35 308.215 740.95 304.992C738.035 298.586 735.294 292.116 732.611 285.627L728.67 275.859L724.884 266.041C722.356 259.495 719.911 252.924 717.499 246.346L710.178 226.665C707.695 220.125 705.173 213.611 702.619 207.11C700.026 200.627 697.433 194.151 694.692 187.738C683.734 162.125 671.518 137.037 655.735 114.31L652.73 110.088C651.73 108.682 650.653 107.328 649.621 105.948C647.576 103.156 645.325 100.541 643.151 97.8572C642.042 96.5341 640.868 95.2681 639.74 93.9577L638.037 92.0078C637.469 91.3558 636.856 90.7481 636.263 90.1213L632.69 86.3674C631.465 85.1519 630.207 83.9681 628.968 82.759L627.111 80.9484C626.479 80.3597 625.821 79.7963 625.176 79.2202L621.299 75.7701L617.262 72.5036L615.25 70.8576L613.16 69.313L608.967 66.2236L602.472 61.8746L600.234 60.5261L595.765 57.8103L597.88 53.8917L602.705 56.3227L605.117 57.5508L607.458 58.8991L612.134 61.6149L616.649 64.5777L618.907 66.0653L621.087 67.6543L625.434 70.8703L629.62 74.2823C630.316 74.8521 631.019 75.4155 631.71 75.9979L633.715 77.8022C635.044 79.0113 636.392 80.2077 637.708 81.4359L641.539 85.2215C642.171 85.8609 642.829 86.475 643.442 87.127L645.273 89.0959C646.492 90.4126 647.724 91.7167 648.905 93.0651C651.207 95.8063 653.6 98.4839 655.767 101.326C656.864 102.738 658.006 104.118 659.07 105.555L662.224 109.885C670.537 121.502 677.671 133.846 684.056 146.482C685.598 149.666 687.185 152.832 688.642 156.048L690.861 160.859L692.976 165.714C693.686 167.329 694.363 168.956 695.034 170.589L697.053 175.476C698.343 178.749 699.684 182.009 700.922 185.301C705.992 198.424 710.597 211.68 715.112 224.943C719.691 238.18 724.194 251.417 729.128 264.477L732.856 274.264L736.732 283.987C739.37 290.445 742.066 296.883 744.93 303.245C746.31 306.448 747.858 309.569 749.322 312.735C750.044 314.317 750.838 315.868 751.618 317.425L753.966 322.091L756.436 326.681L757.675 328.972C758.087 329.738 758.545 330.473 758.978 331.226L761.622 335.714L764.428 340.089C768.265 345.837 772.483 351.344 777.456 356.01C779.997 358.251 782.616 360.435 785.577 362.043C788.563 363.74 791.756 365.341 794.884 366.917C801.198 370.051 807.641 373.046 813.995 376.287C820.354 379.515 826.604 382.997 832.66 386.77C838.71 390.562 844.541 394.671 850.249 398.918C853.061 401.09 855.906 403.236 858.634 405.508C860.008 406.635 861.401 407.737 862.755 408.889L868.812 414.093C869.489 414.669 870.128 415.302 870.785 415.903L872.753 417.733C873.404 418.347 874.081 418.942 874.688 419.594L878.416 423.424C879.654 424.703 880.808 426.057 882.001 427.368L883.782 429.349L885.498 431.381L888.916 435.452C891.109 438.225 893.366 440.953 895.482 443.776C904.092 454.982 912.103 466.56 920.088 478.126C924.087 483.906 928.047 489.698 932.117 495.402C936.2 501.093 940.282 506.778 944.733 512.127C953.64 522.876 963.327 533.088 973.17 543.115C983.019 553.143 993.145 562.949 1003.41 572.552L1000.29 575.774Z" fill="url(#paint33_linear_45_3350)"/>
<path d="M377.406 116.95C384.249 124.389 391.511 131.466 399.316 137.923C407.114 144.374 415.466 150.211 424.412 155.022C433.345 159.833 442.878 163.606 452.791 165.948C462.692 168.303 472.953 169.209 483.131 168.677L484.911 168.582L483.344 169.399C479.235 171.76 474.908 173.754 470.438 175.368C465.962 176.983 461.331 178.185 456.642 179.072C447.257 180.838 437.653 181.262 428.127 180.92C418.594 180.585 409.132 179.426 399.748 178.021C390.357 176.615 381.043 174.862 371.756 173.108C362.468 171.348 353.193 169.608 343.905 168.057C334.617 166.493 325.31 165.17 315.971 164.302C306.638 163.429 297.273 163.03 287.947 163.277C283.283 163.404 278.626 163.701 273.995 164.189C269.371 164.695 264.766 165.391 260.212 166.297C255.659 167.202 251.144 168.297 246.706 169.646C242.288 171.07 237.857 172.469 233.561 174.242L230.311 175.508L227.124 176.919L223.938 178.337C223.409 178.578 222.874 178.806 222.345 179.053L220.784 179.831C218.701 180.876 216.611 181.895 214.541 182.952L208.414 186.307C200.326 190.929 192.437 195.911 184.807 201.279C177.177 206.654 169.844 212.421 162.633 218.346C155.428 224.284 148.462 230.507 141.684 236.926C134.886 243.327 128.262 249.917 121.825 256.684C115.375 263.439 109.093 270.352 102.985 277.416C99.9211 280.943 96.9024 284.507 93.9483 288.121C90.9814 291.723 88.0403 295.363 85.2282 299.073L84.5832 298.636C89.8785 290.913 95.5287 283.449 101.385 276.131C107.248 268.82 113.311 261.666 119.58 254.677C132.151 240.737 145.469 227.393 159.807 215.118C161.575 213.554 163.4 212.06 165.219 210.553C167.038 209.053 168.857 207.54 170.734 206.103C172.604 204.653 174.436 203.166 176.332 201.754L182.034 197.525C189.728 192.011 197.655 186.776 205.917 182.053L212.167 178.603C214.283 177.508 216.424 176.457 218.553 175.381L220.152 174.577C220.694 174.324 221.242 174.083 221.784 173.836L225.054 172.368L228.324 170.905L231.665 169.589C236.083 167.753 240.656 166.278 245.223 164.803C249.828 163.416 254.51 162.302 259.225 161.378C263.94 160.46 268.7 159.757 273.473 159.251C278.246 158.757 283.038 158.472 287.83 158.358C292.623 158.244 297.408 158.295 302.188 158.51C306.96 158.738 311.727 159.118 316.468 159.605C325.955 160.58 335.366 162.017 344.705 163.688C354.044 165.36 363.319 167.297 372.575 169.196C391.079 172.95 409.551 176.913 428.295 178.173C437.647 178.799 447.077 178.686 456.338 177.249C465.581 175.805 474.65 173.039 482.983 168.721L483.196 169.443C472.947 169.981 462.608 169.069 452.636 166.695C442.652 164.334 433.048 160.542 424.063 155.699C415.066 150.857 406.675 144.994 398.838 138.518C391.002 132.036 383.714 124.933 376.851 117.476L377.406 116.95Z" fill="url(#paint34_linear_45_3350)"/>
<path d="M498.869 145.887C478.197 145.887 455.571 125.921 434.112 105.378L435.467 104.017C457.267 124.895 480.287 145.172 500.649 143.931L500.771 145.824C500.139 145.862 499.501 145.887 498.869 145.887Z" fill="url(#paint35_linear_45_3350)"/>
<path d="M492.945 91.5487L491.702 93.0042L522.053 117.974L523.296 116.518L492.945 91.5487Z" fill="url(#paint36_linear_45_3350)"/>
<path d="M546.743 79.8944L545.612 81.4356L552.966 86.6335L554.097 85.0923L546.743 79.8944Z" fill="url(#paint37_linear_45_3350)"/>
<path d="M372.414 165.48C349.355 154.053 335.204 145.95 317.158 130.801L318.415 129.358C336.307 144.38 350.361 152.426 373.284 163.783L372.414 165.48Z" fill="url(#paint38_linear_45_3350)"/>
<path d="M511.117 130.346C512.504 129.143 514.077 128.351 515.754 127.712C517.431 127.085 519.218 126.744 521.018 126.598C522.823 126.465 524.649 126.541 526.442 126.819C528.235 127.104 529.97 127.604 531.679 128.187C532.511 128.516 533.369 128.807 534.175 129.2L535.401 129.757L536.588 130.371C537.387 130.77 538.135 131.244 538.896 131.707C539.67 132.156 540.38 132.669 541.115 133.163C544.018 135.176 546.701 137.442 549.223 139.848C551.745 142.253 554.054 144.849 556.266 147.476C558.401 150.091 560.587 152.667 562.651 155.338L565.786 159.314L568.843 163.347C570.894 166.025 572.861 168.759 574.841 171.488C576.795 174.229 578.75 176.97 580.659 179.749C582.542 182.534 584.471 185.295 586.309 188.112C590.005 193.727 593.649 199.374 597.222 205.052C600.828 210.718 604.317 216.441 607.768 222.189L612.934 230.811C614.643 233.691 616.359 236.566 618.03 239.471C621.396 245.264 624.737 251.056 628.059 256.868L637.914 274.346L657.444 309.379L662.353 318.103C663.991 321.015 665.7 323.864 667.371 326.75C668.209 328.187 669.086 329.599 669.944 331.023C670.815 332.442 671.647 333.885 672.556 335.271L675.233 339.468C676.136 340.855 677.097 342.203 678.032 343.564C681.838 348.964 685.965 354.117 690.68 358.694C695.376 363.297 700.69 367.278 706.295 370.893C707.688 371.805 709.14 372.653 710.552 373.533C711.965 374.426 713.429 375.229 714.88 376.059C717.757 377.749 720.749 379.249 723.749 380.75C729.753 383.731 735.958 386.416 742.047 389.53C748.148 392.62 754.05 396.228 759.532 400.343L761.59 401.887C761.931 402.147 762.286 402.394 762.609 402.666L763.589 403.495L767.498 406.812C768.781 407.939 769.994 409.136 771.239 410.294C772.47 411.465 773.748 412.611 774.889 413.858C779.636 418.72 784.151 423.772 788.421 429.001L791.607 432.932C792.671 434.236 793.736 435.547 794.735 436.902L800.844 444.941C808.816 455.69 816.871 466.383 825.05 476.98C833.254 487.558 841.535 498.086 849.946 508.506C858.357 518.933 866.864 529.277 875.603 539.431C884.33 549.591 893.192 559.65 902.428 569.361C904.699 571.83 907.085 574.179 909.426 576.572C910.613 577.756 911.755 578.984 912.98 580.13L916.618 583.599C921.443 588.252 926.557 592.595 931.878 596.659L931.246 597.513C925.777 593.525 920.526 589.252 915.579 584.681L911.852 581.269C910.594 580.142 909.426 578.933 908.207 577.775C905.802 575.42 903.351 573.109 901.022 570.684C898.674 568.273 896.288 565.899 893.979 563.455L887.065 556.112C882.543 551.142 877.99 546.198 873.572 541.14C855.764 521.015 838.691 500.289 822.063 479.227C813.756 468.693 805.571 458.058 797.477 447.366C789.408 436.75 780.946 426.412 771.664 416.929C770.536 415.707 769.297 414.605 768.117 413.453C766.911 412.32 765.743 411.143 764.505 410.041C761.996 407.889 759.532 405.679 756.881 403.711C751.663 399.659 746.072 396.107 740.176 392.993C734.288 389.866 728.121 387.08 722.072 383.959C716.022 380.845 710.075 377.47 704.347 373.805C698.594 370.159 693.073 366.031 688.062 361.334C683.05 356.637 678.664 351.351 674.665 345.888C666.667 334.929 659.85 323.37 652.839 311.962L632.051 277.638L611.167 243.415L600.673 226.361C598.925 223.518 597.151 220.695 595.371 217.871L590.069 209.395C586.529 203.748 582.923 198.146 579.266 192.575C577.46 189.777 575.609 187.01 573.784 184.231L568.23 175.938C564.476 170.443 560.729 164.948 556.859 159.542C554.95 156.82 552.97 154.142 551.029 151.439C549.068 148.824 547.126 146.216 544.953 143.823C542.811 141.399 540.547 139.088 538.09 137.031C536.858 136.005 535.588 135.03 534.259 134.15L533.266 133.479L532.247 132.865C531.57 132.435 530.854 132.105 530.157 131.726C527.306 130.346 524.242 129.39 521.069 129.2C519.483 129.105 517.883 129.219 516.303 129.523C514.742 129.839 513.149 130.39 511.814 131.169L511.117 130.346Z" fill="url(#paint39_linear_45_3350)"/>
<path d="M856.628 622.05C846.366 613.504 836.369 604.679 826.507 595.69C821.58 591.195 816.691 586.656 811.847 582.067C809.448 579.75 807.029 577.452 804.649 575.11L797.541 568.064C788.124 558.606 778.998 548.832 770.491 538.469C768.381 535.867 766.356 533.176 764.286 530.53L758.397 522.49L746.716 506.373C738.925 495.642 731.095 484.956 723.065 474.448C715.022 463.952 706.721 453.652 697.898 443.884C695.737 441.396 693.441 439.047 691.183 436.661C690.068 435.452 688.887 434.319 687.713 433.173L684.224 429.704L678.774 424.766C678.155 424.234 677.51 423.74 676.878 423.228L673.092 420.138L669.112 417.245C658.425 409.579 646.628 403.318 634.941 396.76C623.273 390.189 611.631 383.25 601.395 374.501L599.454 372.893L597.603 371.184C596.371 370.039 595.133 368.911 593.914 367.753L588.689 362.302L587.07 360.384L583.826 356.548C582.755 355.263 581.756 353.94 580.717 352.636C579.679 351.332 578.679 350.009 577.666 348.686C576.66 347.363 575.641 346.046 574.654 344.71C566.676 334.075 558.852 323.345 551.054 312.614C543.25 301.884 535.42 291.179 527.5 280.544L515.6 264.603L503.616 248.733C501.629 246.08 499.591 243.466 497.585 240.826L494.56 236.876C493.548 235.572 492.509 234.299 491.49 233.014C487.459 227.817 483.131 222.866 478.655 218.068L473.508 212.775C472.947 212.18 472.308 211.655 471.715 211.091C469.277 208.901 466.949 206.578 464.343 204.59L460.531 201.488L456.538 198.627C455.868 198.158 455.223 197.652 454.533 197.215L449.321 193.967L448.244 193.379C442.581 190.074 436.492 187.542 430.223 185.396C428.65 184.864 427.063 184.377 425.476 183.87L420.671 182.389C417.453 181.42 414.221 180.287 411.093 178.875L411.88 177.141C418.007 179.432 424.657 180.553 431.165 182.484C437.686 184.351 444.123 186.782 450.147 189.998L451.295 190.568L456.809 193.796C457.538 194.233 458.222 194.74 458.938 195.208L463.162 198.07L467.187 201.178C469.922 203.204 472.36 205.54 474.914 207.762C475.54 208.331 476.204 208.863 476.791 209.465L482.17 214.807C486.801 219.695 491.251 224.734 495.399 230.001C496.444 231.305 497.527 232.603 498.546 233.919L501.558 237.889C503.564 240.541 505.589 243.175 507.57 245.84L513.542 253.823L519.424 261.862C523.333 267.231 527.229 272.612 531.047 278.043C538.716 288.881 546.282 299.788 553.828 310.696C561.394 321.591 568.862 332.549 576.673 343.247C577.641 344.59 578.64 345.913 579.627 347.242C580.614 348.572 581.594 349.901 582.613 351.211C583.626 352.515 584.613 353.858 585.645 355.136L588.812 358.922L590.398 360.815L595.506 366.189C596.7 367.329 597.919 368.437 599.125 369.564L600.938 371.247L602.847 372.83C604.117 373.881 605.394 374.932 606.691 375.958L610.696 378.889C612.012 379.895 613.418 380.775 614.792 381.699C616.178 382.605 617.526 383.567 618.971 384.39L623.247 386.947L627.601 389.385C629.046 390.201 630.516 390.986 632 391.746C633.483 392.512 634.947 393.29 636.45 394.031C642.403 397.044 648.427 399.988 654.387 403.109C660.366 406.192 666.261 409.535 671.944 413.232L676.175 416.061L680.264 419.138C680.935 419.664 681.631 420.17 682.289 420.702L688.074 425.684C693.047 430.261 697.781 435.072 702.277 440.048C711.275 450.006 719.588 460.47 727.657 471.061C735.732 481.658 743.479 492.458 751.167 503.283L762.686 519.509L768.459 527.599C770.439 530.207 772.368 532.853 774.399 535.442C776.489 537.987 778.534 540.564 780.662 543.084C782.829 545.578 784.97 548.091 787.157 550.566L793.82 557.922L800.618 565.171L807.532 572.324C809.841 574.705 812.208 577.034 814.536 579.395C819.219 584.099 823.953 588.765 828.739 593.379C838.304 602.609 848.043 611.681 857.886 620.62L856.628 622.05Z" fill="url(#paint40_linear_45_3350)"/>
<path d="M333.057 151.762C339.532 154.971 345.318 159.099 350.884 163.505L354.979 166.898C356.321 168.057 357.611 169.266 358.933 170.443C360.268 171.614 361.513 172.868 362.79 174.09L364.68 175.951L365.622 176.881L366.531 177.844C376.316 188.055 385.061 199.158 392.995 210.756C393.982 212.212 395.007 213.636 395.962 215.111L401.599 224.012L415.195 246.321C422.47 258.197 429.849 270.003 437.421 281.677C444.968 293.369 452.836 304.853 460.95 316.147L467.11 324.572L475.037 334.929L476.668 336.961L483.221 345.077C484.324 346.426 485.479 347.723 486.601 349.046L490 353.003C491.142 354.313 492.245 355.662 493.438 356.922L500.501 364.594C501.081 365.246 501.694 365.854 502.306 366.468L507.821 372.014C510.227 374.527 512.846 376.812 515.387 379.18L519.224 382.706C520.534 383.845 521.888 384.928 523.223 386.048L527.235 389.372C527.906 389.923 528.564 390.486 529.247 391.03L531.318 392.651L547.9 405.597C558.968 414.213 570.088 422.778 581.053 431.584C586.516 436.015 591.94 440.491 597.235 445.144C602.518 449.803 607.684 454.595 612.683 459.552C617.649 464.534 622.506 469.624 627.188 474.859C629.549 477.461 631.819 480.126 634.141 482.76L640.952 490.749L667.874 522.895C685.824 544.305 703.851 565.652 722.626 586.346L729.676 594.101L740.415 605.578L751.373 616.853C761.261 626.722 771.381 636.37 782.113 645.328L780.881 646.79C769.981 637.883 759.706 628.299 749.677 618.493L738.59 607.275L734.965 603.47L727.728 595.855L720.601 588.138C701.626 567.538 683.373 546.331 665.281 525.01L638.211 493.003L631.38 485.071C629.065 482.469 626.795 479.829 624.441 477.259C619.771 472.093 614.94 467.079 609.999 462.173C605.033 457.299 599.899 452.589 594.649 447.999C589.386 443.422 583.974 439.003 578.524 434.623C567.579 425.905 556.421 417.403 545.301 408.832L528.648 395.949L526.571 394.335C525.881 393.797 525.203 393.215 524.52 392.657L520.431 389.277C519.076 388.144 517.689 387.036 516.354 385.878L512.452 382.301C509.859 379.902 507.196 377.578 504.758 375.033L501.023 371.292L499.159 369.418C498.533 368.798 497.908 368.177 497.321 367.519L490.162 359.764C488.949 358.492 487.833 357.131 486.678 355.807L483.241 351.813C482.099 350.477 480.932 349.167 479.816 347.806L473.185 339.627L471.534 337.575L463.53 327.155L457.319 318.685C449.134 307.328 441.201 295.8 433.609 284.07C425.992 272.358 418.568 260.533 411.261 248.644L397.619 226.342L392.047 217.58C391.105 216.131 390.092 214.725 389.118 213.295L386.171 209.021C385.687 208.3 385.178 207.603 384.655 206.92L379.992 200.684C378.96 199.291 377.831 197.981 376.761 196.62L373.503 192.581L370.098 188.662C367.86 186.016 365.473 183.509 363.138 180.958L362.261 180.002L361.345 179.078L359.52 177.229C358.314 175.989 357.134 174.723 355.863 173.539L352.129 169.93L348.304 166.411C343.163 161.789 337.784 157.307 332.115 153.414L333.057 151.762Z" fill="url(#paint41_linear_45_3350)"/>
<path d="M257.374 137.79C257.729 137.809 257.968 137.86 258.226 137.898C258.49 137.936 258.741 137.986 258.974 138.062C259.444 138.202 259.96 138.303 260.399 138.493L261.766 139.012C262.224 139.189 262.637 139.423 263.069 139.626L264.366 140.265C264.792 140.487 265.185 140.74 265.604 140.981L266.83 141.715C267.236 141.962 267.649 142.203 268.029 142.487C269.551 143.589 271.164 144.627 272.577 145.849L274.75 147.641L275.292 148.09L275.808 148.565L278.891 151.42L279.91 152.382L284.722 157.428C285.986 158.789 287.147 160.226 288.359 161.631C289.552 163.049 290.784 164.435 291.894 165.91C296.505 171.684 300.762 177.704 304.813 183.839L310.772 193.1L316.448 202.514C318.383 205.628 320.112 208.85 321.918 212.035C323.691 215.232 325.536 218.403 327.252 221.613C330.722 228.019 334.198 234.42 337.578 240.87L357.869 279.524C364.609 292.407 371.382 305.258 378.554 317.856C385.726 330.454 393.382 342.766 401.921 354.44L405.179 358.776C406.262 360.226 407.333 361.682 408.5 363.068L413.628 369.393L415.421 371.431C417.827 374.134 420.155 376.907 422.716 379.484C425.231 382.098 427.701 384.732 430.333 387.277C440.691 397.551 451.366 407.515 462.214 417.315C473.063 427.121 484.086 436.756 494.979 446.568C505.886 456.368 516.599 466.414 526.893 476.872C528.19 478.17 529.467 479.487 530.724 480.823L534.523 484.798L542.012 492.819L556.904 508.918L586.593 541.191C626.117 584.27 665.552 627.432 704.954 670.618L703.515 671.891C663.836 628.951 624.131 586.036 584.336 543.204L554.447 511.121L539.458 495.123L531.931 487.166L528.132 483.241C526.867 481.931 525.597 480.62 524.3 479.341C503.764 458.634 481.286 439.851 459.402 420.334C448.457 410.573 437.666 400.628 427.185 390.36C424.535 387.834 421.987 385.156 419.42 382.516C416.795 379.92 414.421 377.097 411.938 374.381L410.087 372.324L408.32 370.203L404.791 365.955C403.592 364.556 402.489 363.088 401.367 361.625L398.006 357.251C389.176 345.482 381.321 333.068 373.891 320.477C366.467 307.879 359.469 295.085 352.516 282.285L331.831 243.846L321.427 224.677C319.705 221.474 317.893 218.353 316.126 215.187L313.462 210.452C313.017 209.667 312.591 208.863 312.127 208.084L305.187 196.43L299.375 187.276C295.422 181.23 291.345 175.273 287.108 169.449C286.089 167.955 284.954 166.562 283.864 165.138C282.754 163.726 281.671 162.283 280.561 160.871L277.124 156.731L276.259 155.693L275.35 154.705L273.55 152.711L272.654 151.711L272.202 151.211L271.725 150.743L269.822 148.856C268.584 147.552 267.23 146.419 265.901 145.216C265.243 144.608 264.508 144.127 263.824 143.557C263.476 143.285 263.134 142.994 262.773 142.741L261.683 142.006C261.315 141.772 260.954 141.494 260.58 141.291L259.444 140.645C259.064 140.405 258.677 140.278 258.29 140.088C258.09 139.993 257.903 139.917 257.716 139.86C257.529 139.791 257.322 139.721 257.213 139.683L257.374 137.79Z" fill="url(#paint42_linear_45_3350)"/>
<path d="M174.152 156.687C177.99 154.807 182.098 154.813 186.052 155.402C188.019 155.744 189.935 156.294 191.805 156.946C193.65 157.649 195.475 158.422 197.184 159.377C200.635 161.245 203.847 163.461 206.833 165.91C209.832 168.354 212.567 171.051 215.212 173.811C216.515 175.204 217.792 176.628 219.004 178.09C220.255 179.527 221.423 181.028 222.59 182.515C223.79 183.99 224.867 185.542 226.002 187.061C227.125 188.587 228.15 190.169 229.227 191.72C233.433 197.994 237.16 204.527 240.766 211.035C244.378 217.561 247.861 224.139 251.26 230.748C254.652 237.363 257.961 244.01 261.251 250.657C264.553 257.298 267.784 263.97 271.029 270.624C274.279 277.277 277.543 283.918 280.852 290.533C294.125 316.957 308.038 343.108 324.865 367.449C333.256 379.616 342.389 391.297 352.38 402.217C362.474 413.137 372.684 424.006 382.83 434.907L504.822 565.57L565.896 630.831L627.053 696.016L625.627 697.302L564.431 632.154L503.151 567.082L349.755 404.565C339.506 393.62 330.199 381.877 321.486 369.747C304.123 345.425 289.34 319.464 275.601 293.135C268.739 279.961 262.005 266.737 255.355 253.5C252.027 246.884 248.661 240.294 245.261 233.73C241.882 227.152 238.431 220.625 234.871 214.168C231.291 207.705 227.679 201.33 223.738 195.183C221.752 192.119 219.726 189.08 217.598 186.13C216.527 184.662 215.457 183.187 214.315 181.775C213.748 181.066 213.206 180.332 212.619 179.641L210.871 177.559C208.517 174.811 206.072 172.121 203.408 169.696C200.764 167.259 197.984 164.961 194.966 163.043C193.463 162.068 191.908 161.213 190.309 160.428C188.696 159.688 187.039 159.055 185.336 158.58C183.633 158.111 181.885 157.814 180.131 157.75C179.26 157.744 178.37 157.731 177.506 157.845C177.074 157.896 176.642 157.959 176.222 158.054C175.816 158.137 175.352 158.263 175.049 158.371L174.152 156.687Z" fill="url(#paint43_linear_45_3350)"/>
<defs>
<linearGradient id="paint0_linear_45_3350" x1="71.1386" y1="687.056" x2="1567.35" y2="320.036" gradientUnits="userSpaceOnUse">
<stop stop-color="#1051B4"/>
<stop offset="1" stop-color="#43ACFB"/>
</linearGradient>
<linearGradient id="paint1_linear_45_3350" x1="71.1386" y1="687.056" x2="1567.35" y2="320.036" gradientUnits="userSpaceOnUse">
<stop stop-color="#1051B4"/>
<stop offset="1" stop-color="#43ACFB"/>
</linearGradient>
<linearGradient id="paint2_linear_45_3350" x1="71.1386" y1="687.056" x2="1567.35" y2="320.036" gradientUnits="userSpaceOnUse">
<stop stop-color="#1051B4"/>
<stop offset="1" stop-color="#43ACFB"/>
</linearGradient>
<linearGradient id="paint3_linear_45_3350" x1="71.1386" y1="687.056" x2="1567.35" y2="320.036" gradientUnits="userSpaceOnUse">
<stop stop-color="#1051B4"/>
<stop offset="1" stop-color="#43ACFB"/>
</linearGradient>
<linearGradient id="paint4_linear_45_3350" x1="71.1386" y1="687.056" x2="1567.35" y2="320.036" gradientUnits="userSpaceOnUse">
<stop stop-color="#1051B4"/>
<stop offset="1" stop-color="#43ACFB"/>
</linearGradient>
<linearGradient id="paint5_linear_45_3350" x1="71.1386" y1="687.056" x2="1567.35" y2="320.036" gradientUnits="userSpaceOnUse">
<stop stop-color="#1051B4"/>
<stop offset="1" stop-color="#43ACFB"/>
</linearGradient>
<linearGradient id="paint6_linear_45_3350" x1="71.1386" y1="687.056" x2="1567.35" y2="320.036" gradientUnits="userSpaceOnUse">
<stop stop-color="#1051B4"/>
<stop offset="1" stop-color="#43ACFB"/>
</linearGradient>
<linearGradient id="paint7_linear_45_3350" x1="71.1386" y1="687.056" x2="1567.35" y2="320.036" gradientUnits="userSpaceOnUse">
<stop stop-color="#1051B4"/>
<stop offset="1" stop-color="#43ACFB"/>
</linearGradient>
<linearGradient id="paint8_linear_45_3350" x1="71.1386" y1="687.056" x2="1567.35" y2="320.036" gradientUnits="userSpaceOnUse">
<stop stop-color="#1051B4"/>
<stop offset="1" stop-color="#43ACFB"/>
</linearGradient>
<linearGradient id="paint9_linear_45_3350" x1="71.1386" y1="687.056" x2="1567.35" y2="320.036" gradientUnits="userSpaceOnUse">
<stop stop-color="#1051B4"/>
<stop offset="1" stop-color="#43ACFB"/>
</linearGradient>
<linearGradient id="paint10_linear_45_3350" x1="71.1386" y1="687.056" x2="1567.35" y2="320.036" gradientUnits="userSpaceOnUse">
<stop stop-color="#1051B4"/>
<stop offset="1" stop-color="#43ACFB"/>
</linearGradient>
<linearGradient id="paint11_linear_45_3350" x1="71.1386" y1="687.056" x2="1567.35" y2="320.036" gradientUnits="userSpaceOnUse">
<stop stop-color="#1051B4"/>
<stop offset="1" stop-color="#43ACFB"/>
</linearGradient>
<linearGradient id="paint12_linear_45_3350" x1="71.1386" y1="687.056" x2="1567.35" y2="320.036" gradientUnits="userSpaceOnUse">
<stop stop-color="#1051B4"/>
<stop offset="1" stop-color="#43ACFB"/>
</linearGradient>
<linearGradient id="paint13_linear_45_3350" x1="71.1386" y1="687.056" x2="1567.35" y2="320.036" gradientUnits="userSpaceOnUse">
<stop stop-color="#1051B4"/>
<stop offset="1" stop-color="#43ACFB"/>
</linearGradient>
<linearGradient id="paint14_linear_45_3350" x1="71.1386" y1="687.056" x2="1567.35" y2="320.036" gradientUnits="userSpaceOnUse">
<stop stop-color="#1051B4"/>
<stop offset="1" stop-color="#43ACFB"/>
</linearGradient>
<linearGradient id="paint15_linear_45_3350" x1="71.1386" y1="687.056" x2="1567.35" y2="320.036" gradientUnits="userSpaceOnUse">
<stop stop-color="#1051B4"/>
<stop offset="1" stop-color="#43ACFB"/>
</linearGradient>
<linearGradient id="paint16_linear_45_3350" x1="71.1386" y1="687.056" x2="1567.35" y2="320.036" gradientUnits="userSpaceOnUse">
<stop stop-color="#1051B4"/>
<stop offset="1" stop-color="#43ACFB"/>
</linearGradient>
<linearGradient id="paint17_linear_45_3350" x1="71.1386" y1="687.056" x2="1567.35" y2="320.036" gradientUnits="userSpaceOnUse">
<stop stop-color="#1051B4"/>
<stop offset="1" stop-color="#43ACFB"/>
</linearGradient>
<linearGradient id="paint18_linear_45_3350" x1="71.1386" y1="687.056" x2="1567.35" y2="320.036" gradientUnits="userSpaceOnUse">
<stop stop-color="#1051B4"/>
<stop offset="1" stop-color="#43ACFB"/>
</linearGradient>
<linearGradient id="paint19_linear_45_3350" x1="71.1386" y1="687.056" x2="1567.35" y2="320.036" gradientUnits="userSpaceOnUse">
<stop stop-color="#1051B4"/>
<stop offset="1" stop-color="#43ACFB"/>
</linearGradient>
<linearGradient id="paint20_linear_45_3350" x1="71.1386" y1="687.056" x2="1567.35" y2="320.036" gradientUnits="userSpaceOnUse">
<stop stop-color="#1051B4"/>
<stop offset="1" stop-color="#43ACFB"/>
</linearGradient>
<linearGradient id="paint21_linear_45_3350" x1="71.1386" y1="687.056" x2="1567.35" y2="320.036" gradientUnits="userSpaceOnUse">
<stop stop-color="#1051B4"/>
<stop offset="1" stop-color="#43ACFB"/>
</linearGradient>
<linearGradient id="paint22_linear_45_3350" x1="71.1386" y1="687.056" x2="1567.35" y2="320.036" gradientUnits="userSpaceOnUse">
<stop stop-color="#1051B4"/>
<stop offset="1" stop-color="#43ACFB"/>
</linearGradient>
<linearGradient id="paint23_linear_45_3350" x1="71.1386" y1="687.056" x2="1567.35" y2="320.036" gradientUnits="userSpaceOnUse">
<stop stop-color="#1051B4"/>
<stop offset="1" stop-color="#43ACFB"/>
</linearGradient>
<linearGradient id="paint24_linear_45_3350" x1="71.1386" y1="687.056" x2="1567.35" y2="320.036" gradientUnits="userSpaceOnUse">
<stop stop-color="#1051B4"/>
<stop offset="1" stop-color="#43ACFB"/>
</linearGradient>
<linearGradient id="paint25_linear_45_3350" x1="71.1386" y1="687.056" x2="1567.35" y2="320.036" gradientUnits="userSpaceOnUse">
<stop stop-color="#1051B4"/>
<stop offset="1" stop-color="#43ACFB"/>
</linearGradient>
<linearGradient id="paint26_linear_45_3350" x1="71.1386" y1="687.056" x2="1567.35" y2="320.036" gradientUnits="userSpaceOnUse">
<stop stop-color="#1051B4"/>
<stop offset="1" stop-color="#43ACFB"/>
</linearGradient>
<linearGradient id="paint27_linear_45_3350" x1="71.1386" y1="687.056" x2="1567.35" y2="320.036" gradientUnits="userSpaceOnUse">
<stop stop-color="#1051B4"/>
<stop offset="1" stop-color="#43ACFB"/>
</linearGradient>
<linearGradient id="paint28_linear_45_3350" x1="71.1386" y1="687.056" x2="1567.35" y2="320.036" gradientUnits="userSpaceOnUse">
<stop stop-color="#1051B4"/>
<stop offset="1" stop-color="#43ACFB"/>
</linearGradient>
<linearGradient id="paint29_linear_45_3350" x1="71.1386" y1="687.056" x2="1567.35" y2="320.036" gradientUnits="userSpaceOnUse">
<stop stop-color="#1051B4"/>
<stop offset="1" stop-color="#43ACFB"/>
</linearGradient>
<linearGradient id="paint30_linear_45_3350" x1="71.1386" y1="687.056" x2="1567.35" y2="320.036" gradientUnits="userSpaceOnUse">
<stop stop-color="#1051B4"/>
<stop offset="1" stop-color="#43ACFB"/>
</linearGradient>
<linearGradient id="paint31_linear_45_3350" x1="71.1386" y1="687.056" x2="1567.35" y2="320.036" gradientUnits="userSpaceOnUse">
<stop stop-color="#1051B4"/>
<stop offset="1" stop-color="#43ACFB"/>
</linearGradient>
<linearGradient id="paint32_linear_45_3350" x1="71.1386" y1="687.056" x2="1567.35" y2="320.036" gradientUnits="userSpaceOnUse">
<stop stop-color="#1051B4"/>
<stop offset="1" stop-color="#43ACFB"/>
</linearGradient>
<linearGradient id="paint33_linear_45_3350" x1="71.1386" y1="687.056" x2="1567.35" y2="320.036" gradientUnits="userSpaceOnUse">
<stop stop-color="#1051B4"/>
<stop offset="1" stop-color="#43ACFB"/>
</linearGradient>
<linearGradient id="paint34_linear_45_3350" x1="71.1386" y1="687.056" x2="1567.35" y2="320.036" gradientUnits="userSpaceOnUse">
<stop stop-color="#1051B4"/>
<stop offset="1" stop-color="#43ACFB"/>
</linearGradient>
<linearGradient id="paint35_linear_45_3350" x1="71.1386" y1="687.056" x2="1567.35" y2="320.036" gradientUnits="userSpaceOnUse">
<stop stop-color="#1051B4"/>
<stop offset="1" stop-color="#43ACFB"/>
</linearGradient>
<linearGradient id="paint36_linear_45_3350" x1="71.1386" y1="687.056" x2="1567.35" y2="320.036" gradientUnits="userSpaceOnUse">
<stop stop-color="#1051B4"/>
<stop offset="1" stop-color="#43ACFB"/>
</linearGradient>
<linearGradient id="paint37_linear_45_3350" x1="71.1386" y1="687.056" x2="1567.35" y2="320.036" gradientUnits="userSpaceOnUse">
<stop stop-color="#1051B4"/>
<stop offset="1" stop-color="#43ACFB"/>
</linearGradient>
<linearGradient id="paint38_linear_45_3350" x1="71.1386" y1="687.056" x2="1567.35" y2="320.036" gradientUnits="userSpaceOnUse">
<stop stop-color="#1051B4"/>
<stop offset="1" stop-color="#43ACFB"/>
</linearGradient>
<linearGradient id="paint39_linear_45_3350" x1="71.1386" y1="687.056" x2="1567.35" y2="320.036" gradientUnits="userSpaceOnUse">
<stop stop-color="#1051B4"/>
<stop offset="1" stop-color="#43ACFB"/>
</linearGradient>
<linearGradient id="paint40_linear_45_3350" x1="71.1386" y1="687.056" x2="1567.35" y2="320.036" gradientUnits="userSpaceOnUse">
<stop stop-color="#1051B4"/>
<stop offset="1" stop-color="#43ACFB"/>
</linearGradient>
<linearGradient id="paint41_linear_45_3350" x1="71.1386" y1="687.056" x2="1567.35" y2="320.036" gradientUnits="userSpaceOnUse">
<stop stop-color="#1051B4"/>
<stop offset="1" stop-color="#43ACFB"/>
</linearGradient>
<linearGradient id="paint42_linear_45_3350" x1="71.1386" y1="687.056" x2="1567.35" y2="320.036" gradientUnits="userSpaceOnUse">
<stop stop-color="#1051B4"/>
<stop offset="1" stop-color="#43ACFB"/>
</linearGradient>
<linearGradient id="paint43_linear_45_3350" x1="71.1386" y1="687.056" x2="1567.35" y2="320.036" gradientUnits="userSpaceOnUse">
<stop stop-color="#1051B4"/>
<stop offset="1" stop-color="#43ACFB"/>
</linearGradient>
</defs>
</svg>
